  0
SECTION
  2
HEADER
  9
$ACADVER
  1
AC1015
  9
$ACADMAINTVER
 70
     6
  9
$DWGCODEPAGE
  3
ANSI_1252
  9
$INSBASE
 10
0.0
 20
0.0
 30
0.0
  9
$EXTMIN
 10
0.0
 20
0.0
 30
0.0
  9
$EXTMAX
 10
418.67500635
 20
116.2001524
 30
0.0
  9
$LIMMIN
 10
0.0
 20
0.0
  9
$LIMMAX
 10
420.0
 20
297.0
  9
$ORTHOMODE
 70
     0
  9
$REGENMODE
 70
     1
  9
$FILLMODE
 70
     1
  9
$QTEXTMODE
 70
     0
  9
$MIRRTEXT
 70
     1
  9
$LTSCALE
 40
1.0
  9
$ATTMODE
 70
     1
  9
$TEXTSIZE
 40
3.5
  9
$TRACEWID
 40
1.0
  9
$TEXTSTYLE
  7
Standard
  9
$CLAYER
  8
0
  9
$CELTYPE
  6
ByLayer
  9
$CECOLOR
 62
   256
  9
$CELTSCALE
 40
1.0
  9
$DISPSILH
 70
     0
  9
$DIMSCALE
 40
1.0
  9
$DIMASZ
 40
3.302
  9
$DIMEXO
 40
0.0
  9
$DIMDLI
 40
3.75
  9
$DIMRND
 40
0.0
  9
$DIMDLE
 40
0.0
  9
$DIMEXE
 40
1.0
  9
$DIMTP
 40
0.0
  9
$DIMTM
 40
0.0
  9
$DIMTXT
 40
3.5
  9
$DIMCEN
 40
2.5
  9
$DIMTSZ
 40
0.0
  9
$DIMTOL
 70
     0
  9
$DIMLIM
 70
     0
  9
$DIMTIH
 70
     1
  9
$DIMTOH
 70
     1
  9
$DIMSE1
 70
     0
  9
$DIMSE2
 70
     0
  9
$DIMTAD
 70
     1
  9
$DIMZIN
 70
     1
  9
$DIMBLK
  1

  9
$DIMASO
 70
     1
  9
$DIMSHO
 70
     1
  9
$DIMPOST
  1

  9
$DIMAPOST
  1

  9
$DIMALT
 70
     0
  9
$DIMALTD
 70
     3
  9
$DIMALTF
 40
0.0393700787
  9
$DIMLFAC
 40
1.0
  9
$DIMTOFL
 70
     1
  9
$DIMTVP
 40
0.0
  9
$DIMTIX
 70
     0
  9
$DIMSOXD
 70
     0
  9
$DIMSAH
 70
     0
  9
$DIMBLK1
  1

  9
$DIMBLK2
  1

  9
$DIMSTYLE
  2
ISO-25
  9
$DIMCLRD
 70
     0
  9
$DIMCLRE
 70
     0
  9
$DIMCLRT
 70
     0
  9
$DIMTFAC
 40
1.0
  9
$DIMGAP
 40
1.524
  9
$DIMJUST
 70
     0
  9
$DIMSD1
 70
     0
  9
$DIMSD2
 70
     0
  9
$DIMTOLJ
 70
     0
  9
$DIMTZIN
 70
     1
  9
$DIMALTZ
 70
     0
  9
$DIMALTTZ
 70
     0
  9
$DIMUPT
 70
     0
  9
$DIMDEC
 70
     2
  9
$DIMTDEC
 70
     2
  9
$DIMALTU
 70
     2
  9
$DIMALTTD
 70
     3
  9
$DIMTXSTY
  7
Standard
  9
$DIMAUNIT
 70
     0
  9
$DIMADEC
 70
     2
  9
$DIMALTRND
 40
0.0
  9
$DIMAZIN
 70
     0
  9
$DIMDSEP
 70
    44
  9
$DIMATFIT
 70
     3
  9
$DIMFRAC
 70
     0
  9
$DIMLDRBLK
  1

  9
$DIMLUNIT
 70
     2
  9
$DIMLWD
 70
    -2
  9
$DIMLWE
 70
    -2
  9
$DIMTMOVE
 70
     0
  9
$LUNITS
 70
     2
  9
$LUPREC
 70
     2
  9
$SKETCHINC
 40
1.0
  9
$FILLETRAD
 40
0.0
  9
$AUNITS
 70
     0
  9
$AUPREC
 70
     2
  9
$MENU
  1
.
  9
$ELEVATION
 40
0.0
  9
$PELEVATION
 40
0.0
  9
$THICKNESS
 40
0.0
  9
$LIMCHECK
 70
     0
  9
$CHAMFERA
 40
0.0
  9
$CHAMFERB
 40
0.0
  9
$CHAMFERC
 40
0.0
  9
$CHAMFERD
 40
0.0
  9
$SKPOLY
 70
     0
  9
$TDCREATE
 40
2460270.556154063
  9
$TDUCREATE
 40
2460270.764487396
  9
$TDUPDATE
 40
2460270.556196655
  9
$TDUUPDATE
 40
2460270.764529989
  9
$TDINDWG
 40
0.0000000116
  9
$TDUSRTIMER
 40
0.0000000116
  9
$USRTIMER
 70
     1
  9
$ANGBASE
 50
0.0
  9
$ANGDIR
 70
     0
  9
$PDMODE
 70
     0
  9
$PDSIZE
 40
-1.0
  9
$PLINEWID
 40
0.0
  9
$SPLFRAME
 70
     0
  9
$SPLINETYPE
 70
     6
  9
$SPLINESEGS
 70
     8
  9
$HANDSEED
  5
6EF
  9
$SURFTAB1
 70
     6
  9
$SURFTAB2
 70
     6
  9
$SURFTYPE
 70
     6
  9
$SURFU
 70
     6
  9
$SURFV
 70
     6
  9
$UCSBASE
  2

  9
$UCSNAME
  2

  9
$UCSORG
 10
0.0
 20
0.0
 30
0.0
  9
$UCSXDIR
 10
1.0
 20
0.0
 30
0.0
  9
$UCSYDIR
 10
0.0
 20
1.0
 30
0.0
  9
$UCSORTHOREF
  2

  9
$UCSORTHOVIEW
 70
     0
  9
$UCSORGTOP
 10
0.0
 20
0.0
 30
0.0
  9
$UCSORGBOTTOM
 10
0.0
 20
0.0
 30
0.0
  9
$UCSORGLEFT
 10
0.0
 20
0.0
 30
0.0
  9
$UCSORGRIGHT
 10
0.0
 20
0.0
 30
0.0
  9
$UCSORGFRONT
 10
0.0
 20
0.0
 30
0.0
  9
$UCSORGBACK
 10
0.0
 20
0.0
 30
0.0
  9
$PUCSBASE
  2

  9
$PUCSNAME
  2

  9
$PUCSORG
 10
0.0
 20
0.0
 30
0.0
  9
$PUCSXDIR
 10
1.0
 20
0.0
 30
0.0
  9
$PUCSYDIR
 10
0.0
 20
1.0
 30
0.0
  9
$PUCSORTHOREF
  2

  9
$PUCSORTHOVIEW
 70
     0
  9
$PUCSORGTOP
 10
0.0
 20
0.0
 30
0.0
  9
$PUCSORGBOTTOM
 10
0.0
 20
0.0
 30
0.0
  9
$PUCSORGLEFT
 10
0.0
 20
0.0
 30
0.0
  9
$PUCSORGRIGHT
 10
0.0
 20
0.0
 30
0.0
  9
$PUCSORGFRONT
 10
0.0
 20
0.0
 30
0.0
  9
$PUCSORGBACK
 10
0.0
 20
0.0
 30
0.0
  9
$USERI1
 70
     0
  9
$USERI2
 70
     0
  9
$USERI3
 70
     0
  9
$USERI4
 70
     0
  9
$USERI5
 70
     0
  9
$USERR1
 40
0.0
  9
$USERR2
 40
0.0
  9
$USERR3
 40
0.0
  9
$USERR4
 40
0.0
  9
$USERR5
 40
0.0
  9
$WORLDVIEW
 70
     1
  9
$SHADEDGE
 70
     3
  9
$SHADEDIF
 70
    70
  9
$TILEMODE
 70
     1
  9
$MAXACTVP
 70
    64
  9
$PINSBASE
 10
0.0
 20
0.0
 30
0.0
  9
$PLIMCHECK
 70
     0
  9
$PEXTMIN
 10
1.0000000000E+20
 20
1.0000000000E+20
 30
1.0000000000E+20
  9
$PEXTMAX
 10
-1.0000000000E+20
 20
-1.0000000000E+20
 30
-1.0000000000E+20
  9
$PLIMMIN
 10
0.0
 20
0.0
  9
$PLIMMAX
 10
420.0
 20
297.0
  9
$UNITMODE
 70
     0
  9
$VISRETAIN
 70
     1
  9
$PLINEGEN
 70
     0
  9
$PSLTSCALE
 70
     1
  9
$TREEDEPTH
 70
  3020
  9
$CMLSTYLE
  2
Standard
  9
$CMLJUST
 70
     0
  9
$CMLSCALE
 40
20.0
  9
$PROXYGRAPHICS
 70
     1
  9
$MEASUREMENT
 70
     1
  9
$CELWEIGHT
370
    -1
  9
$ENDCAPS
280
     0
  9
$JOINSTYLE
280
     0
  9
$LWDISPLAY
290
     1
  9
$INSUNITS
 70
     4
  9
$HYPERLINKBASE
  1

  9
$STYLESHEET
  1

  9
$XEDIT
290
     1
  9
$CEPSNTYPE
380
     0
  9
$PSTYLEMODE
290
     1
  9
$FINGERPRINTGUID
  2
{5d8d2e8f-8845-4015-9a75-4a99857bda15}
  9
$VERSIONGUID
  2
{FAEB1C32-E019-11D5-929B-00C0DF256EC4}
  9
$EXTNAMES
290
     1
  9
$PSVPSCALE
 40
0.0
  9
$OLESTARTUP
290
     0
  0
ENDSEC
  0
SECTION
  2
CLASSES
  0
CLASS
  1
ACDBDICTIONARYWDFLT
  2
AcDbDictionaryWithDefault
  3
ObjectDBX Classes
 90
        0
280
     0
281
     0
  0
CLASS
  1
VISUALSTYLE
  2
AcDbVisualStyle
  3
ObjectDBX Classes
 90
     4095
280
     0
281
     0
  0
CLASS
  1
MATERIAL
  2
AcDbMaterial
  3
ObjectDBX Classes
 90
     1153
280
     0
281
     0
  0
CLASS
  1
SCALE
  2
AcDbScale
  3
ObjectDBX Classes
 90
     1153
280
     0
281
     0
  0
CLASS
  1
TABLESTYLE
  2
AcDbTableStyle
  3
ObjectDBX Classes
 90
     4095
280
     0
281
     0
  0
CLASS
  1
MLEADERSTYLE
  2
AcDbMLeaderStyle
  3
ACDB_MLEADERSTYLE_CLASS
 90
     4095
280
     0
281
     0
  0
CLASS
  1
SUN
  2
AcDbSun
  3
SCENEOE
 90
     1153
280
     0
281
     0
  0
CLASS
  1
ACDBPLACEHOLDER
  2
AcDbPlaceHolder
  3
ObjectDBX Classes
 90
        0
280
     0
281
     0
  0
CLASS
  1
LAYOUT
  2
AcDbLayout
  3
ObjectDBX Classes
 90
        0
280
     0
281
     0
  0
ENDSEC
  0
SECTION
  2
TABLES
  0
TABLE
  2
VPORT
  5
8
330
0
100
AcDbSymbolTable
 70
     1
  0
VPORT
  5
29
330
8
100
AcDbSymbolTableRecord
100
AcDbViewportTableRecord
  2
*Active
 70
     0
 10
0.0
 20
0.0
 11
1.0
 21
1.0
 12
209.337503175
 22
58.1000762
 13
0.0
 23
0.0
 14
10.0
 24
10.0
 15
10.0
 25
10.0
 16
0.0
 26
0.0
 36
1.0
 17
0.0
 27
0.0
 37
0.0
 40
118.524155448
 41
3.6030504066
 42
50.0
 43
0.0
 44
0.0
 50
0.0
 51
0.0
 71
     0
 72
   100
 73
     1
 74
     3
 75
     0
 76
     0
 77
     0
 78
     0
281
     0
 65
     1
110
0.0
120
0.0
130
0.0
111
1.0
121
0.0
131
0.0
112
0.0
122
1.0
132
0.0
 79
     0
146
0.0
  0
ENDTAB
  0
TABLE
  2
LTYPE
  5
5
330
0
100
AcDbSymbolTable
 70
     6
  0
LTYPE
  5
14
330
5
100
AcDbSymbolTableRecord
100
AcDbLinetypeTableRecord
  2
ByBlock
 70
     0
  3

 72
    65
 73
     0
 40
0.0
  0
LTYPE
  5
15
330
5
100
AcDbSymbolTableRecord
100
AcDbLinetypeTableRecord
  2
ByLayer
 70
     0
  3

 72
    65
 73
     0
 40
0.0
  0
LTYPE
  5
16
330
5
100
AcDbSymbolTableRecord
100
AcDbLinetypeTableRecord
  2
Continuous
 70
     0
  3
Solid line
 72
    65
 73
     0
 40
0.0
  0
LTYPE
  5
5E
330
5
100
AcDbSymbolTableRecord
100
AcDbLinetypeTableRecord
  2
HIDDEN
 70
     0
  3
Hidden __ __ __ __ __ __ __ __ __ __ __ __ __ __
 72
    65
 73
     2
 40
1.905
 49
1.27
 74
     0
 49
-0.635
 74
     0
  0
LTYPE
  5
5F
330
5
100
AcDbSymbolTableRecord
100
AcDbLinetypeTableRecord
  2
PHANTOM
 70
     0
  3
Phantom ______  __  __  ______  __  __  ______
 72
    65
 73
     6
 40
12.7
 49
6.35
 74
     0
 49
-1.27
 74
     0
 49
1.27
 74
     0
 49
-1.27
 74
     0
 49
1.27
 74
     0
 49
-1.27
 74
     0
  0
LTYPE
  5
60
330
5
100
AcDbSymbolTableRecord
100
AcDbLinetypeTableRecord
  2
CENTER
 70
     0
  3
Center ____ _ ____ _ ____ _ ____ _ ____ _ ____
 72
    65
 73
     4
 40
10.16
 49
6.35
 74
     0
 49
-1.27
 74
     0
 49
1.27
 74
     0
 49
-1.27
 74
     0
  0
LTYPE
  5
61
330
5
100
AcDbSymbolTableRecord
100
AcDbLinetypeTableRecord
  2
CENTERX2
 70
     0
  3
Center (2x) ________  __  ________  __  _____
 72
    65
 73
     4
 40
20.32
 49
12.7
 74
     0
 49
-2.54
 74
     0
 49
2.54
 74
     0
 49
-2.54
 74
     0
  0
LTYPE
  5
62
330
5
100
AcDbSymbolTableRecord
100
AcDbLinetypeTableRecord
  2
DOT2
 70
     0
  3
Dot (.5x) ........................................
 72
    65
 73
     2
 40
0.635
 49
0.0
 74
     0
 49
-0.635
 74
     0
  0
ENDTAB
  0
TABLE
  2
LAYER
  5
2
330
0
100
AcDbSymbolTable
 70
     1
  0
LAYER
  5
10
330
2
100
AcDbSymbolTableRecord
100
AcDbLayerTableRecord
  2
0
 70
     0
 62
     7
  6
Continuous
370
    -3
390
F
  0
ENDTAB
  0
TABLE
  2
STYLE
  5
3
330
0
100
AcDbSymbolTable
 70
     1
  0
STYLE
  5
11
330
3
100
AcDbSymbolTableRecord
100
AcDbTextStyleTableRecord
  2
Standard
 70
     0
 40
0.0
 41
1.0
 50
0.0
 71
     0
 42
3.5
  3
txt
  4

  0
ENDTAB
  0
TABLE
  2
VIEW
  5
6
330
0
100
AcDbSymbolTable
 70
     0
  0
ENDTAB
  0
TABLE
  2
UCS
  5
7
330
0
100
AcDbSymbolTable
 70
     0
  0
ENDTAB
  0
TABLE
  2
APPID
  5
9
330
0
100
AcDbSymbolTable
 70
     1
  0
APPID
  5
12
330
9
100
AcDbSymbolTableRecord
100
AcDbRegAppTableRecord
  2
ACAD
 70
     0
  0
ENDTAB
  0
TABLE
  2
DIMSTYLE
  5
A
330
0
100
AcDbSymbolTable
 70
     1
100
AcDbDimStyleTable
  0
DIMSTYLE
105
27
330
A
100
AcDbSymbolTableRecord
100
AcDbDimStyleTableRecord
  2
ISO-25
 70
     0
 41
2.5
 42
0.625
 43
3.75
 44
1.25
 73
     0
 74
     0
 77
     1
 78
     8
140
2.5
141
2.5
143
0.0393700787
147
0.625
171
     3
172
     1
178
     0
271
     2
272
     2
274
     3
278
    44
283
     0
284
     8
340
11
  0
ENDTAB
  0
TABLE
  2
BLOCK_RECORD
  5
1
330
0
100
AcDbSymbolTable
 70
     1
  0
BLOCK_RECORD
  5
1F
330
1
100
AcDbSymbolTableRecord
100
AcDbBlockTableRecord
  2
*Model_Space
340
22
  0
BLOCK_RECORD
  5
1B
330
1
100
AcDbSymbolTableRecord
100
AcDbBlockTableRecord
  2
*Paper_Space
340
1E
  0
BLOCK_RECORD
  5
23
330
1
100
AcDbSymbolTableRecord
100
AcDbBlockTableRecord
  2
*Paper_Space0
340
26
  0
ENDTAB
  0
ENDSEC
  0
SECTION
  2
BLOCKS
  0
BLOCK
  5
20
330
1F
100
AcDbEntity
  8
0
100
AcDbBlockBegin
  2
*Model_Space
 70
     0
 10
0.0
 20
0.0
 30
0.0
  3
*Model_Space
  1

  0
ENDBLK
  5
21
330
1F
100
AcDbEntity
  8
0
100
AcDbBlockEnd
  0
BLOCK
  5
1C
330
1B
100
AcDbEntity
 67
     1
  8
0
100
AcDbBlockBegin
  2
*Paper_Space
 70
     0
 10
0.0
 20
0.0
 30
0.0
  3
*Paper_Space
  1

  0
ENDBLK
  5
1D
330
1B
100
AcDbEntity
 67
     1
  8
0
100
AcDbBlockEnd
  0
BLOCK
  5
24
330
23
100
AcDbEntity
  8
0
100
AcDbBlockBegin
  2
*Paper_Space0
 70
     0
 10
0.0
 20
0.0
 30
0.0
  3
*Paper_Space0
  1

  0
ENDBLK
  5
25
330
23
100
AcDbEntity
  8
0
100
AcDbBlockEnd
  0
ENDSEC
  0
SECTION
  2
ENTITIES
  0
CIRCLE
  5
22B
330
1F
100
AcDbEntity
  8
0
  6
Continuous
 62
     7
370
    25
100
AcDbCircle
 10
19.0251206502
 20
96.2001524
 30
0.0
 40
2.000000000000007
  0
CIRCLE
  5
22C
330
1F
100
AcDbEntity
  8
0
  6
Continuous
 62
     7
370
    25
100
AcDbCircle
 10
19.0251206502
 20
20.1501142999
 30
0.0
 40
2.000000000000007
  0
CIRCLE
  5
22D
330
1F
100
AcDbEntity
  8
0
  6
Continuous
 62
     7
370
    25
100
AcDbCircle
 10
393.87500635
 20
20.0002540002
 30
0.0
 40
2.0
  0
CIRCLE
  5
22E
330
1F
100
AcDbEntity
  8
0
  6
Continuous
 62
     7
370
    25
100
AcDbCircle
 10
112.587985776
 20
25.2001524
 30
0.0
 40
2.0
  0
CIRCLE
  5
22F
330
1F
100
AcDbEntity
  8
0
  6
Continuous
 62
     7
370
    25
100
AcDbCircle
 10
169.7381000762
 20
25.2001524
 30
0.0
 40
1.999999999999972
  0
CIRCLE
  5
230
330
1F
100
AcDbEntity
  8
0
  6
Continuous
 62
     7
370
    25
100
AcDbCircle
 10
250.6979679959
 20
20.0001524
 30
0.0
 40
2.000000000000028
  0
CIRCLE
  5
231
330
1F
100
AcDbEntity
  8
0
  6
Continuous
 62
     7
370
    25
100
AcDbCircle
 10
299.613004826
 20
20.0002540002
 30
0.0
 40
2.0
  0
CIRCLE
  5
232
330
1F
100
AcDbEntity
  8
0
  6
Continuous
 62
     7
370
    25
100
AcDbCircle
 10
299.613004826
 20
58.1000761998
 30
0.0
 40
1.999999999999943
  0
CIRCLE
  5
233
330
1F
100
AcDbEntity
  8
0
  6
Continuous
 62
     7
370
    25
100
AcDbCircle
 10
299.613004826
 20
96.4500888999
 30
0.0
 40
2.0
  0
CIRCLE
  5
234
330
1F
100
AcDbEntity
  8
0
  6
Continuous
 62
     7
370
    25
100
AcDbCircle
 10
393.87500635
 20
104.7000253997
 30
0.0
 40
2.0
  0
CIRCLE
  5
235
330
1F
100
AcDbEntity
  8
0
  6
Continuous
 62
     7
370
    25
100
AcDbCircle
 10
393.87500635
 20
77.7000253997
 30
0.0
 40
2.0
  0
LINE
  5
3B2
330
1F
100
AcDbEntity
  8
0
  6
Continuous
 62
     7
370
    25
100
AcDbLine
 10
412.5378206756
 20
98.7001524
 30
0.0
 11
418.67500635
 21
98.7001524
 31
0.0
  0
LINE
  5
3B3
330
1F
100
AcDbEntity
  8
0
  6
Continuous
 62
     7
370
    25
100
AcDbLine
 10
412.4664305487
 20
98.6991328821
 30
0.0
 11
412.5378206756
 21
98.7001524
 31
0.0
  0
LINE
  5
3B4
330
1F
100
AcDbEntity
  8
0
  6
Continuous
 62
     7
370
    25
100
AcDbLine
 10
412.3950986485
 20
98.6960751598
 30
0.0
 11
412.4664305487
 21
98.6991328821
 31
0.0
  0
LINE
  5
3B5
330
1F
100
AcDbEntity
  8
0
  6
Continuous
 62
     7
370
    25
100
AcDbLine
 10
412.3238831544
 20
98.6909817272
 30
0.0
 11
412.3950986485
 21
98.6960751598
 31
0.0
  0
LINE
  5
3B6
330
1F
100
AcDbEntity
  8
0
  6
Continuous
 62
     7
370
    25
100
AcDbLine
 10
412.2528421509
 20
98.6838567384
 30
0.0
 11
412.3238831544
 21
98.6909817272
 31
0.0
  0
LINE
  5
3B7
330
1F
100
AcDbEntity
  8
0
  6
Continuous
 62
     7
370
    25
100
AcDbLine
 10
412.18203358
 20
98.6747060047
 30
0.0
 11
412.2528421509
 21
98.6838567384
 31
0.0
  0
LINE
  5
3B8
330
1F
100
AcDbEntity
  8
0
  6
Continuous
 62
     7
370
    25
100
AcDbLine
 10
412.1115151941
 20
98.6635369896
 30
0.0
 11
412.18203358
 21
98.6747060047
 31
0.0
  0
LINE
  5
3B9
330
1F
100
AcDbEntity
  8
0
  6
Continuous
 62
     7
370
    25
100
AcDbLine
 10
412.041344509
 20
98.6503588027
 30
0.0
 11
412.1115151941
 21
98.6635369896
 31
0.0
  0
LINE
  5
3BA
330
1F
100
AcDbEntity
  8
0
  6
Continuous
 62
     7
370
    25
100
AcDbLine
 10
411.9715787571
 20
98.6351821924
 30
0.0
 11
412.041344509
 21
98.6503588027
 31
0.0
  0
LINE
  5
3BB
330
1F
100
AcDbEntity
  8
0
  6
Continuous
 62
     7
370
    25
100
AcDbLine
 10
411.9022748402
 20
98.6180195368
 30
0.0
 11
411.9715787571
 21
98.6351821924
 31
0.0
  0
LINE
  5
3BC
330
1F
100
AcDbEntity
  8
0
  6
Continuous
 62
     7
370
    25
100
AcDbLine
 10
411.8334892835
 20
98.598884834
 30
0.0
 11
411.9022748402
 21
98.6180195368
 31
0.0
  0
LINE
  5
3BD
330
1F
100
AcDbEntity
  8
0
  6
Continuous
 62
     7
370
    25
100
AcDbLine
 10
411.7652781897
 20
98.5777936907
 30
0.0
 11
411.8334892835
 21
98.598884834
 31
0.0
  0
LINE
  5
3BE
330
1F
100
AcDbEntity
  8
0
  6
Continuous
 62
     7
370
    25
100
AcDbLine
 10
411.6976971926
 20
98.5547633091
 30
0.0
 11
411.7652781897
 21
98.5777936907
 31
0.0
  0
LINE
  5
3BF
330
1F
100
AcDbEntity
  8
0
  6
Continuous
 62
     7
370
    25
100
AcDbLine
 10
411.6308014123
 20
98.529812473
 30
0.0
 11
411.6976971926
 21
98.5547633091
 31
0.0
  0
LINE
  5
3C0
330
1F
100
AcDbEntity
  8
0
  6
Continuous
 62
     7
370
    25
100
AcDbLine
 10
411.5646454098
 20
98.5029615328
 30
0.0
 11
411.6308014123
 21
98.529812473
 31
0.0
  0
LINE
  5
3C1
330
1F
100
AcDbEntity
  8
0
  6
Continuous
 62
     7
370
    25
100
AcDbLine
 10
411.4992831431
 20
98.4742323884
 30
0.0
 11
411.5646454098
 21
98.5029615328
 31
0.0
  0
LINE
  5
3C2
330
1F
100
AcDbEntity
  8
0
  6
Continuous
 62
     7
370
    25
100
AcDbLine
 10
411.4347679225
 20
98.4436484717
 30
0.0
 11
411.4992831431
 21
98.4742323884
 31
0.0
  0
LINE
  5
3C3
330
1F
100
AcDbEntity
  8
0
  6
Continuous
 62
     7
370
    25
100
AcDbLine
 10
411.3711523676
 20
98.4112347275
 30
0.0
 11
411.4347679225
 21
98.4436484717
 31
0.0
  0
LINE
  5
3C4
330
1F
100
AcDbEntity
  8
0
  6
Continuous
 62
     7
370
    25
100
AcDbLine
 10
411.308488364
 20
98.3770175928
 30
0.0
 11
411.3711523676
 21
98.4112347275
 31
0.0
  0
LINE
  5
3C5
330
1F
100
AcDbEntity
  8
0
  6
Continuous
 62
     7
370
    25
100
AcDbLine
 10
411.2468270215
 20
98.3410249756
 30
0.0
 11
411.308488364
 21
98.3770175928
 31
0.0
  0
LINE
  5
3C6
330
1F
100
AcDbEntity
  8
0
  6
Continuous
 62
     7
370
    25
100
AcDbLine
 10
411.186218632
 20
98.3032862321
 30
0.0
 11
411.2468270215
 21
98.3410249756
 31
0.0
  0
LINE
  5
3C7
330
1F
100
AcDbEntity
  8
0
  6
Continuous
 62
     7
370
    25
100
AcDbLine
 10
411.1267126285
 20
98.2638321424
 30
0.0
 11
411.186218632
 21
98.3032862321
 31
0.0
  0
LINE
  5
3C8
330
1F
100
AcDbEntity
  8
0
  6
Continuous
 62
     7
370
    25
100
AcDbLine
 10
411.0683575449
 20
98.2226948859
 30
0.0
 11
411.1267126285
 21
98.2638321424
 31
0.0
  0
LINE
  5
3C9
330
1F
100
AcDbEntity
  8
0
  6
Continuous
 62
     7
370
    25
100
AcDbLine
 10
411.0112009766
 20
98.1799080148
 30
0.0
 11
411.0683575449
 21
98.2226948859
 31
0.0
  0
LINE
  5
3CA
330
1F
100
AcDbEntity
  8
0
  6
Continuous
 62
     7
370
    25
100
AcDbLine
 10
410.9552895411
 20
98.1355064266
 30
0.0
 11
411.0112009766
 21
98.1799080148
 31
0.0
  0
LINE
  5
3CB
330
1F
100
AcDbEntity
  8
0
  6
Continuous
 62
     7
370
    25
100
AcDbLine
 10
410.9006688408
 20
98.0895263359
 30
0.0
 11
410.9552895411
 21
98.1355064266
 31
0.0
  0
LINE
  5
3CC
330
1F
100
AcDbEntity
  8
0
  6
Continuous
 62
     7
370
    25
100
AcDbLine
 10
410.847383425
 20
98.0420052447
 30
0.0
 11
410.9006688408
 21
98.0895263359
 31
0.0
  0
LINE
  5
3CD
330
1F
100
AcDbEntity
  8
0
  6
Continuous
 62
     7
370
    25
100
AcDbLine
 10
410.795476754
 20
97.9929819119
 30
0.0
 11
410.847383425
 21
98.0420052447
 31
0.0
  0
LINE
  5
3CE
330
1F
100
AcDbEntity
  8
0
  6
Continuous
 62
     7
370
    25
100
AcDbLine
 10
410.7449911637
 20
97.9424963216
 30
0.0
 11
410.795476754
 21
97.9929819119
 31
0.0
  0
LINE
  5
3CF
330
1F
100
AcDbEntity
  8
0
  6
Continuous
 62
     7
370
    25
100
AcDbLine
 10
410.695967831
 20
97.8905896507
 30
0.0
 11
410.7449911637
 21
97.9424963216
 31
0.0
  0
LINE
  5
3D0
330
1F
100
AcDbEntity
  8
0
  6
Continuous
 62
     7
370
    25
100
AcDbLine
 10
410.6484467398
 20
97.8373042349
 30
0.0
 11
410.695967831
 21
97.8905896507
 31
0.0
  0
LINE
  5
3D1
330
1F
100
AcDbEntity
  8
0
  6
Continuous
 62
     7
370
    25
100
AcDbLine
 10
410.602466649
 20
97.7826835345
 30
0.0
 11
410.6484467398
 21
97.8373042349
 31
0.0
  0
LINE
  5
3D2
330
1F
100
AcDbEntity
  8
0
  6
Continuous
 62
     7
370
    25
100
AcDbLine
 10
410.5580650608
 20
97.7267720991
 30
0.0
 11
410.602466649
 21
97.7826835345
 31
0.0
  0
LINE
  5
3D3
330
1F
100
AcDbEntity
  8
0
  6
Continuous
 62
     7
370
    25
100
AcDbLine
 10
410.5152781897
 20
97.6696155307
 30
0.0
 11
410.5580650608
 21
97.7267720991
 31
0.0
  0
LINE
  5
3D4
330
1F
100
AcDbEntity
  8
0
  6
Continuous
 62
     7
370
    25
100
AcDbLine
 10
410.4741409332
 20
97.6112604472
 30
0.0
 11
410.5152781897
 21
97.6696155307
 31
0.0
  0
LINE
  5
3D5
330
1F
100
AcDbEntity
  8
0
  6
Continuous
 62
     7
370
    25
100
AcDbLine
 10
410.4346868436
 20
97.5517544436
 30
0.0
 11
410.4741409332
 21
97.6112604472
 31
0.0
  0
LINE
  5
3D6
330
1F
100
AcDbEntity
  8
0
  6
Continuous
 62
     7
370
    25
100
AcDbLine
 10
410.3969481
 20
97.4911460541
 30
0.0
 11
410.4346868436
 21
97.5517544436
 31
0.0
  0
LINE
  5
3D7
330
1F
100
AcDbEntity
  8
0
  6
Continuous
 62
     7
370
    25
100
AcDbLine
 10
410.3609554828
 20
97.4294847116
 30
0.0
 11
410.3969481
 21
97.4911460541
 31
0.0
  0
LINE
  5
3D8
330
1F
100
AcDbEntity
  8
0
  6
Continuous
 62
     7
370
    25
100
AcDbLine
 10
410.3267383481
 20
97.3668207081
 30
0.0
 11
410.3609554828
 21
97.4294847116
 31
0.0
  0
LINE
  5
3D9
330
1F
100
AcDbEntity
  8
0
  6
Continuous
 62
     7
370
    25
100
AcDbLine
 10
410.2943246039
 20
97.3032051531
 30
0.0
 11
410.3267383481
 21
97.3668207081
 31
0.0
  0
LINE
  5
3DA
330
1F
100
AcDbEntity
  8
0
  6
Continuous
 62
     7
370
    25
100
AcDbLine
 10
410.2637406873
 20
97.2386899325
 30
0.0
 11
410.2943246039
 21
97.3032051531
 31
0.0
  0
LINE
  5
3DB
330
1F
100
AcDbEntity
  8
0
  6
Continuous
 62
     7
370
    25
100
AcDbLine
 10
410.2350115429
 20
97.1733276658
 30
0.0
 11
410.2637406873
 21
97.2386899325
 31
0.0
  0
LINE
  5
3DC
330
1F
100
AcDbEntity
  8
0
  6
Continuous
 62
     7
370
    25
100
AcDbLine
 10
410.2081606026
 20
97.1071716634
 30
0.0
 11
410.2350115429
 21
97.1733276658
 31
0.0
  0
LINE
  5
3DD
330
1F
100
AcDbEntity
  8
0
  6
Continuous
 62
     7
370
    25
100
AcDbLine
 10
410.1832097665
 20
97.040275883
 30
0.0
 11
410.2081606026
 21
97.1071716634
 31
0.0
  0
LINE
  5
3DE
330
1F
100
AcDbEntity
  8
0
  6
Continuous
 62
     7
370
    25
100
AcDbLine
 10
410.1601793849
 20
96.9726948859
 30
0.0
 11
410.1832097665
 21
97.040275883
 31
0.0
  0
LINE
  5
3DF
330
1F
100
AcDbEntity
  8
0
  6
Continuous
 62
     7
370
    25
100
AcDbLine
 10
410.1390882416
 20
96.9044837921
 30
0.0
 11
410.1601793849
 21
96.9726948859
 31
0.0
  0
LINE
  5
3E0
330
1F
100
AcDbEntity
  8
0
  6
Continuous
 62
     7
370
    25
100
AcDbLine
 10
410.1199535389
 20
96.8356982355
 30
0.0
 11
410.1390882416
 21
96.9044837921
 31
0.0
  0
LINE
  5
3E1
330
1F
100
AcDbEntity
  8
0
  6
Continuous
 62
     7
370
    25
100
AcDbLine
 10
410.1027908833
 20
96.7663943186
 30
0.0
 11
410.1199535389
 21
96.8356982355
 31
0.0
  0
LINE
  5
3E2
330
1F
100
AcDbEntity
  8
0
  6
Continuous
 62
     7
370
    25
100
AcDbLine
 10
410.0876142729
 20
96.6966285666
 30
0.0
 11
410.1027908833
 21
96.7663943186
 31
0.0
  0
LINE
  5
3E3
330
1F
100
AcDbEntity
  8
0
  6
Continuous
 62
     7
370
    25
100
AcDbLine
 10
410.074436086
 20
96.6264578816
 30
0.0
 11
410.0876142729
 21
96.6966285666
 31
0.0
  0
LINE
  5
3E4
330
1F
100
AcDbEntity
  8
0
  6
Continuous
 62
     7
370
    25
100
AcDbLine
 10
410.0632670709
 20
96.5559394957
 30
0.0
 11
410.074436086
 21
96.6264578816
 31
0.0
  0
LINE
  5
3E5
330
1F
100
AcDbEntity
  8
0
  6
Continuous
 62
     7
370
    25
100
AcDbLine
 10
410.0541163373
 20
96.4851309247
 30
0.0
 11
410.0632670709
 21
96.5559394957
 31
0.0
  0
LINE
  5
3E6
330
1F
100
AcDbEntity
  8
0
  6
Continuous
 62
     7
370
    25
100
AcDbLine
 10
410.0469913485
 20
96.4140899212
 30
0.0
 11
410.0541163373
 21
96.4851309247
 31
0.0
  0
LINE
  5
3E7
330
1F
100
AcDbEntity
  8
0
  6
Continuous
 62
     7
370
    25
100
AcDbLine
 10
410.0418979158
 20
96.3428744272
 30
0.0
 11
410.0469913485
 21
96.4140899212
 31
0.0
  0
LINE
  5
3E8
330
1F
100
AcDbEntity
  8
0
  6
Continuous
 62
     7
370
    25
100
AcDbLine
 10
410.0388401936
 20
96.271542527
 30
0.0
 11
410.0418979158
 21
96.3428744272
 31
0.0
  0
LINE
  5
3E9
330
1F
100
AcDbEntity
  8
0
  6
Continuous
 62
     7
370
    25
100
AcDbLine
 10
410.0378206756
 20
96.2001524
 30
0.0
 11
410.0388401936
 21
96.271542527
 31
0.0
  0
LINE
  5
3EA
330
1F
100
AcDbEntity
  8
0
  6
Continuous
 62
     7
370
    25
100
AcDbLine
 10
410.0388401936
 20
96.128762273
 30
0.0
 11
410.0378206756
 21
96.2001524
 31
0.0
  0
LINE
  5
3EB
330
1F
100
AcDbEntity
  8
0
  6
Continuous
 62
     7
370
    25
100
AcDbLine
 10
410.0418979158
 20
96.0574303728
 30
0.0
 11
410.0388401936
 21
96.128762273
 31
0.0
  0
LINE
  5
3EC
330
1F
100
AcDbEntity
  8
0
  6
Continuous
 62
     7
370
    25
100
AcDbLine
 10
410.0469913485
 20
95.9862148788
 30
0.0
 11
410.0418979158
 21
96.0574303728
 31
0.0
  0
LINE
  5
3ED
330
1F
100
AcDbEntity
  8
0
  6
Continuous
 62
     7
370
    25
100
AcDbLine
 10
410.0541163373
 20
95.9151738753
 30
0.0
 11
410.0469913485
 21
95.9862148788
 31
0.0
  0
LINE
  5
3EE
330
1F
100
AcDbEntity
  8
0
  6
Continuous
 62
     7
370
    25
100
AcDbLine
 10
410.0632670709
 20
95.8443653043
 30
0.0
 11
410.0541163373
 21
95.9151738753
 31
0.0
  0
LINE
  5
3EF
330
1F
100
AcDbEntity
  8
0
  6
Continuous
 62
     7
370
    25
100
AcDbLine
 10
410.074436086
 20
95.7738469184
 30
0.0
 11
410.0632670709
 21
95.8443653043
 31
0.0
  0
LINE
  5
3F0
330
1F
100
AcDbEntity
  8
0
  6
Continuous
 62
     7
370
    25
100
AcDbLine
 10
410.0876142729
 20
95.7036762334
 30
0.0
 11
410.074436086
 21
95.7738469184
 31
0.0
  0
LINE
  5
3F1
330
1F
100
AcDbEntity
  8
0
  6
Continuous
 62
     7
370
    25
100
AcDbLine
 10
410.1027908833
 20
95.6339104814
 30
0.0
 11
410.0876142729
 21
95.7036762334
 31
0.0
  0
LINE
  5
3F2
330
1F
100
AcDbEntity
  8
0
  6
Continuous
 62
     7
370
    25
100
AcDbLine
 10
410.1199535389
 20
95.5646065645
 30
0.0
 11
410.1027908833
 21
95.6339104814
 31
0.0
  0
LINE
  5
3F3
330
1F
100
AcDbEntity
  8
0
  6
Continuous
 62
     7
370
    25
100
AcDbLine
 10
410.1390882416
 20
95.4958210079
 30
0.0
 11
410.1199535389
 21
95.5646065645
 31
0.0
  0
LINE
  5
3F4
330
1F
100
AcDbEntity
  8
0
  6
Continuous
 62
     7
370
    25
100
AcDbLine
 10
410.1601793849
 20
95.4276099141
 30
0.0
 11
410.1390882416
 21
95.4958210079
 31
0.0
  0
LINE
  5
3F5
330
1F
100
AcDbEntity
  8
0
  6
Continuous
 62
     7
370
    25
100
AcDbLine
 10
410.1832097665
 20
95.360028917
 30
0.0
 11
410.1601793849
 21
95.4276099141
 31
0.0
  0
LINE
  5
3F6
330
1F
100
AcDbEntity
  8
0
  6
Continuous
 62
     7
370
    25
100
AcDbLine
 10
410.2081606026
 20
95.2931331366
 30
0.0
 11
410.1832097665
 21
95.360028917
 31
0.0
  0
LINE
  5
3F7
330
1F
100
AcDbEntity
  8
0
  6
Continuous
 62
     7
370
    25
100
AcDbLine
 10
410.2350115429
 20
95.2269771342
 30
0.0
 11
410.2081606026
 21
95.2931331366
 31
0.0
  0
LINE
  5
3F8
330
1F
100
AcDbEntity
  8
0
  6
Continuous
 62
     7
370
    25
100
AcDbLine
 10
410.2637406873
 20
95.1616148675
 30
0.0
 11
410.2350115429
 21
95.2269771342
 31
0.0
  0
LINE
  5
3F9
330
1F
100
AcDbEntity
  8
0
  6
Continuous
 62
     7
370
    25
100
AcDbLine
 10
410.2943246039
 20
95.0970996469
 30
0.0
 11
410.2637406873
 21
95.1616148675
 31
0.0
  0
LINE
  5
3FA
330
1F
100
AcDbEntity
  8
0
  6
Continuous
 62
     7
370
    25
100
AcDbLine
 10
410.3267383481
 20
95.0334840919
 30
0.0
 11
410.2943246039
 21
95.0970996469
 31
0.0
  0
LINE
  5
3FB
330
1F
100
AcDbEntity
  8
0
  6
Continuous
 62
     7
370
    25
100
AcDbLine
 10
410.3609554828
 20
94.9708200884
 30
0.0
 11
410.3267383481
 21
95.0334840919
 31
0.0
  0
LINE
  5
3FC
330
1F
100
AcDbEntity
  8
0
  6
Continuous
 62
     7
370
    25
100
AcDbLine
 10
410.3969481
 20
94.9091587459
 30
0.0
 11
410.3609554828
 21
94.9708200884
 31
0.0
  0
LINE
  5
3FD
330
1F
100
AcDbEntity
  8
0
  6
Continuous
 62
     7
370
    25
100
AcDbLine
 10
410.4346868436
 20
94.8485503564
 30
0.0
 11
410.3969481
 21
94.9091587459
 31
0.0
  0
LINE
  5
3FE
330
1F
100
AcDbEntity
  8
0
  6
Continuous
 62
     7
370
    25
100
AcDbLine
 10
410.4741409332
 20
94.7890443528
 30
0.0
 11
410.4346868436
 21
94.8485503564
 31
0.0
  0
LINE
  5
3FF
330
1F
100
AcDbEntity
  8
0
  6
Continuous
 62
     7
370
    25
100
AcDbLine
 10
410.5152781897
 20
94.7306892693
 30
0.0
 11
410.4741409332
 21
94.7890443528
 31
0.0
  0
LINE
  5
400
330
1F
100
AcDbEntity
  8
0
  6
Continuous
 62
     7
370
    25
100
AcDbLine
 10
410.5580650608
 20
94.6735327009
 30
0.0
 11
410.5152781897
 21
94.7306892693
 31
0.0
  0
LINE
  5
401
330
1F
100
AcDbEntity
  8
0
  6
Continuous
 62
     7
370
    25
100
AcDbLine
 10
410.602466649
 20
94.6176212655
 30
0.0
 11
410.5580650608
 21
94.6735327009
 31
0.0
  0
LINE
  5
402
330
1F
100
AcDbEntity
  8
0
  6
Continuous
 62
     7
370
    25
100
AcDbLine
 10
410.6484467398
 20
94.5630005651
 30
0.0
 11
410.602466649
 21
94.6176212655
 31
0.0
  0
LINE
  5
403
330
1F
100
AcDbEntity
  8
0
  6
Continuous
 62
     7
370
    25
100
AcDbLine
 10
410.695967831
 20
94.5097151493
 30
0.0
 11
410.6484467398
 21
94.5630005651
 31
0.0
  0
LINE
  5
404
330
1F
100
AcDbEntity
  8
0
  6
Continuous
 62
     7
370
    25
100
AcDbLine
 10
410.7449911637
 20
94.4578084784
 30
0.0
 11
410.695967831
 21
94.5097151493
 31
0.0
  0
LINE
  5
405
330
1F
100
AcDbEntity
  8
0
  6
Continuous
 62
     7
370
    25
100
AcDbLine
 10
410.795476754
 20
94.4073228881
 30
0.0
 11
410.7449911637
 21
94.4578084784
 31
0.0
  0
LINE
  5
406
330
1F
100
AcDbEntity
  8
0
  6
Continuous
 62
     7
370
    25
100
AcDbLine
 10
410.847383425
 20
94.3582995553
 30
0.0
 11
410.795476754
 21
94.4073228881
 31
0.0
  0
LINE
  5
407
330
1F
100
AcDbEntity
  8
0
  6
Continuous
 62
     7
370
    25
100
AcDbLine
 10
410.9006688408
 20
94.3107784641
 30
0.0
 11
410.847383425
 21
94.3582995553
 31
0.0
  0
LINE
  5
408
330
1F
100
AcDbEntity
  8
0
  6
Continuous
 62
     7
370
    25
100
AcDbLine
 10
410.9552895411
 20
94.2647983734
 30
0.0
 11
410.9006688408
 21
94.3107784641
 31
0.0
  0
LINE
  5
409
330
1F
100
AcDbEntity
  8
0
  6
Continuous
 62
     7
370
    25
100
AcDbLine
 10
411.0112009766
 20
94.2203967852
 30
0.0
 11
410.9552895411
 21
94.2647983734
 31
0.0
  0
LINE
  5
40A
330
1F
100
AcDbEntity
  8
0
  6
Continuous
 62
     7
370
    25
100
AcDbLine
 10
411.0683575449
 20
94.1776099141
 30
0.0
 11
411.0112009766
 21
94.2203967852
 31
0.0
  0
LINE
  5
40B
330
1F
100
AcDbEntity
  8
0
  6
Continuous
 62
     7
370
    25
100
AcDbLine
 10
411.1267126285
 20
94.1364726576
 30
0.0
 11
411.0683575449
 21
94.1776099141
 31
0.0
  0
LINE
  5
40C
330
1F
100
AcDbEntity
  8
0
  6
Continuous
 62
     7
370
    25
100
AcDbLine
 10
411.186218632
 20
94.0970185679
 30
0.0
 11
411.1267126285
 21
94.1364726576
 31
0.0
  0
LINE
  5
40D
330
1F
100
AcDbEntity
  8
0
  6
Continuous
 62
     7
370
    25
100
AcDbLine
 10
411.2468270215
 20
94.0592798244
 30
0.0
 11
411.186218632
 21
94.0970185679
 31
0.0
  0
LINE
  5
40E
330
1F
100
AcDbEntity
  8
0
  6
Continuous
 62
     7
370
    25
100
AcDbLine
 10
411.308488364
 20
94.0232872072
 30
0.0
 11
411.2468270215
 21
94.0592798244
 31
0.0
  0
LINE
  5
40F
330
1F
100
AcDbEntity
  8
0
  6
Continuous
 62
     7
370
    25
100
AcDbLine
 10
411.3711523676
 20
93.9890700725
 30
0.0
 11
411.308488364
 21
94.0232872072
 31
0.0
  0
LINE
  5
410
330
1F
100
AcDbEntity
  8
0
  6
Continuous
 62
     7
370
    25
100
AcDbLine
 10
411.4347679225
 20
93.9566563283
 30
0.0
 11
411.3711523676
 21
93.9890700725
 31
0.0
  0
LINE
  5
411
330
1F
100
AcDbEntity
  8
0
  6
Continuous
 62
     7
370
    25
100
AcDbLine
 10
411.4992831431
 20
93.9260724116
 30
0.0
 11
411.4347679225
 21
93.9566563283
 31
0.0
  0
LINE
  5
412
330
1F
100
AcDbEntity
  8
0
  6
Continuous
 62
     7
370
    25
100
AcDbLine
 10
411.5646454098
 20
93.8973432672
 30
0.0
 11
411.4992831431
 21
93.9260724116
 31
0.0
  0
LINE
  5
413
330
1F
100
AcDbEntity
  8
0
  6
Continuous
 62
     7
370
    25
100
AcDbLine
 10
411.6308014123
 20
93.870492327
 30
0.0
 11
411.5646454098
 21
93.8973432672
 31
0.0
  0
LINE
  5
414
330
1F
100
AcDbEntity
  8
0
  6
Continuous
 62
     7
370
    25
100
AcDbLine
 10
411.6976971926
 20
93.8455414909
 30
0.0
 11
411.6308014123
 21
93.870492327
 31
0.0
  0
LINE
  5
415
330
1F
100
AcDbEntity
  8
0
  6
Continuous
 62
     7
370
    25
100
AcDbLine
 10
411.7652781897
 20
93.8225111093
 30
0.0
 11
411.6976971926
 21
93.8455414909
 31
0.0
  0
LINE
  5
416
330
1F
100
AcDbEntity
  8
0
  6
Continuous
 62
     7
370
    25
100
AcDbLine
 10
411.8334892835
 20
93.801419966
 30
0.0
 11
411.7652781897
 21
93.8225111093
 31
0.0
  0
LINE
  5
417
330
1F
100
AcDbEntity
  8
0
  6
Continuous
 62
     7
370
    25
100
AcDbLine
 10
411.9022748402
 20
93.7822852632
 30
0.0
 11
411.8334892835
 21
93.801419966
 31
0.0
  0
LINE
  5
418
330
1F
100
AcDbEntity
  8
0
  6
Continuous
 62
     7
370
    25
100
AcDbLine
 10
411.9715787571
 20
93.7651226076
 30
0.0
 11
411.9022748402
 21
93.7822852632
 31
0.0
  0
LINE
  5
419
330
1F
100
AcDbEntity
  8
0
  6
Continuous
 62
     7
370
    25
100
AcDbLine
 10
412.041344509
 20
93.7499459973
 30
0.0
 11
411.9715787571
 21
93.7651226076
 31
0.0
  0
LINE
  5
41A
330
1F
100
AcDbEntity
  8
0
  6
Continuous
 62
     7
370
    25
100
AcDbLine
 10
412.1115151941
 20
93.7367678104
 30
0.0
 11
412.041344509
 21
93.7499459973
 31
0.0
  0
LINE
  5
41B
330
1F
100
AcDbEntity
  8
0
  6
Continuous
 62
     7
370
    25
100
AcDbLine
 10
412.18203358
 20
93.7255987953
 30
0.0
 11
412.1115151941
 21
93.7367678104
 31
0.0
  0
LINE
  5
41C
330
1F
100
AcDbEntity
  8
0
  6
Continuous
 62
     7
370
    25
100
AcDbLine
 10
412.2528421509
 20
93.7164480616
 30
0.0
 11
412.18203358
 21
93.7255987953
 31
0.0
  0
LINE
  5
41D
330
1F
100
AcDbEntity
  8
0
  6
Continuous
 62
     7
370
    25
100
AcDbLine
 10
412.3238831544
 20
93.7093230728
 30
0.0
 11
412.2528421509
 21
93.7164480616
 31
0.0
  0
LINE
  5
41E
330
1F
100
AcDbEntity
  8
0
  6
Continuous
 62
     7
370
    25
100
AcDbLine
 10
412.3950986485
 20
93.7042296402
 30
0.0
 11
412.3238831544
 21
93.7093230728
 31
0.0
  0
LINE
  5
41F
330
1F
100
AcDbEntity
  8
0
  6
Continuous
 62
     7
370
    25
100
AcDbLine
 10
412.4664305487
 20
93.7011719179
 30
0.0
 11
412.3950986485
 21
93.7042296402
 31
0.0
  0
LINE
  5
420
330
1F
100
AcDbEntity
  8
0
  6
Continuous
 62
     7
370
    25
100
AcDbLine
 10
412.5378206756
 20
93.7001524
 30
0.0
 11
412.4664305487
 21
93.7011719179
 31
0.0
  0
LINE
  5
421
330
1F
100
AcDbEntity
  8
0
  6
Continuous
 62
     7
370
    25
100
AcDbLine
 10
418.67500635
 20
93.7001524
 30
0.0
 11
412.5378206756
 21
93.7001524
 31
0.0
  0
LINE
  5
422
330
1F
100
AcDbEntity
  8
0
  6
Continuous
 62
     7
370
    25
100
AcDbLine
 10
418.67500635
 20
22.6501524
 30
0.0
 11
418.67500635
 21
93.7001524
 31
0.0
  0
LINE
  5
423
330
1F
100
AcDbEntity
  8
0
  6
Continuous
 62
     7
370
    25
100
AcDbLine
 10
412.5378206756
 20
22.6501524
 30
0.0
 11
418.67500635
 21
22.6501524
 31
0.0
  0
LINE
  5
424
330
1F
100
AcDbEntity
  8
0
  6
Continuous
 62
     7
370
    25
100
AcDbLine
 10
412.4664305452
 20
22.6491328873
 30
0.0
 11
412.5378206756
 21
22.6501524
 31
0.0
  0
LINE
  5
425
330
1F
100
AcDbEntity
  8
0
  6
Continuous
 62
     7
370
    25
100
AcDbLine
 10
412.3950986414
 20
22.6460751701
 30
0.0
 11
412.4664305452
 21
22.6491328873
 31
0.0
  0
LINE
  5
426
330
1F
100
AcDbEntity
  8
0
  6
Continuous
 62
     7
370
    25
100
AcDbLine
 10
412.3238831436
 20
22.6409817423
 30
0.0
 11
412.3950986414
 21
22.6460751701
 31
0.0
  0
LINE
  5
427
330
1F
100
AcDbEntity
  8
0
  6
Continuous
 62
     7
370
    25
100
AcDbLine
 10
412.2528421362
 20
22.6338567582
 30
0.0
 11
412.3238831436
 21
22.6409817423
 31
0.0
  0
LINE
  5
428
330
1F
100
AcDbEntity
  8
0
  6
Continuous
 62
     7
370
    25
100
AcDbLine
 10
412.1820335612
 20
22.624706029
 30
0.0
 11
412.2528421362
 21
22.6338567582
 31
0.0
  0
LINE
  5
429
330
1F
100
AcDbEntity
  8
0
  6
Continuous
 62
     7
370
    25
100
AcDbLine
 10
412.1115151712
 20
22.6135370181
 30
0.0
 11
412.1820335612
 21
22.624706029
 31
0.0
  0
LINE
  5
42A
330
1F
100
AcDbEntity
  8
0
  6
Continuous
 62
     7
370
    25
100
AcDbLine
 10
412.0413444819
 20
22.6003588352
 30
0.0
 11
412.1115151712
 21
22.6135370181
 31
0.0
  0
LINE
  5
42B
330
1F
100
AcDbEntity
  8
0
  6
Continuous
 62
     7
370
    25
100
AcDbLine
 10
411.9715787257
 20
22.5851822286
 30
0.0
 11
412.0413444819
 21
22.6003588352
 31
0.0
  0
LINE
  5
42C
330
1F
100
AcDbEntity
  8
0
  6
Continuous
 62
     7
370
    25
100
AcDbLine
 10
411.9022748044
 20
22.5680195766
 30
0.0
 11
411.9715787257
 21
22.5851822286
 31
0.0
  0
LINE
  5
42D
330
1F
100
AcDbEntity
  8
0
  6
Continuous
 62
     7
370
    25
100
AcDbLine
 10
411.8334892433
 20
22.5488848773
 30
0.0
 11
411.9022748044
 21
22.5680195766
 31
0.0
  0
LINE
  5
42E
330
1F
100
AcDbEntity
  8
0
  6
Continuous
 62
     7
370
    25
100
AcDbLine
 10
411.7652781449
 20
22.5277937371
 30
0.0
 11
411.8334892433
 21
22.5488848773
 31
0.0
  0
LINE
  5
42F
330
1F
100
AcDbEntity
  8
0
  6
Continuous
 62
     7
370
    25
100
AcDbLine
 10
411.6976971432
 20
22.5047633584
 30
0.0
 11
411.7652781449
 21
22.5277937371
 31
0.0
  0
LINE
  5
430
330
1F
100
AcDbEntity
  8
0
  6
Continuous
 62
     7
370
    25
100
AcDbLine
 10
411.6308013583
 20
22.479812525
 30
0.0
 11
411.6976971432
 21
22.5047633584
 31
0.0
  0
LINE
  5
431
330
1F
100
AcDbEntity
  8
0
  6
Continuous
 62
     7
370
    25
100
AcDbLine
 10
411.5646453512
 20
22.4529615872
 30
0.0
 11
411.6308013583
 21
22.479812525
 31
0.0
  0
LINE
  5
432
330
1F
100
AcDbEntity
  8
0
  6
Continuous
 62
     7
370
    25
100
AcDbLine
 10
411.4992830798
 20
22.424232445
 30
0.0
 11
411.5646453512
 21
22.4529615872
 31
0.0
  0
LINE
  5
433
330
1F
100
AcDbEntity
  8
0
  6
Continuous
 62
     7
370
    25
100
AcDbLine
 10
411.4347678544
 20
22.3936485304
 30
0.0
 11
411.4992830798
 21
22.424232445
 31
0.0
  0
LINE
  5
434
330
1F
100
AcDbEntity
  8
0
  6
Continuous
 62
     7
370
    25
100
AcDbLine
 10
411.3711522947
 20
22.361234788
 30
0.0
 11
411.4347678544
 21
22.3936485304
 31
0.0
  0
LINE
  5
435
330
1F
100
AcDbEntity
  8
0
  6
Continuous
 62
     7
370
    25
100
AcDbLine
 10
411.3084882865
 20
22.3270176548
 30
0.0
 11
411.3711522947
 21
22.361234788
 31
0.0
  0
LINE
  5
436
330
1F
100
AcDbEntity
  8
0
  6
Continuous
 62
     7
370
    25
100
AcDbLine
 10
411.2468269392
 20
22.291025039
 30
0.0
 11
411.3084882865
 21
22.3270176548
 31
0.0
  0
LINE
  5
437
330
1F
100
AcDbEntity
  8
0
  6
Continuous
 62
     7
370
    25
100
AcDbLine
 10
411.186218545
 20
22.2532862966
 30
0.0
 11
411.2468269392
 21
22.291025039
 31
0.0
  0
LINE
  5
438
330
1F
100
AcDbEntity
  8
0
  6
Continuous
 62
     7
370
    25
100
AcDbLine
 10
411.1267125368
 20
22.2138322079
 30
0.0
 11
411.186218545
 21
22.2532862966
 31
0.0
  0
LINE
  5
439
330
1F
100
AcDbEntity
  8
0
  6
Continuous
 62
     7
370
    25
100
AcDbLine
 10
411.0683574485
 20
22.1726949521
 30
0.0
 11
411.1267125368
 21
22.2138322079
 31
0.0
  0
LINE
  5
43A
330
1F
100
AcDbEntity
  8
0
  6
Continuous
 62
     7
370
    25
100
AcDbLine
 10
411.0112008756
 20
22.1299080815
 30
0.0
 11
411.0683574485
 21
22.1726949521
 31
0.0
  0
LINE
  5
43B
330
1F
100
AcDbEntity
  8
0
  6
Continuous
 62
     7
370
    25
100
AcDbLine
 10
410.9552894356
 20
22.0855064935
 30
0.0
 11
411.0112008756
 21
22.1299080815
 31
0.0
  0
LINE
  5
43C
330
1F
100
AcDbEntity
  8
0
  6
Continuous
 62
     7
370
    25
100
AcDbLine
 10
410.9006687307
 20
22.0395264029
 30
0.0
 11
410.9552894356
 21
22.0855064935
 31
0.0
  0
LINE
  5
43D
330
1F
100
AcDbEntity
  8
0
  6
Continuous
 62
     7
370
    25
100
AcDbLine
 10
410.8473833104
 20
21.9920053116
 30
0.0
 11
410.9006687307
 21
22.0395264029
 31
0.0
  0
LINE
  5
43E
330
1F
100
AcDbEntity
  8
0
  6
Continuous
 62
     7
370
    25
100
AcDbLine
 10
410.7954766351
 20
21.9429819785
 30
0.0
 11
410.8473833104
 21
21.9920053116
 31
0.0
  0
LINE
  5
43F
330
1F
100
AcDbEntity
  8
0
  6
Continuous
 62
     7
370
    25
100
AcDbLine
 10
410.7449910405
 20
21.8924963877
 30
0.0
 11
410.7954766351
 21
21.9429819785
 31
0.0
  0
LINE
  5
440
330
1F
100
AcDbEntity
  8
0
  6
Continuous
 62
     7
370
    25
100
AcDbLine
 10
410.6959677035
 20
21.8405897161
 30
0.0
 11
410.7449910405
 21
21.8924963877
 31
0.0
  0
LINE
  5
441
330
1F
100
AcDbEntity
  8
0
  6
Continuous
 62
     7
370
    25
100
AcDbLine
 10
410.6484466082
 20
21.7873042993
 30
0.0
 11
410.6959677035
 21
21.8405897161
 31
0.0
  0
LINE
  5
442
330
1F
100
AcDbEntity
  8
0
  6
Continuous
 62
     7
370
    25
100
AcDbLine
 10
410.6024665135
 20
21.7326835979
 30
0.0
 11
410.6484466082
 21
21.7873042993
 31
0.0
  0
LINE
  5
443
330
1F
100
AcDbEntity
  8
0
  6
Continuous
 62
     7
370
    25
100
AcDbLine
 10
410.5580649214
 20
21.6767721613
 30
0.0
 11
410.6024665135
 21
21.7326835979
 31
0.0
  0
LINE
  5
444
330
1F
100
AcDbEntity
  8
0
  6
Continuous
 62
     7
370
    25
100
AcDbLine
 10
410.5152780464
 20
21.6196155915
 30
0.0
 11
410.5580649214
 21
21.6767721613
 31
0.0
  0
LINE
  5
445
330
1F
100
AcDbEntity
  8
0
  6
Continuous
 62
     7
370
    25
100
AcDbLine
 10
410.4741407863
 20
21.5612605064
 30
0.0
 11
410.5152780464
 21
21.6196155915
 31
0.0
  0
LINE
  5
446
330
1F
100
AcDbEntity
  8
0
  6
Continuous
 62
     7
370
    25
100
AcDbLine
 10
410.4346866931
 20
21.5017545011
 30
0.0
 11
410.4741407863
 21
21.5612605064
 31
0.0
  0
LINE
  5
447
330
1F
100
AcDbEntity
  8
0
  6
Continuous
 62
     7
370
    25
100
AcDbLine
 10
410.3969479461
 20
21.4411461097
 30
0.0
 11
410.4346866931
 21
21.5017545011
 31
0.0
  0
LINE
  5
448
330
1F
100
AcDbEntity
  8
0
  6
Continuous
 62
     7
370
    25
100
AcDbLine
 10
410.3609553257
 20
21.3794847652
 30
0.0
 11
410.3969479461
 21
21.4411461097
 31
0.0
  0
LINE
  5
449
330
1F
100
AcDbEntity
  8
0
  6
Continuous
 62
     7
370
    25
100
AcDbLine
 10
410.3267381878
 20
21.3168207594
 30
0.0
 11
410.3609553257
 21
21.3794847652
 31
0.0
  0
LINE
  5
44A
330
1F
100
AcDbEntity
  8
0
  6
Continuous
 62
     7
370
    25
100
AcDbLine
 10
410.2943244406
 20
21.2532052022
 30
0.0
 11
410.3267381878
 21
21.3168207594
 31
0.0
  0
LINE
  5
44B
330
1F
100
AcDbEntity
  8
0
  6
Continuous
 62
     7
370
    25
100
AcDbLine
 10
410.2637405211
 20
21.1886899792
 30
0.0
 11
410.2943244406
 21
21.2532052022
 31
0.0
  0
LINE
  5
44C
330
1F
100
AcDbEntity
  8
0
  6
Continuous
 62
     7
370
    25
100
AcDbLine
 10
410.2350113741
 20
21.1233277099
 30
0.0
 11
410.2637405211
 21
21.1886899792
 31
0.0
  0
LINE
  5
44D
330
1F
100
AcDbEntity
  8
0
  6
Continuous
 62
     7
370
    25
100
AcDbLine
 10
410.2081604313
 20
21.0571717048
 30
0.0
 11
410.2350113741
 21
21.1233277099
 31
0.0
  0
LINE
  5
44E
330
1F
100
AcDbEntity
  8
0
  6
Continuous
 62
     7
370
    25
100
AcDbLine
 10
410.1832095929
 20
20.9902759217
 30
0.0
 11
410.2081604313
 21
21.0571717048
 31
0.0
  0
LINE
  5
44F
330
1F
100
AcDbEntity
  8
0
  6
Continuous
 62
     7
370
    25
100
AcDbLine
 10
410.1601792091
 20
20.9226949218
 30
0.0
 11
410.1832095929
 21
20.9902759217
 31
0.0
  0
LINE
  5
450
330
1F
100
AcDbEntity
  8
0
  6
Continuous
 62
     7
370
    25
100
AcDbLine
 10
410.1390880638
 20
20.854483825
 30
0.0
 11
410.1601792091
 21
20.9226949218
 31
0.0
  0
LINE
  5
451
330
1F
100
AcDbEntity
  8
0
  6
Continuous
 62
     7
370
    25
100
AcDbLine
 10
410.1199533593
 20
20.7856982653
 30
0.0
 11
410.1390880638
 21
20.854483825
 31
0.0
  0
LINE
  5
452
330
1F
100
AcDbEntity
  8
0
  6
Continuous
 62
     7
370
    25
100
AcDbLine
 10
410.1027907021
 20
20.7163943453
 30
0.0
 11
410.1199533593
 21
20.7856982653
 31
0.0
  0
LINE
  5
453
330
1F
100
AcDbEntity
  8
0
  6
Continuous
 62
     7
370
    25
100
AcDbLine
 10
410.0876140903
 20
20.6466285902
 30
0.0
 11
410.1027907021
 21
20.7163943453
 31
0.0
  0
LINE
  5
454
330
1F
100
AcDbEntity
  8
0
  6
Continuous
 62
     7
370
    25
100
AcDbLine
 10
410.0744359021
 20
20.5764579019
 30
0.0
 11
410.0876140903
 21
20.6466285902
 31
0.0
  0
LINE
  5
455
330
1F
100
AcDbEntity
  8
0
  6
Continuous
 62
     7
370
    25
100
AcDbLine
 10
410.063266886
 20
20.5059395128
 30
0.0
 11
410.0744359021
 21
20.5764579019
 31
0.0
  0
LINE
  5
456
330
1F
100
AcDbEntity
  8
0
  6
Continuous
 62
     7
370
    25
100
AcDbLine
 10
410.0541161514
 20
20.4351309385
 30
0.0
 11
410.063266886
 21
20.5059395128
 31
0.0
  0
LINE
  5
457
330
1F
100
AcDbEntity
  8
0
  6
Continuous
 62
     7
370
    25
100
AcDbLine
 10
410.0469911619
 20
20.3640899316
 30
0.0
 11
410.0541161514
 21
20.4351309385
 31
0.0
  0
LINE
  5
458
330
1F
100
AcDbEntity
  8
0
  6
Continuous
 62
     7
370
    25
100
AcDbLine
 10
410.0418977288
 20
20.2928744342
 30
0.0
 11
410.0469911619
 21
20.3640899316
 31
0.0
  0
LINE
  5
459
330
1F
100
AcDbEntity
  8
0
  6
Continuous
 62
     7
370
    25
100
AcDbLine
 10
410.0388400062
 20
20.2215425306
 30
0.0
 11
410.0418977288
 21
20.2928744342
 31
0.0
  0
LINE
  5
45A
330
1F
100
AcDbEntity
  8
0
  6
Continuous
 62
     7
370
    25
100
AcDbLine
 10
410.0378204882
 20
20.1501524002
 30
0.0
 11
410.0388400062
 21
20.2215425306
 31
0.0
  0
LINE
  5
45B
330
1F
100
AcDbEntity
  8
0
  6
Continuous
 62
     7
370
    25
100
AcDbLine
 10
410.0388400062
 20
20.0787622699
 30
0.0
 11
410.0378204882
 21
20.1501524002
 31
0.0
  0
LINE
  5
45C
330
1F
100
AcDbEntity
  8
0
  6
Continuous
 62
     7
370
    25
100
AcDbLine
 10
410.0418977288
 20
20.0074303663
 30
0.0
 11
410.0388400062
 21
20.0787622699
 31
0.0
  0
LINE
  5
45D
330
1F
100
AcDbEntity
  8
0
  6
Continuous
 62
     7
370
    25
100
AcDbLine
 10
410.0469911619
 20
19.9362148689
 30
0.0
 11
410.0418977288
 21
20.0074303663
 31
0.0
  0
LINE
  5
45E
330
1F
100
AcDbEntity
  8
0
  6
Continuous
 62
     7
370
    25
100
AcDbLine
 10
410.0541161514
 20
19.865173862
 30
0.0
 11
410.0469911619
 21
19.9362148689
 31
0.0
  0
LINE
  5
45F
330
1F
100
AcDbEntity
  8
0
  6
Continuous
 62
     7
370
    25
100
AcDbLine
 10
410.0632668859
 20
19.7943652877
 30
0.0
 11
410.0541161514
 21
19.865173862
 31
0.0
  0
LINE
  5
460
330
1F
100
AcDbEntity
  8
0
  6
Continuous
 62
     7
370
    25
100
AcDbLine
 10
410.074435902
 20
19.7238468985
 30
0.0
 11
410.0632668859
 21
19.7943652877
 31
0.0
  0
LINE
  5
461
330
1F
100
AcDbEntity
  8
0
  6
Continuous
 62
     7
370
    25
100
AcDbLine
 10
410.0876140902
 20
19.6536762103
 30
0.0
 11
410.074435902
 21
19.7238468985
 31
0.0
  0
LINE
  5
462
330
1F
100
AcDbEntity
  8
0
  6
Continuous
 62
     7
370
    25
100
AcDbLine
 10
410.102790702
 20
19.5839104551
 30
0.0
 11
410.0876140902
 21
19.6536762103
 31
0.0
  0
LINE
  5
463
330
1F
100
AcDbEntity
  8
0
  6
Continuous
 62
     7
370
    25
100
AcDbLine
 10
410.1199533592
 20
19.5146065351
 30
0.0
 11
410.102790702
 21
19.5839104551
 31
0.0
  0
LINE
  5
464
330
1F
100
AcDbEntity
  8
0
  6
Continuous
 62
     7
370
    25
100
AcDbLine
 10
410.1390880637
 20
19.4458209755
 30
0.0
 11
410.1199533592
 21
19.5146065351
 31
0.0
  0
LINE
  5
465
330
1F
100
AcDbEntity
  8
0
  6
Continuous
 62
     7
370
    25
100
AcDbLine
 10
410.160179209
 20
19.3776098787
 30
0.0
 11
410.1390880637
 21
19.4458209755
 31
0.0
  0
LINE
  5
466
330
1F
100
AcDbEntity
  8
0
  6
Continuous
 62
     7
370
    25
100
AcDbLine
 10
410.1832095928
 20
19.3100288787
 30
0.0
 11
410.160179209
 21
19.3776098787
 31
0.0
  0
LINE
  5
467
330
1F
100
AcDbEntity
  8
0
  6
Continuous
 62
     7
370
    25
100
AcDbLine
 10
410.2081604311
 20
19.2431330956
 30
0.0
 11
410.1832095928
 21
19.3100288787
 31
0.0
  0
LINE
  5
468
330
1F
100
AcDbEntity
  8
0
  6
Continuous
 62
     7
370
    25
100
AcDbLine
 10
410.2350113739
 20
19.1769770905
 30
0.0
 11
410.2081604311
 21
19.2431330956
 31
0.0
  0
LINE
  5
469
330
1F
100
AcDbEntity
  8
0
  6
Continuous
 62
     7
370
    25
100
AcDbLine
 10
410.2637405209
 20
19.1116148213
 30
0.0
 11
410.2350113739
 21
19.1769770905
 31
0.0
  0
LINE
  5
46A
330
1F
100
AcDbEntity
  8
0
  6
Continuous
 62
     7
370
    25
100
AcDbLine
 10
410.2943244404
 20
19.0470995982
 30
0.0
 11
410.2637405209
 21
19.1116148213
 31
0.0
  0
LINE
  5
46B
330
1F
100
AcDbEntity
  8
0
  6
Continuous
 62
     7
370
    25
100
AcDbLine
 10
410.3267381876
 20
18.983484041
 30
0.0
 11
410.2943244404
 21
19.0470995982
 31
0.0
  0
LINE
  5
46C
330
1F
100
AcDbEntity
  8
0
  6
Continuous
 62
     7
370
    25
100
AcDbLine
 10
410.3609553254
 20
18.9208200352
 30
0.0
 11
410.3267381876
 21
18.983484041
 31
0.0
  0
LINE
  5
46D
330
1F
100
AcDbEntity
  8
0
  6
Continuous
 62
     7
370
    25
100
AcDbLine
 10
410.3969479459
 20
18.8591586907
 30
0.0
 11
410.3609553254
 21
18.9208200352
 31
0.0
  0
LINE
  5
46E
330
1F
100
AcDbEntity
  8
0
  6
Continuous
 62
     7
370
    25
100
AcDbLine
 10
410.4346866928
 20
18.7985502993
 30
0.0
 11
410.3969479459
 21
18.8591586907
 31
0.0
  0
LINE
  5
46F
330
1F
100
AcDbEntity
  8
0
  6
Continuous
 62
     7
370
    25
100
AcDbLine
 10
410.474140786
 20
18.739044294
 30
0.0
 11
410.4346866928
 21
18.7985502993
 31
0.0
  0
LINE
  5
470
330
1F
100
AcDbEntity
  8
0
  6
Continuous
 62
     7
370
    25
100
AcDbLine
 10
410.5152780461
 20
18.6806892089
 30
0.0
 11
410.474140786
 21
18.739044294
 31
0.0
  0
LINE
  5
471
330
1F
100
AcDbEntity
  8
0
  6
Continuous
 62
     7
370
    25
100
AcDbLine
 10
410.5580649211
 20
18.6235326391
 30
0.0
 11
410.5152780461
 21
18.6806892089
 31
0.0
  0
LINE
  5
472
330
1F
100
AcDbEntity
  8
0
  6
Continuous
 62
     7
370
    25
100
AcDbLine
 10
410.6024665132
 20
18.5676212024
 30
0.0
 11
410.5580649211
 21
18.6235326391
 31
0.0
  0
LINE
  5
473
330
1F
100
AcDbEntity
  8
0
  6
Continuous
 62
     7
370
    25
100
AcDbLine
 10
410.6484466079
 20
18.513000501
 30
0.0
 11
410.6024665132
 21
18.5676212024
 31
0.0
  0
LINE
  5
474
330
1F
100
AcDbEntity
  8
0
  6
Continuous
 62
     7
370
    25
100
AcDbLine
 10
410.6959677032
 20
18.4597150843
 30
0.0
 11
410.6484466079
 21
18.513000501
 31
0.0
  0
LINE
  5
475
330
1F
100
AcDbEntity
  8
0
  6
Continuous
 62
     7
370
    25
100
AcDbLine
 10
410.7449910402
 20
18.4078084126
 30
0.0
 11
410.6959677032
 21
18.4597150843
 31
0.0
  0
LINE
  5
476
330
1F
100
AcDbEntity
  8
0
  6
Continuous
 62
     7
370
    25
100
AcDbLine
 10
410.7954766347
 20
18.3573228219
 30
0.0
 11
410.7449910402
 21
18.4078084126
 31
0.0
  0
LINE
  5
477
330
1F
100
AcDbEntity
  8
0
  6
Continuous
 62
     7
370
    25
100
AcDbLine
 10
410.8473833101
 20
18.3082994887
 30
0.0
 11
410.7954766347
 21
18.3573228219
 31
0.0
  0
LINE
  5
478
330
1F
100
AcDbEntity
  8
0
  6
Continuous
 62
     7
370
    25
100
AcDbLine
 10
410.9006687303
 20
18.2607783974
 30
0.0
 11
410.8473833101
 21
18.3082994887
 31
0.0
  0
LINE
  5
479
330
1F
100
AcDbEntity
  8
0
  6
Continuous
 62
     7
370
    25
100
AcDbLine
 10
410.9552894352
 20
18.2147983068
 30
0.0
 11
410.9006687303
 21
18.2607783974
 31
0.0
  0
LINE
  5
47A
330
1F
100
AcDbEntity
  8
0
  6
Continuous
 62
     7
370
    25
100
AcDbLine
 10
411.0112008752
 20
18.1703967188
 30
0.0
 11
410.9552894352
 21
18.2147983068
 31
0.0
  0
LINE
  5
47B
330
1F
100
AcDbEntity
  8
0
  6
Continuous
 62
     7
370
    25
100
AcDbLine
 10
411.0683574482
 20
18.1276098482
 30
0.0
 11
411.0112008752
 21
18.1703967188
 31
0.0
  0
LINE
  5
47C
330
1F
100
AcDbEntity
  8
0
  6
Continuous
 62
     7
370
    25
100
AcDbLine
 10
411.1267125364
 20
18.0864725924
 30
0.0
 11
411.0683574482
 21
18.1276098482
 31
0.0
  0
LINE
  5
47D
330
1F
100
AcDbEntity
  8
0
  6
Continuous
 62
     7
370
    25
100
AcDbLine
 10
411.1862185446
 20
18.0470185036
 30
0.0
 11
411.1267125364
 21
18.0864725924
 31
0.0
  0
LINE
  5
47E
330
1F
100
AcDbEntity
  8
0
  6
Continuous
 62
     7
370
    25
100
AcDbLine
 10
411.2468269388
 20
18.0092797612
 30
0.0
 11
411.1862185446
 21
18.0470185036
 31
0.0
  0
LINE
  5
47F
330
1F
100
AcDbEntity
  8
0
  6
Continuous
 62
     7
370
    25
100
AcDbLine
 10
411.308488286
 20
17.9732871454
 30
0.0
 11
411.2468269388
 21
18.0092797612
 31
0.0
  0
LINE
  5
480
330
1F
100
AcDbEntity
  8
0
  6
Continuous
 62
     7
370
    25
100
AcDbLine
 10
411.3711522943
 20
17.9390700123
 30
0.0
 11
411.308488286
 21
17.9732871454
 31
0.0
  0
LINE
  5
481
330
1F
100
AcDbEntity
  8
0
  6
Continuous
 62
     7
370
    25
100
AcDbLine
 10
411.434767854
 20
17.9066562698
 30
0.0
 11
411.3711522943
 21
17.9390700123
 31
0.0
  0
LINE
  5
482
330
1F
100
AcDbEntity
  8
0
  6
Continuous
 62
     7
370
    25
100
AcDbLine
 10
411.4992830793
 20
17.8760723552
 30
0.0
 11
411.434767854
 21
17.9066562698
 31
0.0
  0
LINE
  5
483
330
1F
100
AcDbEntity
  8
0
  6
Continuous
 62
     7
370
    25
100
AcDbLine
 10
411.5646453507
 20
17.847343213
 30
0.0
 11
411.4992830793
 21
17.8760723552
 31
0.0
  0
LINE
  5
484
330
1F
100
AcDbEntity
  8
0
  6
Continuous
 62
     7
370
    25
100
AcDbLine
 10
411.6308013578
 20
17.8204922752
 30
0.0
 11
411.5646453507
 21
17.847343213
 31
0.0
  0
LINE
  5
485
330
1F
100
AcDbEntity
  8
0
  6
Continuous
 62
     7
370
    25
100
AcDbLine
 10
411.6976971428
 20
17.7955414418
 30
0.0
 11
411.6308013578
 21
17.8204922752
 31
0.0
  0
LINE
  5
486
330
1F
100
AcDbEntity
  8
0
  6
Continuous
 62
     7
370
    25
100
AcDbLine
 10
411.7652781445
 20
17.7725110631
 30
0.0
 11
411.6976971428
 21
17.7955414418
 31
0.0
  0
LINE
  5
487
330
1F
100
AcDbEntity
  8
0
  6
Continuous
 62
     7
370
    25
100
AcDbLine
 10
411.8334892428
 20
17.7514199229
 30
0.0
 11
411.7652781445
 21
17.7725110631
 31
0.0
  0
LINE
  5
488
330
1F
100
AcDbEntity
  8
0
  6
Continuous
 62
     7
370
    25
100
AcDbLine
 10
411.9022748039
 20
17.7322852235
 30
0.0
 11
411.8334892428
 21
17.7514199229
 31
0.0
  0
LINE
  5
489
330
1F
100
AcDbEntity
  8
0
  6
Continuous
 62
     7
370
    25
100
AcDbLine
 10
411.9715787252
 20
17.7151225715
 30
0.0
 11
411.9022748039
 21
17.7322852235
 31
0.0
  0
LINE
  5
48A
330
1F
100
AcDbEntity
  8
0
  6
Continuous
 62
     7
370
    25
100
AcDbLine
 10
412.0413444815
 20
17.6999459649
 30
0.0
 11
411.9715787252
 21
17.7151225715
 31
0.0
  0
LINE
  5
48B
330
1F
100
AcDbEntity
  8
0
  6
Continuous
 62
     7
370
    25
100
AcDbLine
 10
412.1115151707
 20
17.686767782
 30
0.0
 11
412.0413444815
 21
17.6999459649
 31
0.0
  0
LINE
  5
48C
330
1F
100
AcDbEntity
  8
0
  6
Continuous
 62
     7
370
    25
100
AcDbLine
 10
412.1820335607
 20
17.6755987711
 30
0.0
 11
412.1115151707
 21
17.686767782
 31
0.0
  0
LINE
  5
48D
330
1F
100
AcDbEntity
  8
0
  6
Continuous
 62
     7
370
    25
100
AcDbLine
 10
412.2528421357
 20
17.6664480419
 30
0.0
 11
412.1820335607
 21
17.6755987711
 31
0.0
  0
LINE
  5
48E
330
1F
100
AcDbEntity
  8
0
  6
Continuous
 62
     7
370
    25
100
AcDbLine
 10
412.3238831431
 20
17.6593230577
 30
0.0
 11
412.2528421357
 21
17.6664480419
 31
0.0
  0
LINE
  5
48F
330
1F
100
AcDbEntity
  8
0
  6
Continuous
 62
     7
370
    25
100
AcDbLine
 10
412.3950986409
 20
17.6542296299
 30
0.0
 11
412.3238831431
 21
17.6593230577
 31
0.0
  0
LINE
  5
490
330
1F
100
AcDbEntity
  8
0
  6
Continuous
 62
     7
370
    25
100
AcDbLine
 10
412.4664305447
 20
17.6511719127
 30
0.0
 11
412.3950986409
 21
17.6542296299
 31
0.0
  0
LINE
  5
491
330
1F
100
AcDbEntity
  8
0
  6
Continuous
 62
     7
370
    25
100
AcDbLine
 10
412.5378206752
 20
17.6501524
 30
0.0
 11
412.4664305447
 21
17.6511719127
 31
0.0
  0
LINE
  5
492
330
1F
100
AcDbEntity
  8
0
  6
Continuous
 62
     7
370
    25
100
AcDbLine
 10
418.67500635
 20
17.6501524
 30
0.0
 11
412.5378206752
 21
17.6501524
 31
0.0
  0
LINE
  5
493
330
1F
100
AcDbEntity
  8
0
  6
Continuous
 62
     7
370
    25
100
AcDbLine
 10
418.67500635
 20
0.0
 30
0.0
 11
418.67500635
 21
17.6501524
 31
0.0
  0
LINE
  5
494
330
1F
100
AcDbEntity
  8
0
  6
Continuous
 62
     7
370
    25
100
AcDbLine
 10
0.0
 20
7.1963340097
 30
0.0
 11
418.67500635
 21
7.1963340097
 31
0.0
  0
LINE
  5
495
330
1F
100
AcDbEntity
  8
0
  6
Continuous
 62
     7
370
    25
100
AcDbLine
 10
0.0
 20
17.7001524
 30
0.0
 11
0.0
 21
0.0
 31
0.0
  0
LINE
  5
496
330
1F
100
AcDbEntity
  8
0
  6
Continuous
 62
     7
370
    25
100
AcDbLine
 10
6.2459740919
 20
17.7001524
 30
0.0
 11
0.0
 21
17.7001524
 31
0.0
  0
LINE
  5
497
330
1F
100
AcDbEntity
  8
0
  6
Continuous
 62
     7
370
    25
100
AcDbLine
 10
6.3173642224
 20
17.7011719127
 30
0.0
 11
6.2459740919
 21
17.7001524
 31
0.0
  0
LINE
  5
498
330
1F
100
AcDbEntity
  8
0
  6
Continuous
 62
     7
370
    25
100
AcDbLine
 10
6.3886961262
 20
17.7042296299
 30
0.0
 11
6.3173642224
 21
17.7011719127
 31
0.0
  0
LINE
  5
499
330
1F
100
AcDbEntity
  8
0
  6
Continuous
 62
     7
370
    25
100
AcDbLine
 10
6.459911624
 20
17.7093230577
 30
0.0
 11
6.3886961262
 21
17.7042296299
 31
0.0
  0
LINE
  5
49A
330
1F
100
AcDbEntity
  8
0
  6
Continuous
 62
     7
370
    25
100
AcDbLine
 10
6.5309526314
 20
17.7164480418
 30
0.0
 11
6.459911624
 21
17.7093230577
 31
0.0
  0
LINE
  5
49B
330
1F
100
AcDbEntity
  8
0
  6
Continuous
 62
     7
370
    25
100
AcDbLine
 10
6.6017612064
 20
17.725598771
 30
0.0
 11
6.5309526314
 21
17.7164480418
 31
0.0
  0
LINE
  5
49C
330
1F
100
AcDbEntity
  8
0
  6
Continuous
 62
     7
370
    25
100
AcDbLine
 10
6.6722795964
 20
17.7367677819
 30
0.0
 11
6.6017612064
 21
17.725598771
 31
0.0
  0
LINE
  5
49D
330
1F
100
AcDbEntity
  8
0
  6
Continuous
 62
     7
370
    25
100
AcDbLine
 10
6.7424502856
 20
17.7499459648
 30
0.0
 11
6.6722795964
 21
17.7367677819
 31
0.0
  0
LINE
  5
49E
330
1F
100
AcDbEntity
  8
0
  6
Continuous
 62
     7
370
    25
100
AcDbLine
 10
6.8122160419
 20
17.7651225714
 30
0.0
 11
6.7424502856
 21
17.7499459648
 31
0.0
  0
LINE
  5
49F
330
1F
100
AcDbEntity
  8
0
  6
Continuous
 62
     7
370
    25
100
AcDbLine
 10
6.8815199632
 20
17.7822852234
 30
0.0
 11
6.8122160419
 21
17.7651225714
 31
0.0
  0
LINE
  5
4A0
330
1F
100
AcDbEntity
  8
0
  6
Continuous
 62
     7
370
    25
100
AcDbLine
 10
6.9503055243
 20
17.8014199227
 30
0.0
 11
6.8815199632
 21
17.7822852234
 31
0.0
  0
LINE
  5
4A1
330
1F
100
AcDbEntity
  8
0
  6
Continuous
 62
     7
370
    25
100
AcDbLine
 10
7.0185166227
 20
17.8225110629
 30
0.0
 11
6.9503055243
 21
17.8014199227
 31
0.0
  0
LINE
  5
4A2
330
1F
100
AcDbEntity
  8
0
  6
Continuous
 62
     7
370
    25
100
AcDbLine
 10
7.0860976244
 20
17.8455414416
 30
0.0
 11
7.0185166227
 21
17.8225110629
 31
0.0
  0
LINE
  5
4A3
330
1F
100
AcDbEntity
  8
0
  6
Continuous
 62
     7
370
    25
100
AcDbLine
 10
7.1529934093
 20
17.870492275
 30
0.0
 11
7.0860976244
 21
17.8455414416
 31
0.0
  0
LINE
  5
4A4
330
1F
100
AcDbEntity
  8
0
  6
Continuous
 62
     7
370
    25
100
AcDbLine
 10
7.2191494164
 20
17.8973432128
 30
0.0
 11
7.1529934093
 21
17.870492275
 31
0.0
  0
LINE
  5
4A5
330
1F
100
AcDbEntity
  8
0
  6
Continuous
 62
     7
370
    25
100
AcDbLine
 10
7.2845116878
 20
17.926072355
 30
0.0
 11
7.2191494164
 21
17.8973432128
 31
0.0
  0
LINE
  5
4A6
330
1F
100
AcDbEntity
  8
0
  6
Continuous
 62
     7
370
    25
100
AcDbLine
 10
7.3490269132
 20
17.9566562696
 30
0.0
 11
7.2845116878
 21
17.926072355
 31
0.0
  0
LINE
  5
4A7
330
1F
100
AcDbEntity
  8
0
  6
Continuous
 62
     7
370
    25
100
AcDbLine
 10
7.4126424728
 20
17.989070012
 30
0.0
 11
7.3490269132
 21
17.9566562696
 31
0.0
  0
LINE
  5
4A8
330
1F
100
AcDbEntity
  8
0
  6
Continuous
 62
     7
370
    25
100
AcDbLine
 10
7.4753064811
 20
18.0232871452
 30
0.0
 11
7.4126424728
 21
17.989070012
 31
0.0
  0
LINE
  5
4A9
330
1F
100
AcDbEntity
  8
0
  6
Continuous
 62
     7
370
    25
100
AcDbLine
 10
7.5369678283
 20
18.059279761
 30
0.0
 11
7.4753064811
 21
18.0232871452
 31
0.0
  0
LINE
  5
4AA
330
1F
100
AcDbEntity
  8
0
  6
Continuous
 62
     7
370
    25
100
AcDbLine
 10
7.5975762226
 20
18.0970185034
 30
0.0
 11
7.5369678283
 21
18.059279761
 31
0.0
  0
LINE
  5
4AB
330
1F
100
AcDbEntity
  8
0
  6
Continuous
 62
     7
370
    25
100
AcDbLine
 10
7.6570822308
 20
18.1364725921
 30
0.0
 11
7.5975762226
 21
18.0970185034
 31
0.0
  0
LINE
  5
4AC
330
1F
100
AcDbEntity
  8
0
  6
Continuous
 62
     7
370
    25
100
AcDbLine
 10
7.7154373191
 20
18.1776098479
 30
0.0
 11
7.6570822308
 21
18.1364725921
 31
0.0
  0
LINE
  5
4AD
330
1F
100
AcDbEntity
  8
0
  6
Continuous
 62
     7
370
    25
100
AcDbLine
 10
7.772593892
 20
18.2203967185
 30
0.0
 11
7.7154373191
 21
18.1776098479
 31
0.0
  0
LINE
  5
4AE
330
1F
100
AcDbEntity
  8
0
  6
Continuous
 62
     7
370
    25
100
AcDbLine
 10
7.828505332
 20
18.2647983065
 30
0.0
 11
7.772593892
 21
18.2203967185
 31
0.0
  0
LINE
  5
4AF
330
1F
100
AcDbEntity
  8
0
  6
Continuous
 62
     7
370
    25
100
AcDbLine
 10
7.8831260369
 20
18.3107783971
 30
0.0
 11
7.828505332
 21
18.2647983065
 31
0.0
  0
LINE
  5
4B0
330
1F
100
AcDbEntity
  8
0
  6
Continuous
 62
     7
370
    25
100
AcDbLine
 10
7.9364114572
 20
18.3582994884
 30
0.0
 11
7.8831260369
 21
18.3107783971
 31
0.0
  0
LINE
  5
4B1
330
1F
100
AcDbEntity
  8
0
  6
Continuous
 62
     7
370
    25
100
AcDbLine
 10
7.9883181325
 20
18.4073228215
 30
0.0
 11
7.9364114572
 21
18.3582994884
 31
0.0
  0
LINE
  5
4B2
330
1F
100
AcDbEntity
  8
0
  6
Continuous
 62
     7
370
    25
100
AcDbLine
 10
8.0388037271
 20
18.4578084123
 30
0.0
 11
7.9883181325
 21
18.4073228215
 31
0.0
  0
LINE
  5
4B3
330
1F
100
AcDbEntity
  8
0
  6
Continuous
 62
     7
370
    25
100
AcDbLine
 10
8.0878270641
 20
18.5097150839
 30
0.0
 11
8.0388037271
 21
18.4578084123
 31
0.0
  0
LINE
  5
4B4
330
1F
100
AcDbEntity
  8
0
  6
Continuous
 62
     7
370
    25
100
AcDbLine
 10
8.1353481594
 20
18.5630005007
 30
0.0
 11
8.0878270641
 21
18.5097150839
 31
0.0
  0
LINE
  5
4B5
330
1F
100
AcDbEntity
  8
0
  6
Continuous
 62
     7
370
    25
100
AcDbLine
 10
8.1813282541
 20
18.6176212021
 30
0.0
 11
8.1353481594
 21
18.5630005007
 31
0.0
  0
LINE
  5
4B6
330
1F
100
AcDbEntity
  8
0
  6
Continuous
 62
     7
370
    25
100
AcDbLine
 10
8.2257298462
 20
18.6735326387
 30
0.0
 11
8.1813282541
 21
18.6176212021
 31
0.0
  0
LINE
  5
4B7
330
1F
100
AcDbEntity
  8
0
  6
Continuous
 62
     7
370
    25
100
AcDbLine
 10
8.2685167212
 20
18.7306892085
 30
0.0
 11
8.2257298462
 21
18.6735326387
 31
0.0
  0
LINE
  5
4B8
330
1F
100
AcDbEntity
  8
0
  6
Continuous
 62
     7
370
    25
100
AcDbLine
 10
8.3096539813
 20
18.7890442936
 30
0.0
 11
8.2685167212
 21
18.7306892085
 31
0.0
  0
LINE
  5
4B9
330
1F
100
AcDbEntity
  8
0
  6
Continuous
 62
     7
370
    25
100
AcDbLine
 10
8.3491080745
 20
18.8485502989
 30
0.0
 11
8.3096539813
 21
18.7890442936
 31
0.0
  0
LINE
  5
4BA
330
1F
100
AcDbEntity
  8
0
  6
Continuous
 62
     7
370
    25
100
AcDbLine
 10
8.3868468215
 20
18.9091586903
 30
0.0
 11
8.3491080745
 21
18.8485502989
 31
0.0
  0
LINE
  5
4BB
330
1F
100
AcDbEntity
  8
0
  6
Continuous
 62
     7
370
    25
100
AcDbLine
 10
8.4228394419
 20
18.9708200348
 30
0.0
 11
8.3868468215
 21
18.9091586903
 31
0.0
  0
LINE
  5
4BC
330
1F
100
AcDbEntity
  8
0
  6
Continuous
 62
     7
370
    25
100
AcDbLine
 10
8.4570565798
 20
19.0334840406
 30
0.0
 11
8.4228394419
 21
18.9708200348
 31
0.0
  0
LINE
  5
4BD
330
1F
100
AcDbEntity
  8
0
  6
Continuous
 62
     7
370
    25
100
AcDbLine
 10
8.489470327
 20
19.0970995978
 30
0.0
 11
8.4570565798
 21
19.0334840406
 31
0.0
  0
LINE
  5
4BE
330
1F
100
AcDbEntity
  8
0
  6
Continuous
 62
     7
370
    25
100
AcDbLine
 10
8.5200542465
 20
19.1616148208
 30
0.0
 11
8.489470327
 21
19.0970995978
 31
0.0
  0
LINE
  5
4BF
330
1F
100
AcDbEntity
  8
0
  6
Continuous
 62
     7
370
    25
100
AcDbLine
 10
8.5487833935
 20
19.2269770901
 30
0.0
 11
8.5200542465
 21
19.1616148208
 31
0.0
  0
LINE
  5
4C0
330
1F
100
AcDbEntity
  8
0
  6
Continuous
 62
     7
370
    25
100
AcDbLine
 10
8.5756343363
 20
19.2931330952
 30
0.0
 11
8.5487833935
 21
19.2269770901
 31
0.0
  0
LINE
  5
4C1
330
1F
100
AcDbEntity
  8
0
  6
Continuous
 62
     7
370
    25
100
AcDbLine
 10
8.6005851747
 20
19.3600288783
 30
0.0
 11
8.5756343363
 21
19.2931330952
 31
0.0
  0
LINE
  5
4C2
330
1F
100
AcDbEntity
  8
0
  6
Continuous
 62
     7
370
    25
100
AcDbLine
 10
8.6236155585
 20
19.4276098782
 30
0.0
 11
8.6005851747
 21
19.3600288783
 31
0.0
  0
LINE
  5
4C3
330
1F
100
AcDbEntity
  8
0
  6
Continuous
 62
     7
370
    25
100
AcDbLine
 10
8.6447067038
 20
19.495820975
 30
0.0
 11
8.6236155585
 21
19.4276098782
 31
0.0
  0
LINE
  5
4C4
330
1F
100
AcDbEntity
  8
0
  6
Continuous
 62
     7
370
    25
100
AcDbLine
 10
8.6638414083
 20
19.5646065347
 30
0.0
 11
8.6447067038
 21
19.495820975
 31
0.0
  0
LINE
  5
4C5
330
1F
100
AcDbEntity
  8
0
  6
Continuous
 62
     7
370
    25
100
AcDbLine
 10
8.6810040655
 20
19.6339104547
 30
0.0
 11
8.6638414083
 21
19.5646065347
 31
0.0
  0
LINE
  5
4C6
330
1F
100
AcDbEntity
  8
0
  6
Continuous
 62
     7
370
    25
100
AcDbLine
 10
8.6961806773
 20
19.7036762098
 30
0.0
 11
8.6810040655
 21
19.6339104547
 31
0.0
  0
LINE
  5
4C7
330
1F
100
AcDbEntity
  8
0
  6
Continuous
 62
     7
370
    25
100
AcDbLine
 10
8.7093588655
 20
19.7738468981
 30
0.0
 11
8.6961806773
 21
19.7036762098
 31
0.0
  0
LINE
  5
4C8
330
1F
100
AcDbEntity
  8
0
  6
Continuous
 62
     7
370
    25
100
AcDbLine
 10
8.7205278816
 20
19.8443652872
 30
0.0
 11
8.7093588655
 21
19.7738468981
 31
0.0
  0
LINE
  5
4C9
330
1F
100
AcDbEntity
  8
0
  6
Continuous
 62
     7
370
    25
100
AcDbLine
 10
8.7296786162
 20
19.9151738615
 30
0.0
 11
8.7205278816
 21
19.8443652872
 31
0.0
  0
LINE
  5
4CA
330
1F
100
AcDbEntity
  8
0
  6
Continuous
 62
     7
370
    25
100
AcDbLine
 10
8.7368036056
 20
19.9862148684
 30
0.0
 11
8.7296786162
 21
19.9151738615
 31
0.0
  0
LINE
  5
4CB
330
1F
100
AcDbEntity
  8
0
  6
Continuous
 62
     7
370
    25
100
AcDbLine
 10
8.7418970388
 20
20.0574303658
 30
0.0
 11
8.7368036056
 21
19.9862148684
 31
0.0
  0
LINE
  5
4CC
330
1F
100
AcDbEntity
  8
0
  6
Continuous
 62
     7
370
    25
100
AcDbLine
 10
8.7449547613
 20
20.1287622694
 30
0.0
 11
8.7418970388
 21
20.0574303658
 31
0.0
  0
LINE
  5
4CD
330
1F
100
AcDbEntity
  8
0
  6
Continuous
 62
     7
370
    25
100
AcDbLine
 10
8.7459742794
 20
20.2001523998
 30
0.0
 11
8.7449547613
 21
20.1287622694
 31
0.0
  0
LINE
  5
4CE
330
1F
100
AcDbEntity
  8
0
  6
Continuous
 62
     7
370
    25
100
AcDbLine
 10
8.7449547614
 20
20.2715425301
 30
0.0
 11
8.7459742794
 21
20.2001523998
 31
0.0
  0
LINE
  5
4CF
330
1F
100
AcDbEntity
  8
0
  6
Continuous
 62
     7
370
    25
100
AcDbLine
 10
8.7418970388
 20
20.3428744337
 30
0.0
 11
8.7449547614
 21
20.2715425301
 31
0.0
  0
LINE
  5
4D0
330
1F
100
AcDbEntity
  8
0
  6
Continuous
 62
     7
370
    25
100
AcDbLine
 10
8.7368036057
 20
20.4140899311
 30
0.0
 11
8.7418970388
 21
20.3428744337
 31
0.0
  0
LINE
  5
4D1
330
1F
100
AcDbEntity
  8
0
  6
Continuous
 62
     7
370
    25
100
AcDbLine
 10
8.7296786162
 20
20.485130938
 30
0.0
 11
8.7368036057
 21
20.4140899311
 31
0.0
  0
LINE
  5
4D2
330
1F
100
AcDbEntity
  8
0
  6
Continuous
 62
     7
370
    25
100
AcDbLine
 10
8.7205278817
 20
20.5559395123
 30
0.0
 11
8.7296786162
 21
20.485130938
 31
0.0
  0
LINE
  5
4D3
330
1F
100
AcDbEntity
  8
0
  6
Continuous
 62
     7
370
    25
100
AcDbLine
 10
8.7093588656
 20
20.6264579015
 30
0.0
 11
8.7205278817
 21
20.5559395123
 31
0.0
  0
LINE
  5
4D4
330
1F
100
AcDbEntity
  8
0
  6
Continuous
 62
     7
370
    25
100
AcDbLine
 10
8.6961806774
 20
20.6966285897
 30
0.0
 11
8.7093588656
 21
20.6264579015
 31
0.0
  0
LINE
  5
4D5
330
1F
100
AcDbEntity
  8
0
  6
Continuous
 62
     7
370
    25
100
AcDbLine
 10
8.6810040656
 20
20.7663943449
 30
0.0
 11
8.6961806774
 21
20.6966285897
 31
0.0
  0
LINE
  5
4D6
330
1F
100
AcDbEntity
  8
0
  6
Continuous
 62
     7
370
    25
100
AcDbLine
 10
8.6638414084
 20
20.8356982649
 30
0.0
 11
8.6810040656
 21
20.7663943449
 31
0.0
  0
LINE
  5
4D7
330
1F
100
AcDbEntity
  8
0
  6
Continuous
 62
     7
370
    25
100
AcDbLine
 10
8.6447067039
 20
20.9044838245
 30
0.0
 11
8.6638414084
 21
20.8356982649
 31
0.0
  0
LINE
  5
4D8
330
1F
100
AcDbEntity
  8
0
  6
Continuous
 62
     7
370
    25
100
AcDbLine
 10
8.6236155586
 20
20.9726949213
 30
0.0
 11
8.6447067039
 21
20.9044838245
 31
0.0
  0
LINE
  5
4D9
330
1F
100
AcDbEntity
  8
0
  6
Continuous
 62
     7
370
    25
100
AcDbLine
 10
8.6005851748
 20
21.0402759213
 30
0.0
 11
8.6236155586
 21
20.9726949213
 31
0.0
  0
LINE
  5
4DA
330
1F
100
AcDbEntity
  8
0
  6
Continuous
 62
     7
370
    25
100
AcDbLine
 10
8.5756343364
 20
21.1071717044
 30
0.0
 11
8.6005851748
 21
21.0402759213
 31
0.0
  0
LINE
  5
4DB
330
1F
100
AcDbEntity
  8
0
  6
Continuous
 62
     7
370
    25
100
AcDbLine
 10
8.5487833937
 20
21.1733277095
 30
0.0
 11
8.5756343364
 21
21.1071717044
 31
0.0
  0
LINE
  5
4DC
330
1F
100
AcDbEntity
  8
0
  6
Continuous
 62
     7
370
    25
100
AcDbLine
 10
8.5200542467
 20
21.2386899787
 30
0.0
 11
8.5487833937
 21
21.1733277095
 31
0.0
  0
LINE
  5
4DD
330
1F
100
AcDbEntity
  8
0
  6
Continuous
 62
     7
370
    25
100
AcDbLine
 10
8.4894703272
 20
21.3032052018
 30
0.0
 11
8.5200542467
 21
21.2386899787
 31
0.0
  0
LINE
  5
4DE
330
1F
100
AcDbEntity
  8
0
  6
Continuous
 62
     7
370
    25
100
AcDbLine
 10
8.45705658
 20
21.366820759
 30
0.0
 11
8.4894703272
 21
21.3032052018
 31
0.0
  0
LINE
  5
4DF
330
1F
100
AcDbEntity
  8
0
  6
Continuous
 62
     7
370
    25
100
AcDbLine
 10
8.4228394422
 20
21.4294847648
 30
0.0
 11
8.45705658
 21
21.366820759
 31
0.0
  0
LINE
  5
4E0
330
1F
100
AcDbEntity
  8
0
  6
Continuous
 62
     7
370
    25
100
AcDbLine
 10
8.3868468217
 20
21.4911461093
 30
0.0
 11
8.4228394422
 21
21.4294847648
 31
0.0
  0
LINE
  5
4E1
330
1F
100
AcDbEntity
  8
0
  6
Continuous
 62
     7
370
    25
100
AcDbLine
 10
8.3491080748
 20
21.5517545007
 30
0.0
 11
8.3868468217
 21
21.4911461093
 31
0.0
  0
LINE
  5
4E2
330
1F
100
AcDbEntity
  8
0
  6
Continuous
 62
     7
370
    25
100
AcDbLine
 10
8.3096539816
 20
21.611260506
 30
0.0
 11
8.3491080748
 21
21.5517545007
 31
0.0
  0
LINE
  5
4E3
330
1F
100
AcDbEntity
  8
0
  6
Continuous
 62
     7
370
    25
100
AcDbLine
 10
8.2685167214
 20
21.6696155911
 30
0.0
 11
8.3096539816
 21
21.611260506
 31
0.0
  0
LINE
  5
4E4
330
1F
100
AcDbEntity
  8
0
  6
Continuous
 62
     7
370
    25
100
AcDbLine
 10
8.2257298465
 20
21.7267721609
 30
0.0
 11
8.2685167214
 21
21.6696155911
 31
0.0
  0
LINE
  5
4E5
330
1F
100
AcDbEntity
  8
0
  6
Continuous
 62
     7
370
    25
100
AcDbLine
 10
8.1813282544
 20
21.7826835976
 30
0.0
 11
8.2257298465
 21
21.7267721609
 31
0.0
  0
LINE
  5
4E6
330
1F
100
AcDbEntity
  8
0
  6
Continuous
 62
     7
370
    25
100
AcDbLine
 10
8.1353481597
 20
21.837304299
 30
0.0
 11
8.1813282544
 21
21.7826835976
 31
0.0
  0
LINE
  5
4E7
330
1F
100
AcDbEntity
  8
0
  6
Continuous
 62
     7
370
    25
100
AcDbLine
 10
8.0878270644
 20
21.8905897157
 30
0.0
 11
8.1353481597
 21
21.837304299
 31
0.0
  0
LINE
  5
4E8
330
1F
100
AcDbEntity
  8
0
  6
Continuous
 62
     7
370
    25
100
AcDbLine
 10
8.0388037274
 20
21.9424963874
 30
0.0
 11
8.0878270644
 21
21.8905897157
 31
0.0
  0
LINE
  5
4E9
330
1F
100
AcDbEntity
  8
0
  6
Continuous
 62
     7
370
    25
100
AcDbLine
 10
7.9883181328
 20
21.9929819781
 30
0.0
 11
8.0388037274
 21
21.9424963874
 31
0.0
  0
LINE
  5
4EA
330
1F
100
AcDbEntity
  8
0
  6
Continuous
 62
     7
370
    25
100
AcDbLine
 10
7.9364114575
 20
22.0420053113
 30
0.0
 11
7.9883181328
 21
21.9929819781
 31
0.0
  0
LINE
  5
4EB
330
1F
100
AcDbEntity
  8
0
  6
Continuous
 62
     7
370
    25
100
AcDbLine
 10
7.8831260373
 20
22.0895264026
 30
0.0
 11
7.9364114575
 21
22.0420053113
 31
0.0
  0
LINE
  5
4EC
330
1F
100
AcDbEntity
  8
0
  6
Continuous
 62
     7
370
    25
100
AcDbLine
 10
7.8285053324
 20
22.1355064932
 30
0.0
 11
7.8831260373
 21
22.0895264026
 31
0.0
  0
LINE
  5
4ED
330
1F
100
AcDbEntity
  8
0
  6
Continuous
 62
     7
370
    25
100
AcDbLine
 10
7.7725938924
 20
22.1799080812
 30
0.0
 11
7.8285053324
 21
22.1355064932
 31
0.0
  0
LINE
  5
4EE
330
1F
100
AcDbEntity
  8
0
  6
Continuous
 62
     7
370
    25
100
AcDbLine
 10
7.7154373194
 20
22.2226949518
 30
0.0
 11
7.7725938924
 21
22.1799080812
 31
0.0
  0
LINE
  5
4EF
330
1F
100
AcDbEntity
  8
0
  6
Continuous
 62
     7
370
    25
100
AcDbLine
 10
7.6570822312
 20
22.2638322076
 30
0.0
 11
7.7154373194
 21
22.2226949518
 31
0.0
  0
LINE
  5
4F0
330
1F
100
AcDbEntity
  8
0
  6
Continuous
 62
     7
370
    25
100
AcDbLine
 10
7.597576223
 20
22.3032862964
 30
0.0
 11
7.6570822312
 21
22.2638322076
 31
0.0
  0
LINE
  5
4F1
330
1F
100
AcDbEntity
  8
0
  6
Continuous
 62
     7
370
    25
100
AcDbLine
 10
7.5369678288
 20
22.3410250388
 30
0.0
 11
7.597576223
 21
22.3032862964
 31
0.0
  0
LINE
  5
4F2
330
1F
100
AcDbEntity
  8
0
  6
Continuous
 62
     7
370
    25
100
AcDbLine
 10
7.4753064815
 20
22.3770176546
 30
0.0
 11
7.5369678288
 21
22.3410250388
 31
0.0
  0
LINE
  5
4F3
330
1F
100
AcDbEntity
  8
0
  6
Continuous
 62
     7
370
    25
100
AcDbLine
 10
7.4126424733
 20
22.4112347877
 30
0.0
 11
7.4753064815
 21
22.3770176546
 31
0.0
  0
LINE
  5
4F4
330
1F
100
AcDbEntity
  8
0
  6
Continuous
 62
     7
370
    25
100
AcDbLine
 10
7.3490269136
 20
22.4436485302
 30
0.0
 11
7.4126424733
 21
22.4112347877
 31
0.0
  0
LINE
  5
4F5
330
1F
100
AcDbEntity
  8
0
  6
Continuous
 62
     7
370
    25
100
AcDbLine
 10
7.2845116883
 20
22.4742324448
 30
0.0
 11
7.3490269136
 21
22.4436485302
 31
0.0
  0
LINE
  5
4F6
330
1F
100
AcDbEntity
  8
0
  6
Continuous
 62
     7
370
    25
100
AcDbLine
 10
7.2191494169
 20
22.502961587
 30
0.0
 11
7.2845116883
 21
22.4742324448
 31
0.0
  0
LINE
  5
4F7
330
1F
100
AcDbEntity
  8
0
  6
Continuous
 62
     7
370
    25
100
AcDbLine
 10
7.1529934098
 20
22.5298125248
 30
0.0
 11
7.2191494169
 21
22.502961587
 31
0.0
  0
LINE
  5
4F8
330
1F
100
AcDbEntity
  8
0
  6
Continuous
 62
     7
370
    25
100
AcDbLine
 10
7.0860976248
 20
22.5547633582
 30
0.0
 11
7.1529934098
 21
22.5298125248
 31
0.0
  0
LINE
  5
4F9
330
1F
100
AcDbEntity
  8
0
  6
Continuous
 62
     7
370
    25
100
AcDbLine
 10
7.0185166231
 20
22.5777937369
 30
0.0
 11
7.0860976248
 21
22.5547633582
 31
0.0
  0
LINE
  5
4FA
330
1F
100
AcDbEntity
  8
0
  6
Continuous
 62
     7
370
    25
100
AcDbLine
 10
6.9503055248
 20
22.5988848771
 30
0.0
 11
7.0185166231
 21
22.5777937369
 31
0.0
  0
LINE
  5
4FB
330
1F
100
AcDbEntity
  8
0
  6
Continuous
 62
     7
370
    25
100
AcDbLine
 10
6.8815199637
 20
22.6180195765
 30
0.0
 11
6.9503055248
 21
22.5988848771
 31
0.0
  0
LINE
  5
4FC
330
1F
100
AcDbEntity
  8
0
  6
Continuous
 62
     7
370
    25
100
AcDbLine
 10
6.8122160424
 20
22.6351822285
 30
0.0
 11
6.8815199637
 21
22.6180195765
 31
0.0
  0
LINE
  5
4FD
330
1F
100
AcDbEntity
  8
0
  6
Continuous
 62
     7
370
    25
100
AcDbLine
 10
6.7424502861
 20
22.6503588351
 30
0.0
 11
6.8122160424
 21
22.6351822285
 31
0.0
  0
LINE
  5
4FE
330
1F
100
AcDbEntity
  8
0
  6
Continuous
 62
     7
370
    25
100
AcDbLine
 10
6.6722795969
 20
22.663537018
 30
0.0
 11
6.7424502861
 21
22.6503588351
 31
0.0
  0
LINE
  5
4FF
330
1F
100
AcDbEntity
  8
0
  6
Continuous
 62
     7
370
    25
100
AcDbLine
 10
6.6017612069
 20
22.6747060289
 30
0.0
 11
6.6722795969
 21
22.663537018
 31
0.0
  0
LINE
  5
500
330
1F
100
AcDbEntity
  8
0
  6
Continuous
 62
     7
370
    25
100
AcDbLine
 10
6.5309526319
 20
22.6838567581
 30
0.0
 11
6.6017612069
 21
22.6747060289
 31
0.0
  0
LINE
  5
501
330
1F
100
AcDbEntity
  8
0
  6
Continuous
 62
     7
370
    25
100
AcDbLine
 10
6.4599116245
 20
22.6909817423
 30
0.0
 11
6.5309526319
 21
22.6838567581
 31
0.0
  0
LINE
  5
502
330
1F
100
AcDbEntity
  8
0
  6
Continuous
 62
     7
370
    25
100
AcDbLine
 10
6.3886961267
 20
22.6960751701
 30
0.0
 11
6.4599116245
 21
22.6909817423
 31
0.0
  0
LINE
  5
503
330
1F
100
AcDbEntity
  8
0
  6
Continuous
 62
     7
370
    25
100
AcDbLine
 10
6.3173642229
 20
22.6991328873
 30
0.0
 11
6.3886961267
 21
22.6960751701
 31
0.0
  0
LINE
  5
504
330
1F
100
AcDbEntity
  8
0
  6
Continuous
 62
     7
370
    25
100
AcDbLine
 10
6.2459740924
 20
22.7001524
 30
0.0
 11
6.3173642229
 21
22.6991328873
 31
0.0
  0
LINE
  5
505
330
1F
100
AcDbEntity
  8
0
  6
Continuous
 62
     7
370
    25
100
AcDbLine
 10
0.0
 20
22.7001524
 30
0.0
 11
6.2459740924
 21
22.7001524
 31
0.0
  0
LINE
  5
506
330
1F
100
AcDbEntity
  8
0
  6
Continuous
 62
     7
370
    25
100
AcDbLine
 10
0.0
 20
93.7001524
 30
0.0
 11
0.0
 21
22.7001524
 31
0.0
  0
LINE
  5
507
330
1F
100
AcDbEntity
  8
0
  6
Continuous
 62
     7
370
    25
100
AcDbLine
 10
6.2459740919
 20
93.7001524
 30
0.0
 11
0.0
 21
93.7001524
 31
0.0
  0
LINE
  5
508
330
1F
100
AcDbEntity
  8
0
  6
Continuous
 62
     7
370
    25
100
AcDbLine
 10
6.3173642189
 20
93.7011719179
 30
0.0
 11
6.2459740919
 21
93.7001524
 31
0.0
  0
LINE
  5
509
330
1F
100
AcDbEntity
  8
0
  6
Continuous
 62
     7
370
    25
100
AcDbLine
 10
6.3886961191
 20
93.7042296402
 30
0.0
 11
6.3173642189
 21
93.7011719179
 31
0.0
  0
LINE
  5
50A
330
1F
100
AcDbEntity
  8
0
  6
Continuous
 62
     7
370
    25
100
AcDbLine
 10
6.4599116131
 20
93.7093230728
 30
0.0
 11
6.3886961191
 21
93.7042296402
 31
0.0
  0
LINE
  5
50B
330
1F
100
AcDbEntity
  8
0
  6
Continuous
 62
     7
370
    25
100
AcDbLine
 10
6.5309526167
 20
93.7164480616
 30
0.0
 11
6.4599116131
 21
93.7093230728
 31
0.0
  0
LINE
  5
50C
330
1F
100
AcDbEntity
  8
0
  6
Continuous
 62
     7
370
    25
100
AcDbLine
 10
6.6017611876
 20
93.7255987953
 30
0.0
 11
6.5309526167
 21
93.7164480616
 31
0.0
  0
LINE
  5
50D
330
1F
100
AcDbEntity
  8
0
  6
Continuous
 62
     7
370
    25
100
AcDbLine
 10
6.6722795735
 20
93.7367678104
 30
0.0
 11
6.6017611876
 21
93.7255987953
 31
0.0
  0
LINE
  5
50E
330
1F
100
AcDbEntity
  8
0
  6
Continuous
 62
     7
370
    25
100
AcDbLine
 10
6.7424502586
 20
93.7499459973
 30
0.0
 11
6.6722795735
 21
93.7367678104
 31
0.0
  0
LINE
  5
50F
330
1F
100
AcDbEntity
  8
0
  6
Continuous
 62
     7
370
    25
100
AcDbLine
 10
6.8122160105
 20
93.7651226076
 30
0.0
 11
6.7424502586
 21
93.7499459973
 31
0.0
  0
LINE
  5
510
330
1F
100
AcDbEntity
  8
0
  6
Continuous
 62
     7
370
    25
100
AcDbLine
 10
6.8815199274
 20
93.7822852632
 30
0.0
 11
6.8122160105
 21
93.7651226076
 31
0.0
  0
LINE
  5
511
330
1F
100
AcDbEntity
  8
0
  6
Continuous
 62
     7
370
    25
100
AcDbLine
 10
6.9503054841
 20
93.801419966
 30
0.0
 11
6.8815199274
 21
93.7822852632
 31
0.0
  0
LINE
  5
512
330
1F
100
AcDbEntity
  8
0
  6
Continuous
 62
     7
370
    25
100
AcDbLine
 10
7.0185165779
 20
93.8225111093
 30
0.0
 11
6.9503054841
 21
93.801419966
 31
0.0
  0
LINE
  5
513
330
1F
100
AcDbEntity
  8
0
  6
Continuous
 62
     7
370
    25
100
AcDbLine
 10
7.086097575
 20
93.8455414909
 30
0.0
 11
7.0185165779
 21
93.8225111093
 31
0.0
  0
LINE
  5
514
330
1F
100
AcDbEntity
  8
0
  6
Continuous
 62
     7
370
    25
100
AcDbLine
 10
7.1529933553
 20
93.870492327
 30
0.0
 11
7.086097575
 21
93.8455414909
 31
0.0
  0
LINE
  5
515
330
1F
100
AcDbEntity
  8
0
  6
Continuous
 62
     7
370
    25
100
AcDbLine
 10
7.2191493577
 20
93.8973432672
 30
0.0
 11
7.1529933553
 21
93.870492327
 31
0.0
  0
LINE
  5
516
330
1F
100
AcDbEntity
  8
0
  6
Continuous
 62
     7
370
    25
100
AcDbLine
 10
7.2845116245
 20
93.9260724116
 30
0.0
 11
7.2191493577
 21
93.8973432672
 31
0.0
  0
LINE
  5
517
330
1F
100
AcDbEntity
  8
0
  6
Continuous
 62
     7
370
    25
100
AcDbLine
 10
7.3490268451
 20
93.9566563283
 30
0.0
 11
7.2845116245
 21
93.9260724116
 31
0.0
  0
LINE
  5
518
330
1F
100
AcDbEntity
  8
0
  6
Continuous
 62
     7
370
    25
100
AcDbLine
 10
7.4126424
 20
93.9890700725
 30
0.0
 11
7.3490268451
 21
93.9566563283
 31
0.0
  0
LINE
  5
519
330
1F
100
AcDbEntity
  8
0
  6
Continuous
 62
     7
370
    25
100
AcDbLine
 10
7.4753064036
 20
94.0232872072
 30
0.0
 11
7.4126424
 21
93.9890700725
 31
0.0
  0
LINE
  5
51A
330
1F
100
AcDbEntity
  8
0
  6
Continuous
 62
     7
370
    25
100
AcDbLine
 10
7.536967746
 20
94.0592798244
 30
0.0
 11
7.4753064036
 21
94.0232872072
 31
0.0
  0
LINE
  5
51B
330
1F
100
AcDbEntity
  8
0
  6
Continuous
 62
     7
370
    25
100
AcDbLine
 10
7.5975761356
 20
94.0970185679
 30
0.0
 11
7.536967746
 21
94.0592798244
 31
0.0
  0
LINE
  5
51C
330
1F
100
AcDbEntity
  8
0
  6
Continuous
 62
     7
370
    25
100
AcDbLine
 10
7.6570821391
 20
94.1364726576
 30
0.0
 11
7.5975761356
 21
94.0970185679
 31
0.0
  0
LINE
  5
51D
330
1F
100
AcDbEntity
  8
0
  6
Continuous
 62
     7
370
    25
100
AcDbLine
 10
7.7154372227
 20
94.1776099141
 30
0.0
 11
7.6570821391
 21
94.1364726576
 31
0.0
  0
LINE
  5
51E
330
1F
100
AcDbEntity
  8
0
  6
Continuous
 62
     7
370
    25
100
AcDbLine
 10
7.772593791
 20
94.2203967852
 30
0.0
 11
7.7154372227
 21
94.1776099141
 31
0.0
  0
LINE
  5
51F
330
1F
100
AcDbEntity
  8
0
  6
Continuous
 62
     7
370
    25
100
AcDbLine
 10
7.8285052265
 20
94.2647983734
 30
0.0
 11
7.772593791
 21
94.2203967852
 31
0.0
  0
LINE
  5
520
330
1F
100
AcDbEntity
  8
0
  6
Continuous
 62
     7
370
    25
100
AcDbLine
 10
7.8831259268
 20
94.3107784641
 30
0.0
 11
7.8285052265
 21
94.2647983734
 31
0.0
  0
LINE
  5
521
330
1F
100
AcDbEntity
  8
0
  6
Continuous
 62
     7
370
    25
100
AcDbLine
 10
7.9364113426
 20
94.3582995553
 30
0.0
 11
7.8831259268
 21
94.3107784641
 31
0.0
  0
LINE
  5
522
330
1F
100
AcDbEntity
  8
0
  6
Continuous
 62
     7
370
    25
100
AcDbLine
 10
7.9883180136
 20
94.4073228881
 30
0.0
 11
7.9364113426
 21
94.3582995553
 31
0.0
  0
LINE
  5
523
330
1F
100
AcDbEntity
  8
0
  6
Continuous
 62
     7
370
    25
100
AcDbLine
 10
8.0388036038
 20
94.4578084784
 30
0.0
 11
7.9883180136
 21
94.4073228881
 31
0.0
  0
LINE
  5
524
330
1F
100
AcDbEntity
  8
0
  6
Continuous
 62
     7
370
    25
100
AcDbLine
 10
8.0878269366
 20
94.5097151493
 30
0.0
 11
8.0388036038
 21
94.4578084784
 31
0.0
  0
LINE
  5
525
330
1F
100
AcDbEntity
  8
0
  6
Continuous
 62
     7
370
    25
100
AcDbLine
 10
8.1353480278
 20
94.5630005651
 30
0.0
 11
8.0878269366
 21
94.5097151493
 31
0.0
  0
LINE
  5
526
330
1F
100
AcDbEntity
  8
0
  6
Continuous
 62
     7
370
    25
100
AcDbLine
 10
8.1813281185
 20
94.6176212655
 30
0.0
 11
8.1353480278
 21
94.5630005651
 31
0.0
  0
LINE
  5
527
330
1F
100
AcDbEntity
  8
0
  6
Continuous
 62
     7
370
    25
100
AcDbLine
 10
8.2257297068
 20
94.6735327009
 30
0.0
 11
8.1813281185
 21
94.6176212655
 31
0.0
  0
LINE
  5
528
330
1F
100
AcDbEntity
  8
0
  6
Continuous
 62
     7
370
    25
100
AcDbLine
 10
8.2685165779
 20
94.7306892693
 30
0.0
 11
8.2257297068
 21
94.6735327009
 31
0.0
  0
LINE
  5
529
330
1F
100
AcDbEntity
  8
0
  6
Continuous
 62
     7
370
    25
100
AcDbLine
 10
8.3096538344
 20
94.7890443528
 30
0.0
 11
8.2685165779
 21
94.7306892693
 31
0.0
  0
LINE
  5
52A
330
1F
100
AcDbEntity
  8
0
  6
Continuous
 62
     7
370
    25
100
AcDbLine
 10
8.349107924
 20
94.8485503564
 30
0.0
 11
8.3096538344
 21
94.7890443528
 31
0.0
  0
LINE
  5
52B
330
1F
100
AcDbEntity
  8
0
  6
Continuous
 62
     7
370
    25
100
AcDbLine
 10
8.3868466676
 20
94.9091587459
 30
0.0
 11
8.349107924
 21
94.8485503564
 31
0.0
  0
LINE
  5
52C
330
1F
100
AcDbEntity
  8
0
  6
Continuous
 62
     7
370
    25
100
AcDbLine
 10
8.4228392847
 20
94.9708200884
 30
0.0
 11
8.3868466676
 21
94.9091587459
 31
0.0
  0
LINE
  5
52D
330
1F
100
AcDbEntity
  8
0
  6
Continuous
 62
     7
370
    25
100
AcDbLine
 10
8.4570564194
 20
95.0334840919
 30
0.0
 11
8.4228392847
 21
94.9708200884
 31
0.0
  0
LINE
  5
52E
330
1F
100
AcDbEntity
  8
0
  6
Continuous
 62
     7
370
    25
100
AcDbLine
 10
8.4894701637
 20
95.0970996469
 30
0.0
 11
8.4570564194
 21
95.0334840919
 31
0.0
  0
LINE
  5
52F
330
1F
100
AcDbEntity
  8
0
  6
Continuous
 62
     7
370
    25
100
AcDbLine
 10
8.5200540803
 20
95.1616148675
 30
0.0
 11
8.4894701637
 21
95.0970996469
 31
0.0
  0
LINE
  5
530
330
1F
100
AcDbEntity
  8
0
  6
Continuous
 62
     7
370
    25
100
AcDbLine
 10
8.5487832247
 20
95.2269771342
 30
0.0
 11
8.5200540803
 21
95.1616148675
 31
0.0
  0
LINE
  5
531
330
1F
100
AcDbEntity
  8
0
  6
Continuous
 62
     7
370
    25
100
AcDbLine
 10
8.575634165
 20
95.2931331366
 30
0.0
 11
8.5487832247
 21
95.2269771342
 31
0.0
  0
LINE
  5
532
330
1F
100
AcDbEntity
  8
0
  6
Continuous
 62
     7
370
    25
100
AcDbLine
 10
8.600585001
 20
95.360028917
 30
0.0
 11
8.575634165
 21
95.2931331366
 31
0.0
  0
LINE
  5
533
330
1F
100
AcDbEntity
  8
0
  6
Continuous
 62
     7
370
    25
100
AcDbLine
 10
8.6236153827
 20
95.4276099141
 30
0.0
 11
8.600585001
 21
95.360028917
 31
0.0
  0
LINE
  5
534
330
1F
100
AcDbEntity
  8
0
  6
Continuous
 62
     7
370
    25
100
AcDbLine
 10
8.644706526
 20
95.4958210079
 30
0.0
 11
8.6236153827
 21
95.4276099141
 31
0.0
  0
LINE
  5
535
330
1F
100
AcDbEntity
  8
0
  6
Continuous
 62
     7
370
    25
100
AcDbLine
 10
8.6638412287
 20
95.5646065645
 30
0.0
 11
8.644706526
 21
95.4958210079
 31
0.0
  0
LINE
  5
536
330
1F
100
AcDbEntity
  8
0
  6
Continuous
 62
     7
370
    25
100
AcDbLine
 10
8.6810038843
 20
95.6339104814
 30
0.0
 11
8.6638412287
 21
95.5646065645
 31
0.0
  0
LINE
  5
537
330
1F
100
AcDbEntity
  8
0
  6
Continuous
 62
     7
370
    25
100
AcDbLine
 10
8.6961804947
 20
95.7036762334
 30
0.0
 11
8.6810038843
 21
95.6339104814
 31
0.0
  0
LINE
  5
538
330
1F
100
AcDbEntity
  8
0
  6
Continuous
 62
     7
370
    25
100
AcDbLine
 10
8.7093586816
 20
95.7738469184
 30
0.0
 11
8.6961804947
 21
95.7036762334
 31
0.0
  0
LINE
  5
539
330
1F
100
AcDbEntity
  8
0
  6
Continuous
 62
     7
370
    25
100
AcDbLine
 10
8.7205276967
 20
95.8443653043
 30
0.0
 11
8.7093586816
 21
95.7738469184
 31
0.0
  0
LINE
  5
53A
330
1F
100
AcDbEntity
  8
0
  6
Continuous
 62
     7
370
    25
100
AcDbLine
 10
8.7296784303
 20
95.9151738753
 30
0.0
 11
8.7205276967
 21
95.8443653043
 31
0.0
  0
LINE
  5
53B
330
1F
100
AcDbEntity
  8
0
  6
Continuous
 62
     7
370
    25
100
AcDbLine
 10
8.7368034191
 20
95.9862148788
 30
0.0
 11
8.7296784303
 21
95.9151738753
 31
0.0
  0
LINE
  5
53C
330
1F
100
AcDbEntity
  8
0
  6
Continuous
 62
     7
370
    25
100
AcDbLine
 10
8.7418968518
 20
96.0574303728
 30
0.0
 11
8.7368034191
 21
95.9862148788
 31
0.0
  0
LINE
  5
53D
330
1F
100
AcDbEntity
  8
0
  6
Continuous
 62
     7
370
    25
100
AcDbLine
 10
8.744954574
 20
96.128762273
 30
0.0
 11
8.7418968518
 21
96.0574303728
 31
0.0
  0
LINE
  5
53E
330
1F
100
AcDbEntity
  8
0
  6
Continuous
 62
     7
370
    25
100
AcDbLine
 10
8.7459740919
 20
96.2001524
 30
0.0
 11
8.744954574
 21
96.128762273
 31
0.0
  0
LINE
  5
53F
330
1F
100
AcDbEntity
  8
0
  6
Continuous
 62
     7
370
    25
100
AcDbLine
 10
8.744954574
 20
96.271542527
 30
0.0
 11
8.7459740919
 21
96.2001524
 31
0.0
  0
LINE
  5
540
330
1F
100
AcDbEntity
  8
0
  6
Continuous
 62
     7
370
    25
100
AcDbLine
 10
8.7418968518
 20
96.3428744272
 30
0.0
 11
8.744954574
 21
96.271542527
 31
0.0
  0
LINE
  5
541
330
1F
100
AcDbEntity
  8
0
  6
Continuous
 62
     7
370
    25
100
AcDbLine
 10
8.7368034191
 20
96.4140899212
 30
0.0
 11
8.7418968518
 21
96.3428744272
 31
0.0
  0
LINE
  5
542
330
1F
100
AcDbEntity
  8
0
  6
Continuous
 62
     7
370
    25
100
AcDbLine
 10
8.7296784303
 20
96.4851309247
 30
0.0
 11
8.7368034191
 21
96.4140899212
 31
0.0
  0
LINE
  5
543
330
1F
100
AcDbEntity
  8
0
  6
Continuous
 62
     7
370
    25
100
AcDbLine
 10
8.7205276967
 20
96.5559394957
 30
0.0
 11
8.7296784303
 21
96.4851309247
 31
0.0
  0
LINE
  5
544
330
1F
100
AcDbEntity
  8
0
  6
Continuous
 62
     7
370
    25
100
AcDbLine
 10
8.7093586816
 20
96.6264578816
 30
0.0
 11
8.7205276967
 21
96.5559394957
 31
0.0
  0
LINE
  5
545
330
1F
100
AcDbEntity
  8
0
  6
Continuous
 62
     7
370
    25
100
AcDbLine
 10
8.6961804947
 20
96.6966285666
 30
0.0
 11
8.7093586816
 21
96.6264578816
 31
0.0
  0
LINE
  5
546
330
1F
100
AcDbEntity
  8
0
  6
Continuous
 62
     7
370
    25
100
AcDbLine
 10
8.6810038843
 20
96.7663943186
 30
0.0
 11
8.6961804947
 21
96.6966285666
 31
0.0
  0
LINE
  5
547
330
1F
100
AcDbEntity
  8
0
  6
Continuous
 62
     7
370
    25
100
AcDbLine
 10
8.6638412287
 20
96.8356982355
 30
0.0
 11
8.6810038843
 21
96.7663943186
 31
0.0
  0
LINE
  5
548
330
1F
100
AcDbEntity
  8
0
  6
Continuous
 62
     7
370
    25
100
AcDbLine
 10
8.644706526
 20
96.9044837921
 30
0.0
 11
8.6638412287
 21
96.8356982355
 31
0.0
  0
LINE
  5
549
330
1F
100
AcDbEntity
  8
0
  6
Continuous
 62
     7
370
    25
100
AcDbLine
 10
8.6236153827
 20
96.9726948859
 30
0.0
 11
8.644706526
 21
96.9044837921
 31
0.0
  0
LINE
  5
54A
330
1F
100
AcDbEntity
  8
0
  6
Continuous
 62
     7
370
    25
100
AcDbLine
 10
8.600585001
 20
97.040275883
 30
0.0
 11
8.6236153827
 21
96.9726948859
 31
0.0
  0
LINE
  5
54B
330
1F
100
AcDbEntity
  8
0
  6
Continuous
 62
     7
370
    25
100
AcDbLine
 10
8.575634165
 20
97.1071716634
 30
0.0
 11
8.600585001
 21
97.040275883
 31
0.0
  0
LINE
  5
54C
330
1F
100
AcDbEntity
  8
0
  6
Continuous
 62
     7
370
    25
100
AcDbLine
 10
8.5487832247
 20
97.1733276658
 30
0.0
 11
8.575634165
 21
97.1071716634
 31
0.0
  0
LINE
  5
54D
330
1F
100
AcDbEntity
  8
0
  6
Continuous
 62
     7
370
    25
100
AcDbLine
 10
8.5200540803
 20
97.2386899325
 30
0.0
 11
8.5487832247
 21
97.1733276658
 31
0.0
  0
LINE
  5
54E
330
1F
100
AcDbEntity
  8
0
  6
Continuous
 62
     7
370
    25
100
AcDbLine
 10
8.4894701637
 20
97.3032051531
 30
0.0
 11
8.5200540803
 21
97.2386899325
 31
0.0
  0
LINE
  5
54F
330
1F
100
AcDbEntity
  8
0
  6
Continuous
 62
     7
370
    25
100
AcDbLine
 10
8.4570564194
 20
97.3668207081
 30
0.0
 11
8.4894701637
 21
97.3032051531
 31
0.0
  0
LINE
  5
550
330
1F
100
AcDbEntity
  8
0
  6
Continuous
 62
     7
370
    25
100
AcDbLine
 10
8.4228392847
 20
97.4294847116
 30
0.0
 11
8.4570564194
 21
97.3668207081
 31
0.0
  0
LINE
  5
551
330
1F
100
AcDbEntity
  8
0
  6
Continuous
 62
     7
370
    25
100
AcDbLine
 10
8.3868466676
 20
97.4911460541
 30
0.0
 11
8.4228392847
 21
97.4294847116
 31
0.0
  0
LINE
  5
552
330
1F
100
AcDbEntity
  8
0
  6
Continuous
 62
     7
370
    25
100
AcDbLine
 10
8.349107924
 20
97.5517544436
 30
0.0
 11
8.3868466676
 21
97.4911460541
 31
0.0
  0
LINE
  5
553
330
1F
100
AcDbEntity
  8
0
  6
Continuous
 62
     7
370
    25
100
AcDbLine
 10
8.3096538344
 20
97.6112604472
 30
0.0
 11
8.349107924
 21
97.5517544436
 31
0.0
  0
LINE
  5
554
330
1F
100
AcDbEntity
  8
0
  6
Continuous
 62
     7
370
    25
100
AcDbLine
 10
8.2685165779
 20
97.6696155307
 30
0.0
 11
8.3096538344
 21
97.6112604472
 31
0.0
  0
LINE
  5
555
330
1F
100
AcDbEntity
  8
0
  6
Continuous
 62
     7
370
    25
100
AcDbLine
 10
8.2257297068
 20
97.7267720991
 30
0.0
 11
8.2685165779
 21
97.6696155307
 31
0.0
  0
LINE
  5
556
330
1F
100
AcDbEntity
  8
0
  6
Continuous
 62
     7
370
    25
100
AcDbLine
 10
8.1813281185
 20
97.7826835345
 30
0.0
 11
8.2257297068
 21
97.7267720991
 31
0.0
  0
LINE
  5
557
330
1F
100
AcDbEntity
  8
0
  6
Continuous
 62
     7
370
    25
100
AcDbLine
 10
8.1353480278
 20
97.8373042349
 30
0.0
 11
8.1813281185
 21
97.7826835345
 31
0.0
  0
LINE
  5
558
330
1F
100
AcDbEntity
  8
0
  6
Continuous
 62
     7
370
    25
100
AcDbLine
 10
8.0878269366
 20
97.8905896507
 30
0.0
 11
8.1353480278
 21
97.8373042349
 31
0.0
  0
LINE
  5
559
330
1F
100
AcDbEntity
  8
0
  6
Continuous
 62
     7
370
    25
100
AcDbLine
 10
8.0388036038
 20
97.9424963216
 30
0.0
 11
8.0878269366
 21
97.8905896507
 31
0.0
  0
LINE
  5
55A
330
1F
100
AcDbEntity
  8
0
  6
Continuous
 62
     7
370
    25
100
AcDbLine
 10
7.9883180136
 20
97.9929819119
 30
0.0
 11
8.0388036038
 21
97.9424963216
 31
0.0
  0
LINE
  5
55B
330
1F
100
AcDbEntity
  8
0
  6
Continuous
 62
     7
370
    25
100
AcDbLine
 10
7.9364113426
 20
98.0420052447
 30
0.0
 11
7.9883180136
 21
97.9929819119
 31
0.0
  0
LINE
  5
55C
330
1F
100
AcDbEntity
  8
0
  6
Continuous
 62
     7
370
    25
100
AcDbLine
 10
7.8831259268
 20
98.0895263359
 30
0.0
 11
7.9364113426
 21
98.0420052447
 31
0.0
  0
LINE
  5
55D
330
1F
100
AcDbEntity
  8
0
  6
Continuous
 62
     7
370
    25
100
AcDbLine
 10
7.8285052265
 20
98.1355064266
 30
0.0
 11
7.8831259268
 21
98.0895263359
 31
0.0
  0
LINE
  5
55E
330
1F
100
AcDbEntity
  8
0
  6
Continuous
 62
     7
370
    25
100
AcDbLine
 10
7.772593791
 20
98.1799080148
 30
0.0
 11
7.8285052265
 21
98.1355064266
 31
0.0
  0
LINE
  5
55F
330
1F
100
AcDbEntity
  8
0
  6
Continuous
 62
     7
370
    25
100
AcDbLine
 10
7.7154372227
 20
98.2226948859
 30
0.0
 11
7.772593791
 21
98.1799080148
 31
0.0
  0
LINE
  5
560
330
1F
100
AcDbEntity
  8
0
  6
Continuous
 62
     7
370
    25
100
AcDbLine
 10
7.6570821391
 20
98.2638321424
 30
0.0
 11
7.7154372227
 21
98.2226948859
 31
0.0
  0
LINE
  5
561
330
1F
100
AcDbEntity
  8
0
  6
Continuous
 62
     7
370
    25
100
AcDbLine
 10
7.5975761356
 20
98.3032862321
 30
0.0
 11
7.6570821391
 21
98.2638321424
 31
0.0
  0
LINE
  5
562
330
1F
100
AcDbEntity
  8
0
  6
Continuous
 62
     7
370
    25
100
AcDbLine
 10
7.536967746
 20
98.3410249756
 30
0.0
 11
7.5975761356
 21
98.3032862321
 31
0.0
  0
LINE
  5
563
330
1F
100
AcDbEntity
  8
0
  6
Continuous
 62
     7
370
    25
100
AcDbLine
 10
7.4753064036
 20
98.3770175928
 30
0.0
 11
7.536967746
 21
98.3410249756
 31
0.0
  0
LINE
  5
564
330
1F
100
AcDbEntity
  8
0
  6
Continuous
 62
     7
370
    25
100
AcDbLine
 10
7.4126424
 20
98.4112347275
 30
0.0
 11
7.4753064036
 21
98.3770175928
 31
0.0
  0
LINE
  5
565
330
1F
100
AcDbEntity
  8
0
  6
Continuous
 62
     7
370
    25
100
AcDbLine
 10
7.3490268451
 20
98.4436484717
 30
0.0
 11
7.4126424
 21
98.4112347275
 31
0.0
  0
LINE
  5
566
330
1F
100
AcDbEntity
  8
0
  6
Continuous
 62
     7
370
    25
100
AcDbLine
 10
7.2845116245
 20
98.4742323884
 30
0.0
 11
7.3490268451
 21
98.4436484717
 31
0.0
  0
LINE
  5
567
330
1F
100
AcDbEntity
  8
0
  6
Continuous
 62
     7
370
    25
100
AcDbLine
 10
7.2191493577
 20
98.5029615328
 30
0.0
 11
7.2845116245
 21
98.4742323884
 31
0.0
  0
LINE
  5
568
330
1F
100
AcDbEntity
  8
0
  6
Continuous
 62
     7
370
    25
100
AcDbLine
 10
7.1529933553
 20
98.529812473
 30
0.0
 11
7.2191493577
 21
98.5029615328
 31
0.0
  0
LINE
  5
569
330
1F
100
AcDbEntity
  8
0
  6
Continuous
 62
     7
370
    25
100
AcDbLine
 10
7.086097575
 20
98.5547633091
 30
0.0
 11
7.1529933553
 21
98.529812473
 31
0.0
  0
LINE
  5
56A
330
1F
100
AcDbEntity
  8
0
  6
Continuous
 62
     7
370
    25
100
AcDbLine
 10
7.0185165779
 20
98.5777936907
 30
0.0
 11
7.086097575
 21
98.5547633091
 31
0.0
  0
LINE
  5
56B
330
1F
100
AcDbEntity
  8
0
  6
Continuous
 62
     7
370
    25
100
AcDbLine
 10
6.9503054841
 20
98.598884834
 30
0.0
 11
7.0185165779
 21
98.5777936907
 31
0.0
  0
LINE
  5
56C
330
1F
100
AcDbEntity
  8
0
  6
Continuous
 62
     7
370
    25
100
AcDbLine
 10
6.8815199274
 20
98.6180195368
 30
0.0
 11
6.9503054841
 21
98.598884834
 31
0.0
  0
LINE
  5
56D
330
1F
100
AcDbEntity
  8
0
  6
Continuous
 62
     7
370
    25
100
AcDbLine
 10
6.8122160105
 20
98.6351821924
 30
0.0
 11
6.8815199274
 21
98.6180195368
 31
0.0
  0
LINE
  5
56E
330
1F
100
AcDbEntity
  8
0
  6
Continuous
 62
     7
370
    25
100
AcDbLine
 10
6.7424502586
 20
98.6503588027
 30
0.0
 11
6.8122160105
 21
98.6351821924
 31
0.0
  0
LINE
  5
56F
330
1F
100
AcDbEntity
  8
0
  6
Continuous
 62
     7
370
    25
100
AcDbLine
 10
6.6722795735
 20
98.6635369896
 30
0.0
 11
6.7424502586
 21
98.6503588027
 31
0.0
  0
LINE
  5
570
330
1F
100
AcDbEntity
  8
0
  6
Continuous
 62
     7
370
    25
100
AcDbLine
 10
6.6017611876
 20
98.6747060047
 30
0.0
 11
6.6722795735
 21
98.6635369896
 31
0.0
  0
LINE
  5
571
330
1F
100
AcDbEntity
  8
0
  6
Continuous
 62
     7
370
    25
100
AcDbLine
 10
6.5309526167
 20
98.6838567384
 30
0.0
 11
6.6017611876
 21
98.6747060047
 31
0.0
  0
LINE
  5
572
330
1F
100
AcDbEntity
  8
0
  6
Continuous
 62
     7
370
    25
100
AcDbLine
 10
6.4599116131
 20
98.6909817272
 30
0.0
 11
6.5309526167
 21
98.6838567384
 31
0.0
  0
LINE
  5
573
330
1F
100
AcDbEntity
  8
0
  6
Continuous
 62
     7
370
    25
100
AcDbLine
 10
6.3886961191
 20
98.6960751598
 30
0.0
 11
6.4599116131
 21
98.6909817272
 31
0.0
  0
LINE
  5
574
330
1F
100
AcDbEntity
  8
0
  6
Continuous
 62
     7
370
    25
100
AcDbLine
 10
6.3173642189
 20
98.6991328821
 30
0.0
 11
6.3886961191
 21
98.6960751598
 31
0.0
  0
LINE
  5
575
330
1F
100
AcDbEntity
  8
0
  6
Continuous
 62
     7
370
    25
100
AcDbLine
 10
6.2459740919
 20
98.7001524
 30
0.0
 11
6.3173642189
 21
98.6991328821
 31
0.0
  0
LINE
  5
576
330
1F
100
AcDbEntity
  8
0
  6
Continuous
 62
     7
370
    25
100
AcDbLine
 10
0.0
 20
98.7001524
 30
0.0
 11
6.2459740919
 21
98.7001524
 31
0.0
  0
LINE
  5
577
330
1F
100
AcDbEntity
  8
0
  6
Continuous
 62
     7
370
    25
100
AcDbLine
 10
0.0
 20
116.2001524
 30
0.0
 11
0.0
 21
98.7001524
 31
0.0
  0
LINE
  5
578
330
1F
100
AcDbEntity
  8
0
  6
Continuous
 62
     7
370
    25
100
AcDbLine
 10
418.67500635
 20
109.00381839
 30
0.0
 11
0.0
 21
109.00381839
 31
0.0
  0
LINE
  5
579
330
1F
100
AcDbEntity
  8
0
  6
Continuous
 62
     7
370
    25
100
AcDbLine
 10
418.67500635
 20
98.7001524
 30
0.0
 11
418.67500635
 21
116.2001524
 31
0.0
  0
LINE
  5
57A
330
1F
100
AcDbEntity
  8
0
  6
Continuous
 62
     7
370
    25
100
AcDbLine
 10
62.72500635
 20
89.2001524
 30
0.0
 11
76.72500635
 21
89.2001524
 31
0.0
  0
LINE
  5
57B
330
1F
100
AcDbEntity
  8
0
  6
Continuous
 62
     7
370
    25
100
AcDbLine
 10
76.72500635
 20
89.2001524
 30
0.0
 11
76.72500635
 21
103.2001524
 31
0.0
  0
LINE
  5
57C
330
1F
100
AcDbEntity
  8
0
  6
Continuous
 62
     7
370
    25
100
AcDbLine
 10
76.72500635
 20
103.2001524
 30
0.0
 11
62.72500635
 21
103.2001524
 31
0.0
  0
LINE
  5
57D
330
1F
100
AcDbEntity
  8
0
  6
Continuous
 62
     7
370
    25
100
AcDbLine
 10
62.72500635
 20
103.2001524
 30
0.0
 11
62.72500635
 21
89.2001524
 31
0.0
  0
LINE
  5
57E
330
1F
100
AcDbEntity
  8
0
  6
Continuous
 62
     7
370
    25
100
AcDbLine
 10
24.62500635
 20
89.2001524
 30
0.0
 11
38.62500635
 21
89.2001524
 31
0.0
  0
LINE
  5
57F
330
1F
100
AcDbEntity
  8
0
  6
Continuous
 62
     7
370
    25
100
AcDbLine
 10
38.62500635
 20
89.2001524
 30
0.0
 11
38.62500635
 21
103.2001524
 31
0.0
  0
LINE
  5
580
330
1F
100
AcDbEntity
  8
0
  6
Continuous
 62
     7
370
    25
100
AcDbLine
 10
38.62500635
 20
103.2001524
 30
0.0
 11
24.62500635
 21
103.2001524
 31
0.0
  0
LINE
  5
581
330
1F
100
AcDbEntity
  8
0
  6
Continuous
 62
     7
370
    25
100
AcDbLine
 10
24.62500635
 20
103.2001524
 30
0.0
 11
24.62500635
 21
89.2001524
 31
0.0
  0
LINE
  5
582
330
1F
100
AcDbEntity
  8
0
  6
Continuous
 62
     7
370
    25
100
AcDbLine
 10
43.67500635
 20
89.2001524
 30
0.0
 11
57.67500635
 21
89.2001524
 31
0.0
  0
LINE
  5
583
330
1F
100
AcDbEntity
  8
0
  6
Continuous
 62
     7
370
    25
100
AcDbLine
 10
57.67500635
 20
89.2001524
 30
0.0
 11
57.67500635
 21
103.2001524
 31
0.0
  0
LINE
  5
584
330
1F
100
AcDbEntity
  8
0
  6
Continuous
 62
     7
370
    25
100
AcDbLine
 10
57.67500635
 20
103.2001524
 30
0.0
 11
43.67500635
 21
103.2001524
 31
0.0
  0
LINE
  5
585
330
1F
100
AcDbEntity
  8
0
  6
Continuous
 62
     7
370
    25
100
AcDbLine
 10
43.67500635
 20
103.2001524
 30
0.0
 11
43.67500635
 21
89.2001524
 31
0.0
  0
LINE
  5
586
330
1F
100
AcDbEntity
  8
0
  6
Continuous
 62
     7
370
    25
100
AcDbLine
 10
81.7750571501
 20
89.2001524
 30
0.0
 11
95.7750571501
 21
89.2001524
 31
0.0
  0
LINE
  5
587
330
1F
100
AcDbEntity
  8
0
  6
Continuous
 62
     7
370
    25
100
AcDbLine
 10
95.7750571501
 20
89.2001524
 30
0.0
 11
95.7750571501
 21
103.2001524
 31
0.0
  0
LINE
  5
588
330
1F
100
AcDbEntity
  8
0
  6
Continuous
 62
     7
370
    25
100
AcDbLine
 10
95.7750571501
 20
103.2001524
 30
0.0
 11
81.7750571501
 21
103.2001524
 31
0.0
  0
LINE
  5
589
330
1F
100
AcDbEntity
  8
0
  6
Continuous
 62
     7
370
    25
100
AcDbLine
 10
81.7750571501
 20
103.2001524
 30
0.0
 11
81.7750571501
 21
89.2001524
 31
0.0
  0
LINE
  5
58A
330
1F
100
AcDbEntity
  8
0
  6
Continuous
 62
     7
370
    25
100
AcDbLine
 10
100.8250952502
 20
89.2001524
 30
0.0
 11
114.8250952502
 21
89.2001524
 31
0.0
  0
LINE
  5
58B
330
1F
100
AcDbEntity
  8
0
  6
Continuous
 62
     7
370
    25
100
AcDbLine
 10
114.8250952502
 20
89.2001524
 30
0.0
 11
114.8250952502
 21
103.2001524
 31
0.0
  0
LINE
  5
58C
330
1F
100
AcDbEntity
  8
0
  6
Continuous
 62
     7
370
    25
100
AcDbLine
 10
114.8250952502
 20
103.2001524
 30
0.0
 11
100.8250952502
 21
103.2001524
 31
0.0
  0
LINE
  5
58D
330
1F
100
AcDbEntity
  8
0
  6
Continuous
 62
     7
370
    25
100
AcDbLine
 10
100.8250952502
 20
103.2001524
 30
0.0
 11
100.8250952502
 21
89.2001524
 31
0.0
  0
LINE
  5
58E
330
1F
100
AcDbEntity
  8
0
  6
Continuous
 62
     7
370
    25
100
AcDbLine
 10
119.8751333503
 20
89.2001524
 30
0.0
 11
133.8751333503
 21
89.2001524
 31
0.0
  0
LINE
  5
58F
330
1F
100
AcDbEntity
  8
0
  6
Continuous
 62
     7
370
    25
100
AcDbLine
 10
133.8751333503
 20
89.2001524
 30
0.0
 11
133.8751333503
 21
103.2001524
 31
0.0
  0
LINE
  5
590
330
1F
100
AcDbEntity
  8
0
  6
Continuous
 62
     7
370
    25
100
AcDbLine
 10
133.8751333503
 20
103.2001524
 30
0.0
 11
119.8751333503
 21
103.2001524
 31
0.0
  0
LINE
  5
591
330
1F
100
AcDbEntity
  8
0
  6
Continuous
 62
     7
370
    25
100
AcDbLine
 10
119.8751333503
 20
103.2001524
 30
0.0
 11
119.8751333503
 21
89.2001524
 31
0.0
  0
LINE
  5
592
330
1F
100
AcDbEntity
  8
0
  6
Continuous
 62
     7
370
    25
100
AcDbLine
 10
138.9249174498
 20
89.2001524
 30
0.0
 11
152.9249174498
 21
89.2001524
 31
0.0
  0
LINE
  5
593
330
1F
100
AcDbEntity
  8
0
  6
Continuous
 62
     7
370
    25
100
AcDbLine
 10
152.9249174498
 20
89.2001524
 30
0.0
 11
152.9249174498
 21
103.2001524
 31
0.0
  0
LINE
  5
594
330
1F
100
AcDbEntity
  8
0
  6
Continuous
 62
     7
370
    25
100
AcDbLine
 10
152.9249174498
 20
103.2001524
 30
0.0
 11
138.9249174498
 21
103.2001524
 31
0.0
  0
LINE
  5
595
330
1F
100
AcDbEntity
  8
0
  6
Continuous
 62
     7
370
    25
100
AcDbLine
 10
138.9249174498
 20
103.2001524
 30
0.0
 11
138.9249174498
 21
89.2001524
 31
0.0
  0
LINE
  5
596
330
1F
100
AcDbEntity
  8
0
  6
Continuous
 62
     7
370
    25
100
AcDbLine
 10
157.9749555499
 20
89.2001524
 30
0.0
 11
171.9749555499
 21
89.2001524
 31
0.0
  0
LINE
  5
597
330
1F
100
AcDbEntity
  8
0
  6
Continuous
 62
     7
370
    25
100
AcDbLine
 10
171.9749555499
 20
89.2001524
 30
0.0
 11
171.9749555499
 21
103.2001524
 31
0.0
  0
LINE
  5
598
330
1F
100
AcDbEntity
  8
0
  6
Continuous
 62
     7
370
    25
100
AcDbLine
 10
171.9749555499
 20
103.2001524
 30
0.0
 11
157.9749555499
 21
103.2001524
 31
0.0
  0
LINE
  5
599
330
1F
100
AcDbEntity
  8
0
  6
Continuous
 62
     7
370
    25
100
AcDbLine
 10
157.9749555499
 20
103.2001524
 30
0.0
 11
157.9749555499
 21
89.2001524
 31
0.0
  0
LINE
  5
59A
330
1F
100
AcDbEntity
  8
0
  6
Continuous
 62
     7
370
    25
100
AcDbLine
 10
177.02499365
 20
89.2001524
 30
0.0
 11
191.02499365
 21
89.2001524
 31
0.0
  0
LINE
  5
59B
330
1F
100
AcDbEntity
  8
0
  6
Continuous
 62
     7
370
    25
100
AcDbLine
 10
191.02499365
 20
89.2001524
 30
0.0
 11
191.02499365
 21
103.2001524
 31
0.0
  0
LINE
  5
59C
330
1F
100
AcDbEntity
  8
0
  6
Continuous
 62
     7
370
    25
100
AcDbLine
 10
191.02499365
 20
103.2001524
 30
0.0
 11
177.02499365
 21
103.2001524
 31
0.0
  0
LINE
  5
59D
330
1F
100
AcDbEntity
  8
0
  6
Continuous
 62
     7
370
    25
100
AcDbLine
 10
177.02499365
 20
103.2001524
 30
0.0
 11
177.02499365
 21
89.2001524
 31
0.0
  0
LINE
  5
59E
330
1F
100
AcDbEntity
  8
0
  6
Continuous
 62
     7
370
    25
100
AcDbLine
 10
196.0750317501
 20
89.2001524
 30
0.0
 11
210.0750317501
 21
89.2001524
 31
0.0
  0
LINE
  5
59F
330
1F
100
AcDbEntity
  8
0
  6
Continuous
 62
     7
370
    25
100
AcDbLine
 10
210.0750317501
 20
89.2001524
 30
0.0
 11
210.0750317501
 21
103.2001524
 31
0.0
  0
LINE
  5
5A0
330
1F
100
AcDbEntity
  8
0
  6
Continuous
 62
     7
370
    25
100
AcDbLine
 10
210.0750317501
 20
103.2001524
 30
0.0
 11
196.0750317501
 21
103.2001524
 31
0.0
  0
LINE
  5
5A1
330
1F
100
AcDbEntity
  8
0
  6
Continuous
 62
     7
370
    25
100
AcDbLine
 10
196.0750317501
 20
103.2001524
 30
0.0
 11
196.0750317501
 21
89.2001524
 31
0.0
  0
LINE
  5
5A2
330
1F
100
AcDbEntity
  8
0
  6
Continuous
 62
     7
370
    25
100
AcDbLine
 10
215.1250698501
 20
89.2001524
 30
0.0
 11
229.1250698501
 21
89.2001524
 31
0.0
  0
LINE
  5
5A3
330
1F
100
AcDbEntity
  8
0
  6
Continuous
 62
     7
370
    25
100
AcDbLine
 10
229.1250698501
 20
89.2001524
 30
0.0
 11
229.1250698501
 21
103.2001524
 31
0.0
  0
LINE
  5
5A4
330
1F
100
AcDbEntity
  8
0
  6
Continuous
 62
     7
370
    25
100
AcDbLine
 10
229.1250698501
 20
103.2001524
 30
0.0
 11
215.1250698501
 21
103.2001524
 31
0.0
  0
LINE
  5
5A5
330
1F
100
AcDbEntity
  8
0
  6
Continuous
 62
     7
370
    25
100
AcDbLine
 10
215.1250698501
 20
103.2001524
 30
0.0
 11
215.1250698501
 21
89.2001524
 31
0.0
  0
LINE
  5
5A6
330
1F
100
AcDbEntity
  8
0
  6
Continuous
 62
     7
370
    25
100
AcDbLine
 10
234.1751079502
 20
89.2001524
 30
0.0
 11
248.1751079502
 21
89.2001524
 31
0.0
  0
LINE
  5
5A7
330
1F
100
AcDbEntity
  8
0
  6
Continuous
 62
     7
370
    25
100
AcDbLine
 10
248.1751079502
 20
89.2001524
 30
0.0
 11
248.1751079502
 21
103.2001524
 31
0.0
  0
LINE
  5
5A8
330
1F
100
AcDbEntity
  8
0
  6
Continuous
 62
     7
370
    25
100
AcDbLine
 10
248.1751079502
 20
103.2001524
 30
0.0
 11
234.1751079502
 21
103.2001524
 31
0.0
  0
LINE
  5
5A9
330
1F
100
AcDbEntity
  8
0
  6
Continuous
 62
     7
370
    25
100
AcDbLine
 10
234.1751079502
 20
103.2001524
 30
0.0
 11
234.1751079502
 21
89.2001524
 31
0.0
  0
LINE
  5
5AA
330
1F
100
AcDbEntity
  8
0
  6
Continuous
 62
     7
370
    25
100
AcDbLine
 10
253.2251460503
 20
89.2001524
 30
0.0
 11
267.2251460503
 21
89.2001524
 31
0.0
  0
LINE
  5
5AB
330
1F
100
AcDbEntity
  8
0
  6
Continuous
 62
     7
370
    25
100
AcDbLine
 10
267.2251460503
 20
89.2001524
 30
0.0
 11
267.2251460503
 21
103.2001524
 31
0.0
  0
LINE
  5
5AC
330
1F
100
AcDbEntity
  8
0
  6
Continuous
 62
     7
370
    25
100
AcDbLine
 10
267.2251460503
 20
103.2001524
 30
0.0
 11
253.2251460503
 21
103.2001524
 31
0.0
  0
LINE
  5
5AD
330
1F
100
AcDbEntity
  8
0
  6
Continuous
 62
     7
370
    25
100
AcDbLine
 10
253.2251460503
 20
103.2001524
 30
0.0
 11
253.2251460503
 21
89.2001524
 31
0.0
  0
LINE
  5
5AE
330
1F
100
AcDbEntity
  8
0
  6
Continuous
 62
     7
370
    25
100
AcDbLine
 10
306.3630683261
 20
89.2001524
 30
0.0
 11
320.3630683261
 21
89.2001524
 31
0.0
  0
LINE
  5
5AF
330
1F
100
AcDbEntity
  8
0
  6
Continuous
 62
     7
370
    25
100
AcDbLine
 10
320.3630683261
 20
89.2001524
 30
0.0
 11
320.3630683261
 21
103.2001524
 31
0.0
  0
LINE
  5
5B0
330
1F
100
AcDbEntity
  8
0
  6
Continuous
 62
     7
370
    25
100
AcDbLine
 10
320.3630683261
 20
103.2001524
 30
0.0
 11
306.3630683261
 21
103.2001524
 31
0.0
  0
LINE
  5
5B1
330
1F
100
AcDbEntity
  8
0
  6
Continuous
 62
     7
370
    25
100
AcDbLine
 10
306.3630683261
 20
103.2001524
 30
0.0
 11
306.3630683261
 21
89.2001524
 31
0.0
  0
LINE
  5
5B2
330
1F
100
AcDbEntity
  8
0
  6
Continuous
 62
     7
370
    25
100
AcDbLine
 10
306.3630683261
 20
70.1503683004
 30
0.0
 11
320.3630683261
 21
70.1503683004
 31
0.0
  0
LINE
  5
5B3
330
1F
100
AcDbEntity
  8
0
  6
Continuous
 62
     7
370
    25
100
AcDbLine
 10
320.3630683261
 20
70.1503683004
 30
0.0
 11
320.3630683261
 21
84.1503683004
 31
0.0
  0
LINE
  5
5B4
330
1F
100
AcDbEntity
  8
0
  6
Continuous
 62
     7
370
    25
100
AcDbLine
 10
320.3630683261
 20
84.1503683004
 30
0.0
 11
306.3630683261
 21
84.1503683004
 31
0.0
  0
LINE
  5
5B5
330
1F
100
AcDbEntity
  8
0
  6
Continuous
 62
     7
370
    25
100
AcDbLine
 10
306.3630683261
 20
84.1503683004
 30
0.0
 11
306.3630683261
 21
70.1503683004
 31
0.0
  0
LINE
  5
5B6
330
1F
100
AcDbEntity
  8
0
  6
Continuous
 62
     7
370
    25
100
AcDbLine
 10
262.7499110998
 20
70.1503683004
 30
0.0
 11
276.7499110998
 21
70.1503683004
 31
0.0
  0
LINE
  5
5B7
330
1F
100
AcDbEntity
  8
0
  6
Continuous
 62
     7
370
    25
100
AcDbLine
 10
276.7499110998
 20
70.1503683004
 30
0.0
 11
276.7499110998
 21
84.1503683004
 31
0.0
  0
LINE
  5
5B8
330
1F
100
AcDbEntity
  8
0
  6
Continuous
 62
     7
370
    25
100
AcDbLine
 10
276.7499110998
 20
84.1503683004
 30
0.0
 11
262.7499110998
 21
84.1503683004
 31
0.0
  0
LINE
  5
5B9
330
1F
100
AcDbEntity
  8
0
  6
Continuous
 62
     7
370
    25
100
AcDbLine
 10
262.7499110998
 20
84.1503683004
 30
0.0
 11
262.7499110998
 21
70.1503683004
 31
0.0
  0
LINE
  5
5BA
330
1F
100
AcDbEntity
  8
0
  6
Continuous
 62
     7
370
    25
100
AcDbLine
 10
243.7001270003
 20
70.1503683004
 30
0.0
 11
257.7001270003
 21
70.1503683004
 31
0.0
  0
LINE
  5
5BB
330
1F
100
AcDbEntity
  8
0
  6
Continuous
 62
     7
370
    25
100
AcDbLine
 10
257.7001270003
 20
70.1503683004
 30
0.0
 11
257.7001270003
 21
84.1503683004
 31
0.0
  0
LINE
  5
5BC
330
1F
100
AcDbEntity
  8
0
  6
Continuous
 62
     7
370
    25
100
AcDbLine
 10
257.7001270003
 20
84.1503683004
 30
0.0
 11
243.7001270003
 21
84.1503683004
 31
0.0
  0
LINE
  5
5BD
330
1F
100
AcDbEntity
  8
0
  6
Continuous
 62
     7
370
    25
100
AcDbLine
 10
243.7001270003
 20
84.1503683004
 30
0.0
 11
243.7001270003
 21
70.1503683004
 31
0.0
  0
LINE
  5
5BE
330
1F
100
AcDbEntity
  8
0
  6
Continuous
 62
     7
370
    25
100
AcDbLine
 10
224.6500889002
 20
70.1503683004
 30
0.0
 11
238.6500889002
 21
70.1503683004
 31
0.0
  0
LINE
  5
5BF
330
1F
100
AcDbEntity
  8
0
  6
Continuous
 62
     7
370
    25
100
AcDbLine
 10
238.6500889002
 20
70.1503683004
 30
0.0
 11
238.6500889002
 21
84.1503683004
 31
0.0
  0
LINE
  5
5C0
330
1F
100
AcDbEntity
  8
0
  6
Continuous
 62
     7
370
    25
100
AcDbLine
 10
238.6500889002
 20
84.1503683004
 30
0.0
 11
224.6500889002
 21
84.1503683004
 31
0.0
  0
LINE
  5
5C1
330
1F
100
AcDbEntity
  8
0
  6
Continuous
 62
     7
370
    25
100
AcDbLine
 10
224.6500889002
 20
84.1503683004
 30
0.0
 11
224.6500889002
 21
70.1503683004
 31
0.0
  0
LINE
  5
5C2
330
1F
100
AcDbEntity
  8
0
  6
Continuous
 62
     7
370
    25
100
AcDbLine
 10
205.6000508001
 20
70.1503683004
 30
0.0
 11
219.6000508001
 21
70.1503683004
 31
0.0
  0
LINE
  5
5C3
330
1F
100
AcDbEntity
  8
0
  6
Continuous
 62
     7
370
    25
100
AcDbLine
 10
219.6000508001
 20
70.1503683004
 30
0.0
 11
219.6000508001
 21
84.1503683004
 31
0.0
  0
LINE
  5
5C4
330
1F
100
AcDbEntity
  8
0
  6
Continuous
 62
     7
370
    25
100
AcDbLine
 10
219.6000508001
 20
84.1503683004
 30
0.0
 11
205.6000508001
 21
84.1503683004
 31
0.0
  0
LINE
  5
5C5
330
1F
100
AcDbEntity
  8
0
  6
Continuous
 62
     7
370
    25
100
AcDbLine
 10
205.6000508001
 20
84.1503683004
 30
0.0
 11
205.6000508001
 21
70.1503683004
 31
0.0
  0
LINE
  5
5C6
330
1F
100
AcDbEntity
  8
0
  6
Continuous
 62
     7
370
    25
100
AcDbLine
 10
325.4131064262
 20
89.2001524
 30
0.0
 11
339.4131064262
 21
89.2001524
 31
0.0
  0
LINE
  5
5C7
330
1F
100
AcDbEntity
  8
0
  6
Continuous
 62
     7
370
    25
100
AcDbLine
 10
339.4131064262
 20
89.2001524
 30
0.0
 11
339.4131064262
 21
103.2001524
 31
0.0
  0
LINE
  5
5C8
330
1F
100
AcDbEntity
  8
0
  6
Continuous
 62
     7
370
    25
100
AcDbLine
 10
339.4131064262
 20
103.2001524
 30
0.0
 11
325.4131064262
 21
103.2001524
 31
0.0
  0
LINE
  5
5C9
330
1F
100
AcDbEntity
  8
0
  6
Continuous
 62
     7
370
    25
100
AcDbLine
 10
325.4131064262
 20
103.2001524
 30
0.0
 11
325.4131064262
 21
89.2001524
 31
0.0
  0
LINE
  5
5CA
330
1F
100
AcDbEntity
  8
0
  6
Continuous
 62
     7
370
    25
100
AcDbLine
 10
344.4631445263
 20
89.2001524
 30
0.0
 11
358.4631445263
 21
89.2001524
 31
0.0
  0
LINE
  5
5CB
330
1F
100
AcDbEntity
  8
0
  6
Continuous
 62
     7
370
    25
100
AcDbLine
 10
358.4631445263
 20
89.2001524
 30
0.0
 11
358.4631445263
 21
103.2001524
 31
0.0
  0
LINE
  5
5CC
330
1F
100
AcDbEntity
  8
0
  6
Continuous
 62
     7
370
    25
100
AcDbLine
 10
358.4631445263
 20
103.2001524
 30
0.0
 11
344.4631445263
 21
103.2001524
 31
0.0
  0
LINE
  5
5CD
330
1F
100
AcDbEntity
  8
0
  6
Continuous
 62
     7
370
    25
100
AcDbLine
 10
344.4631445263
 20
103.2001524
 30
0.0
 11
344.4631445263
 21
89.2001524
 31
0.0
  0
LINE
  5
5CE
330
1F
100
AcDbEntity
  8
0
  6
Continuous
 62
     7
370
    25
100
AcDbLine
 10
325.4131064262
 20
70.1503683004
 30
0.0
 11
339.4131064262
 21
70.1503683004
 31
0.0
  0
LINE
  5
5CF
330
1F
100
AcDbEntity
  8
0
  6
Continuous
 62
     7
370
    25
100
AcDbLine
 10
339.4131064262
 20
70.1503683004
 30
0.0
 11
339.4131064262
 21
84.1503683004
 31
0.0
  0
LINE
  5
5D0
330
1F
100
AcDbEntity
  8
0
  6
Continuous
 62
     7
370
    25
100
AcDbLine
 10
339.4131064262
 20
84.1503683004
 30
0.0
 11
325.4131064262
 21
84.1503683004
 31
0.0
  0
LINE
  5
5D1
330
1F
100
AcDbEntity
  8
0
  6
Continuous
 62
     7
370
    25
100
AcDbLine
 10
325.4131064262
 20
84.1503683004
 30
0.0
 11
325.4131064262
 21
70.1503683004
 31
0.0
  0
LINE
  5
5D2
330
1F
100
AcDbEntity
  8
0
  6
Continuous
 62
     7
370
    25
100
AcDbLine
 10
344.4631445263
 20
70.1503683004
 30
0.0
 11
358.4631445263
 21
70.1503683004
 31
0.0
  0
LINE
  5
5D3
330
1F
100
AcDbEntity
  8
0
  6
Continuous
 62
     7
370
    25
100
AcDbLine
 10
358.4631445263
 20
70.1503683004
 30
0.0
 11
358.4631445263
 21
84.1503683004
 31
0.0
  0
LINE
  5
5D4
330
1F
100
AcDbEntity
  8
0
  6
Continuous
 62
     7
370
    25
100
AcDbLine
 10
358.4631445263
 20
84.1503683004
 30
0.0
 11
344.4631445263
 21
84.1503683004
 31
0.0
  0
LINE
  5
5D5
330
1F
100
AcDbEntity
  8
0
  6
Continuous
 62
     7
370
    25
100
AcDbLine
 10
344.4631445263
 20
84.1503683004
 30
0.0
 11
344.4631445263
 21
70.1503683004
 31
0.0
  0
LINE
  5
5D6
330
1F
100
AcDbEntity
  8
0
  6
Continuous
 62
     7
370
    25
100
AcDbLine
 10
306.3633223266
 20
51.1000761998
 30
0.0
 11
320.3633223266
 21
51.1000761998
 31
0.0
  0
LINE
  5
5D7
330
1F
100
AcDbEntity
  8
0
  6
Continuous
 62
     7
370
    25
100
AcDbLine
 10
320.3633223266
 20
51.1000761998
 30
0.0
 11
320.3633223266
 21
65.1000761998
 31
0.0
  0
LINE
  5
5D8
330
1F
100
AcDbEntity
  8
0
  6
Continuous
 62
     7
370
    25
100
AcDbLine
 10
320.3633223266
 20
65.1000761998
 30
0.0
 11
306.3633223266
 21
65.1000761998
 31
0.0
  0
LINE
  5
5D9
330
1F
100
AcDbEntity
  8
0
  6
Continuous
 62
     7
370
    25
100
AcDbLine
 10
306.3633223266
 20
65.1000761998
 30
0.0
 11
306.3633223266
 21
51.1000761998
 31
0.0
  0
LINE
  5
5DA
330
1F
100
AcDbEntity
  8
0
  6
Continuous
 62
     7
370
    25
100
AcDbLine
 10
325.4131064262
 20
51.1000761998
 30
0.0
 11
339.4131064262
 21
51.1000761998
 31
0.0
  0
LINE
  5
5DB
330
1F
100
AcDbEntity
  8
0
  6
Continuous
 62
     7
370
    25
100
AcDbLine
 10
339.4131064262
 20
51.1000761998
 30
0.0
 11
339.4131064262
 21
65.1000761998
 31
0.0
  0
LINE
  5
5DC
330
1F
100
AcDbEntity
  8
0
  6
Continuous
 62
     7
370
    25
100
AcDbLine
 10
339.4131064262
 20
65.1000761998
 30
0.0
 11
325.4131064262
 21
65.1000761998
 31
0.0
  0
LINE
  5
5DD
330
1F
100
AcDbEntity
  8
0
  6
Continuous
 62
     7
370
    25
100
AcDbLine
 10
325.4131064262
 20
65.1000761998
 30
0.0
 11
325.4131064262
 21
51.1000761998
 31
0.0
  0
LINE
  5
5DE
330
1F
100
AcDbEntity
  8
0
  6
Continuous
 62
     7
370
    25
100
AcDbLine
 10
344.4631445263
 20
51.1000761998
 30
0.0
 11
358.4631445263
 21
51.1000761998
 31
0.0
  0
LINE
  5
5DF
330
1F
100
AcDbEntity
  8
0
  6
Continuous
 62
     7
370
    25
100
AcDbLine
 10
358.4631445263
 20
51.1000761998
 30
0.0
 11
358.4631445263
 21
65.1000761998
 31
0.0
  0
LINE
  5
5E0
330
1F
100
AcDbEntity
  8
0
  6
Continuous
 62
     7
370
    25
100
AcDbLine
 10
358.4631445263
 20
65.1000761998
 30
0.0
 11
344.4631445263
 21
65.1000761998
 31
0.0
  0
LINE
  5
5E1
330
1F
100
AcDbEntity
  8
0
  6
Continuous
 62
     7
370
    25
100
AcDbLine
 10
344.4631445263
 20
65.1000761998
 30
0.0
 11
344.4631445263
 21
51.1000761998
 31
0.0
  0
LINE
  5
5E2
330
1F
100
AcDbEntity
  8
0
  6
Continuous
 62
     7
370
    25
100
AcDbLine
 10
306.3630683261
 20
32.0502921003
 30
0.0
 11
320.3630683261
 21
32.0502921003
 31
0.0
  0
LINE
  5
5E3
330
1F
100
AcDbEntity
  8
0
  6
Continuous
 62
     7
370
    25
100
AcDbLine
 10
320.3630683261
 20
32.0502921003
 30
0.0
 11
320.3630683261
 21
46.0502921003
 31
0.0
  0
LINE
  5
5E4
330
1F
100
AcDbEntity
  8
0
  6
Continuous
 62
     7
370
    25
100
AcDbLine
 10
320.3630683261
 20
46.0502921003
 30
0.0
 11
306.3630683261
 21
46.0502921003
 31
0.0
  0
LINE
  5
5E5
330
1F
100
AcDbEntity
  8
0
  6
Continuous
 62
     7
370
    25
100
AcDbLine
 10
306.3630683261
 20
46.0502921003
 30
0.0
 11
306.3630683261
 21
32.0502921003
 31
0.0
  0
LINE
  5
5E6
330
1F
100
AcDbEntity
  8
0
  6
Continuous
 62
     7
370
    25
100
AcDbLine
 10
325.4131064262
 20
32.0502921003
 30
0.0
 11
339.4131064262
 21
32.0502921003
 31
0.0
  0
LINE
  5
5E7
330
1F
100
AcDbEntity
  8
0
  6
Continuous
 62
     7
370
    25
100
AcDbLine
 10
339.4131064262
 20
32.0502921003
 30
0.0
 11
339.4131064262
 21
46.0502921003
 31
0.0
  0
LINE
  5
5E8
330
1F
100
AcDbEntity
  8
0
  6
Continuous
 62
     7
370
    25
100
AcDbLine
 10
339.4131064262
 20
46.0502921003
 30
0.0
 11
325.4131064262
 21
46.0502921003
 31
0.0
  0
LINE
  5
5E9
330
1F
100
AcDbEntity
  8
0
  6
Continuous
 62
     7
370
    25
100
AcDbLine
 10
325.4131064262
 20
46.0502921003
 30
0.0
 11
325.4131064262
 21
32.0502921003
 31
0.0
  0
LINE
  5
5EA
330
1F
100
AcDbEntity
  8
0
  6
Continuous
 62
     7
370
    25
100
AcDbLine
 10
344.4631445263
 20
32.0502921003
 30
0.0
 11
358.4631445263
 21
32.0502921003
 31
0.0
  0
LINE
  5
5EB
330
1F
100
AcDbEntity
  8
0
  6
Continuous
 62
     7
370
    25
100
AcDbLine
 10
358.4631445263
 20
32.0502921003
 30
0.0
 11
358.4631445263
 21
46.0502921003
 31
0.0
  0
LINE
  5
5EC
330
1F
100
AcDbEntity
  8
0
  6
Continuous
 62
     7
370
    25
100
AcDbLine
 10
358.4631445263
 20
46.0502921003
 30
0.0
 11
344.4631445263
 21
46.0502921003
 31
0.0
  0
LINE
  5
5ED
330
1F
100
AcDbEntity
  8
0
  6
Continuous
 62
     7
370
    25
100
AcDbLine
 10
344.4631445263
 20
46.0502921003
 30
0.0
 11
344.4631445263
 21
32.0502921003
 31
0.0
  0
LINE
  5
5EE
330
1F
100
AcDbEntity
  8
0
  6
Continuous
 62
     7
370
    25
100
AcDbLine
 10
344.4639065278
 20
13.0010160017
 30
0.0
 11
358.4639065278
 21
13.0010160017
 31
0.0
  0
LINE
  5
5EF
330
1F
100
AcDbEntity
  8
0
  6
Continuous
 62
     7
370
    25
100
AcDbLine
 10
358.4639065278
 20
13.0010160017
 30
0.0
 11
358.4639065278
 21
27.0010160017
 31
0.0
  0
LINE
  5
5F0
330
1F
100
AcDbEntity
  8
0
  6
Continuous
 62
     7
370
    25
100
AcDbLine
 10
358.4639065278
 20
27.0010160017
 30
0.0
 11
344.4639065278
 21
27.0010160017
 31
0.0
  0
LINE
  5
5F1
330
1F
100
AcDbEntity
  8
0
  6
Continuous
 62
     7
370
    25
100
AcDbLine
 10
344.4639065278
 20
27.0010160017
 30
0.0
 11
344.4639065278
 21
13.0010160017
 31
0.0
  0
LINE
  5
5F2
330
1F
100
AcDbEntity
  8
0
  6
Continuous
 62
     7
370
    25
100
AcDbLine
 10
325.4131064262
 20
13.0002540002
 30
0.0
 11
339.4131064262
 21
13.0002540002
 31
0.0
  0
LINE
  5
5F3
330
1F
100
AcDbEntity
  8
0
  6
Continuous
 62
     7
370
    25
100
AcDbLine
 10
339.4131064262
 20
13.0002540002
 30
0.0
 11
339.4131064262
 21
27.0002540002
 31
0.0
  0
LINE
  5
5F4
330
1F
100
AcDbEntity
  8
0
  6
Continuous
 62
     7
370
    25
100
AcDbLine
 10
339.4131064262
 20
27.0002540002
 30
0.0
 11
325.4131064262
 21
27.0002540002
 31
0.0
  0
LINE
  5
5F5
330
1F
100
AcDbEntity
  8
0
  6
Continuous
 62
     7
370
    25
100
AcDbLine
 10
325.4131064262
 20
27.0002540002
 30
0.0
 11
325.4131064262
 21
13.0002540002
 31
0.0
  0
LINE
  5
5F6
330
1F
100
AcDbEntity
  8
0
  6
Continuous
 62
     7
370
    25
100
AcDbLine
 10
306.3630683261
 20
13.0002540002
 30
0.0
 11
320.3630683261
 21
13.0002540002
 31
0.0
  0
LINE
  5
5F7
330
1F
100
AcDbEntity
  8
0
  6
Continuous
 62
     7
370
    25
100
AcDbLine
 10
320.3630683261
 20
13.0002540002
 30
0.0
 11
320.3630683261
 21
27.0002540002
 31
0.0
  0
LINE
  5
5F8
330
1F
100
AcDbEntity
  8
0
  6
Continuous
 62
     7
370
    25
100
AcDbLine
 10
320.3630683261
 20
27.0002540002
 30
0.0
 11
306.3630683261
 21
27.0002540002
 31
0.0
  0
LINE
  5
5F9
330
1F
100
AcDbEntity
  8
0
  6
Continuous
 62
     7
370
    25
100
AcDbLine
 10
306.3630683261
 20
27.0002540002
 30
0.0
 11
306.3630683261
 21
13.0002540002
 31
0.0
  0
LINE
  5
5FA
330
1F
100
AcDbEntity
  8
0
  6
Continuous
 62
     7
370
    25
100
AcDbLine
 10
267.5134366269
 20
51.1005842009
 30
0.0
 11
281.5134366269
 21
51.1005842009
 31
0.0
  0
LINE
  5
5FB
330
1F
100
AcDbEntity
  8
0
  6
Continuous
 62
     7
370
    25
100
AcDbLine
 10
281.5134366269
 20
51.1005842009
 30
0.0
 11
281.5134366269
 21
65.1005842009
 31
0.0
  0
LINE
  5
5FC
330
1F
100
AcDbEntity
  8
0
  6
Continuous
 62
     7
370
    25
100
AcDbLine
 10
281.5134366269
 20
65.1005842009
 30
0.0
 11
267.5134366269
 21
65.1005842009
 31
0.0
  0
LINE
  5
5FD
330
1F
100
AcDbEntity
  8
0
  6
Continuous
 62
     7
370
    25
100
AcDbLine
 10
267.5134366269
 20
65.1005842009
 30
0.0
 11
267.5134366269
 21
51.1005842009
 31
0.0
  0
LINE
  5
5FE
330
1F
100
AcDbEntity
  8
0
  6
Continuous
 62
     7
370
    25
100
AcDbLine
 10
230.6633794768
 20
63.6305842009
 30
0.0
 11
237.4133794768
 21
63.6305842009
 31
0.0
  0
LINE
  5
5FF
330
1F
100
AcDbEntity
  8
0
  6
Continuous
 62
     7
370
    25
100
AcDbLine
 10
230.6633794768
 20
60.4005842009
 30
0.0
 11
230.6633794768
 21
63.6305842009
 31
0.0
  0
LINE
  5
600
330
1F
100
AcDbEntity
  8
0
  6
Continuous
 62
     7
370
    25
100
AcDbLine
 10
229.8433794768
 20
60.4005842009
 30
0.0
 11
230.6633794768
 21
60.4005842009
 31
0.0
  0
LINE
  5
601
330
1F
100
AcDbEntity
  8
0
  6
Continuous
 62
     7
370
    25
100
AcDbLine
 10
229.8433794768
 20
57.6005842009
 30
0.0
 11
229.8433794768
 21
60.4005842009
 31
0.0
  0
LINE
  5
602
330
1F
100
AcDbEntity
  8
0
  6
Continuous
 62
     7
370
    25
100
AcDbLine
 10
230.6633794768
 20
57.6005842009
 30
0.0
 11
229.8433794768
 21
57.6005842009
 31
0.0
  0
LINE
  5
603
330
1F
100
AcDbEntity
  8
0
  6
Continuous
 62
     7
370
    25
100
AcDbLine
 10
230.6633794768
 20
51.3305842009
 30
0.0
 11
230.6633794768
 21
57.6005842009
 31
0.0
  0
LINE
  5
604
330
1F
100
AcDbEntity
  8
0
  6
Continuous
 62
     7
370
    25
100
AcDbLine
 10
232.3883794768
 20
51.3305842009
 30
0.0
 11
230.6633794768
 21
51.3305842009
 31
0.0
  0
LINE
  5
605
330
1F
100
AcDbEntity
  8
0
  6
Continuous
 62
     7
370
    25
100
AcDbLine
 10
232.3883794768
 20
50.1305842009
 30
0.0
 11
232.3883794768
 21
51.3305842009
 31
0.0
  0
LINE
  5
606
330
1F
100
AcDbEntity
  8
0
  6
Continuous
 62
     7
370
    25
100
AcDbLine
 10
235.6883794768
 20
50.1305842009
 30
0.0
 11
232.3883794768
 21
50.1305842009
 31
0.0
  0
LINE
  5
607
330
1F
100
AcDbEntity
  8
0
  6
Continuous
 62
     7
370
    25
100
AcDbLine
 10
235.6883794768
 20
51.3305842009
 30
0.0
 11
235.6883794768
 21
50.1305842009
 31
0.0
  0
LINE
  5
608
330
1F
100
AcDbEntity
  8
0
  6
Continuous
 62
     7
370
    25
100
AcDbLine
 10
237.4133794768
 20
51.3305842009
 30
0.0
 11
235.6883794768
 21
51.3305842009
 31
0.0
  0
LINE
  5
609
330
1F
100
AcDbEntity
  8
0
  6
Continuous
 62
     7
370
    25
100
AcDbLine
 10
237.4133794768
 20
55.8005842009
 30
0.0
 11
237.4133794768
 21
51.3305842009
 31
0.0
  0
LINE
  5
60A
330
1F
100
AcDbEntity
  8
0
  6
Continuous
 62
     7
370
    25
100
AcDbLine
 10
238.9383794768
 20
55.8005842009
 30
0.0
 11
237.4133794768
 21
55.8005842009
 31
0.0
  0
LINE
  5
60B
330
1F
100
AcDbEntity
  8
0
  6
Continuous
 62
     7
370
    25
100
AcDbLine
 10
238.9383794768
 20
55.8005842009
 30
0.0
 11
238.9383794768
 21
51.1005842009
 31
0.0
  0
LINE
  5
60C
330
1F
100
AcDbEntity
  8
0
  6
Continuous
 62
     7
370
    25
100
AcDbLine
 10
238.9383794768
 20
51.1005842009
 30
0.0
 11
252.9383794768
 21
51.1005842009
 31
0.0
  0
LINE
  5
60D
330
1F
100
AcDbEntity
  8
0
  6
Continuous
 62
     7
370
    25
100
AcDbLine
 10
254.4633794768
 20
55.8005842009
 30
0.0
 11
252.9383794768
 21
55.8005842009
 31
0.0
  0
LINE
  5
60E
330
1F
100
AcDbEntity
  8
0
  6
Continuous
 62
     7
370
    25
100
AcDbLine
 10
254.4633794768
 20
51.3305842009
 30
0.0
 11
254.4633794768
 21
55.8005842009
 31
0.0
  0
LINE
  5
60F
330
1F
100
AcDbEntity
  8
0
  6
Continuous
 62
     7
370
    25
100
AcDbLine
 10
256.1883794768
 20
51.3305842009
 30
0.0
 11
254.4633794768
 21
51.3305842009
 31
0.0
  0
LINE
  5
610
330
1F
100
AcDbEntity
  8
0
  6
Continuous
 62
     7
370
    25
100
AcDbLine
 10
256.1883794768
 20
50.1305842009
 30
0.0
 11
256.1883794768
 21
51.3305842009
 31
0.0
  0
LINE
  5
611
330
1F
100
AcDbEntity
  8
0
  6
Continuous
 62
     7
370
    25
100
AcDbLine
 10
259.4883794768
 20
50.1305842009
 30
0.0
 11
256.1883794768
 21
50.1305842009
 31
0.0
  0
LINE
  5
612
330
1F
100
AcDbEntity
  8
0
  6
Continuous
 62
     7
370
    25
100
AcDbLine
 10
259.4883794768
 20
51.3305842009
 30
0.0
 11
259.4883794768
 21
50.1305842009
 31
0.0
  0
LINE
  5
613
330
1F
100
AcDbEntity
  8
0
  6
Continuous
 62
     7
370
    25
100
AcDbLine
 10
261.2133794768
 20
51.3305842009
 30
0.0
 11
259.4883794768
 21
51.3305842009
 31
0.0
  0
LINE
  5
614
330
1F
100
AcDbEntity
  8
0
  6
Continuous
 62
     7
370
    25
100
AcDbLine
 10
261.2133794768
 20
57.6005842009
 30
0.0
 11
261.2133794768
 21
51.3305842009
 31
0.0
  0
LINE
  5
615
330
1F
100
AcDbEntity
  8
0
  6
Continuous
 62
     7
370
    25
100
AcDbLine
 10
262.0333794768
 20
57.6005842009
 30
0.0
 11
261.2133794768
 21
57.6005842009
 31
0.0
  0
LINE
  5
616
330
1F
100
AcDbEntity
  8
0
  6
Continuous
 62
     7
370
    25
100
AcDbLine
 10
262.0333794768
 20
60.4005842009
 30
0.0
 11
262.0333794768
 21
57.6005842009
 31
0.0
  0
LINE
  5
617
330
1F
100
AcDbEntity
  8
0
  6
Continuous
 62
     7
370
    25
100
AcDbLine
 10
261.2133794768
 20
60.4005842009
 30
0.0
 11
262.0333794768
 21
60.4005842009
 31
0.0
  0
LINE
  5
618
330
1F
100
AcDbEntity
  8
0
  6
Continuous
 62
     7
370
    25
100
AcDbLine
 10
261.2133794768
 20
63.6305842009
 30
0.0
 11
261.2133794768
 21
60.4005842009
 31
0.0
  0
LINE
  5
619
330
1F
100
AcDbEntity
  8
0
  6
Continuous
 62
     7
370
    25
100
AcDbLine
 10
254.4633794768
 20
63.6305842009
 30
0.0
 11
261.2133794768
 21
63.6305842009
 31
0.0
  0
LINE
  5
61A
330
1F
100
AcDbEntity
  8
0
  6
Continuous
 62
     7
370
    25
100
AcDbLine
 10
254.4633794768
 20
60.4005842009
 30
0.0
 11
254.4633794768
 21
63.6305842009
 31
0.0
  0
LINE
  5
61B
330
1F
100
AcDbEntity
  8
0
  6
Continuous
 62
     7
370
    25
100
AcDbLine
 10
252.9383794768
 20
60.4005842009
 30
0.0
 11
254.4633794768
 21
60.4005842009
 31
0.0
  0
LINE
  5
61C
330
1F
100
AcDbEntity
  8
0
  6
Continuous
 62
     7
370
    25
100
AcDbLine
 10
252.9383794768
 20
60.4005842009
 30
0.0
 11
252.9383794768
 21
65.1005842009
 31
0.0
  0
LINE
  5
61D
330
1F
100
AcDbEntity
  8
0
  6
Continuous
 62
     7
370
    25
100
AcDbLine
 10
252.9383794768
 20
65.1005842009
 30
0.0
 11
238.9383794768
 21
65.1005842009
 31
0.0
  0
LINE
  5
61E
330
1F
100
AcDbEntity
  8
0
  6
Continuous
 62
     7
370
    25
100
AcDbLine
 10
237.4133794768
 20
60.4005842009
 30
0.0
 11
238.9383794768
 21
60.4005842009
 31
0.0
  0
LINE
  5
61F
330
1F
100
AcDbEntity
  8
0
  6
Continuous
 62
     7
370
    25
100
AcDbLine
 10
237.4133794768
 20
63.6305842009
 30
0.0
 11
237.4133794768
 21
60.4005842009
 31
0.0
  0
LINE
  5
620
330
1F
100
AcDbEntity
  8
0
  6
Continuous
 62
     7
370
    25
100
AcDbLine
 10
243.7001270003
 20
32.0502921003
 30
0.0
 11
257.7001270003
 21
32.0502921003
 31
0.0
  0
LINE
  5
621
330
1F
100
AcDbEntity
  8
0
  6
Continuous
 62
     7
370
    25
100
AcDbLine
 10
257.7001270003
 20
32.0502921003
 30
0.0
 11
257.7001270003
 21
46.0502921003
 31
0.0
  0
LINE
  5
622
330
1F
100
AcDbEntity
  8
0
  6
Continuous
 62
     7
370
    25
100
AcDbLine
 10
257.7001270003
 20
46.0502921003
 30
0.0
 11
243.7001270003
 21
46.0502921003
 31
0.0
  0
LINE
  5
623
330
1F
100
AcDbEntity
  8
0
  6
Continuous
 62
     7
370
    25
100
AcDbLine
 10
243.7001270003
 20
46.0502921003
 30
0.0
 11
243.7001270003
 21
32.0502921003
 31
0.0
  0
LINE
  5
624
330
1F
100
AcDbEntity
  8
0
  6
Continuous
 62
     7
370
    25
100
AcDbLine
 10
386.4738125476
 20
84.2009144015
 30
0.0
 11
400.4738125476
 21
84.2009144015
 31
0.0
  0
LINE
  5
625
330
1F
100
AcDbEntity
  8
0
  6
Continuous
 62
     7
370
    25
100
AcDbLine
 10
400.4738125476
 20
84.2009144015
 30
0.0
 11
400.4738125476
 21
98.2009144015
 31
0.0
  0
LINE
  5
626
330
1F
100
AcDbEntity
  8
0
  6
Continuous
 62
     7
370
    25
100
AcDbLine
 10
400.4738125476
 20
98.2009144015
 30
0.0
 11
386.4738125476
 21
98.2009144015
 31
0.0
  0
LINE
  5
627
330
1F
100
AcDbEntity
  8
0
  6
Continuous
 62
     7
370
    25
100
AcDbLine
 10
386.4738125476
 20
98.2009144015
 30
0.0
 11
386.4738125476
 21
84.2009144015
 31
0.0
  0
LINE
  5
628
330
1F
100
AcDbEntity
  8
0
  6
Continuous
 62
     7
370
    25
100
AcDbLine
 10
219.8880873762
 20
32.0502921003
 30
0.0
 11
233.8880873762
 21
32.0502921003
 31
0.0
  0
LINE
  5
629
330
1F
100
AcDbEntity
  8
0
  6
Continuous
 62
     7
370
    25
100
AcDbLine
 10
233.8880873762
 20
32.0502921003
 30
0.0
 11
233.8880873762
 21
46.0502921003
 31
0.0
  0
LINE
  5
62A
330
1F
100
AcDbEntity
  8
0
  6
Continuous
 62
     7
370
    25
100
AcDbLine
 10
233.8880873762
 20
46.0502921003
 30
0.0
 11
219.8880873762
 21
46.0502921003
 31
0.0
  0
LINE
  5
62B
330
1F
100
AcDbEntity
  8
0
  6
Continuous
 62
     7
370
    25
100
AcDbLine
 10
219.8880873762
 20
46.0502921003
 30
0.0
 11
219.8880873762
 21
32.0502921003
 31
0.0
  0
LINE
  5
62C
330
1F
100
AcDbEntity
  8
0
  6
Continuous
 62
     7
370
    25
100
AcDbLine
 10
210.3630683261
 20
51.1000761998
 30
0.0
 11
224.3630683261
 21
51.1000761998
 31
0.0
  0
LINE
  5
62D
330
1F
100
AcDbEntity
  8
0
  6
Continuous
 62
     7
370
    25
100
AcDbLine
 10
224.3630683261
 20
51.1000761998
 30
0.0
 11
224.3630683261
 21
65.1000761998
 31
0.0
  0
LINE
  5
62E
330
1F
100
AcDbEntity
  8
0
  6
Continuous
 62
     7
370
    25
100
AcDbLine
 10
224.3630683261
 20
65.1000761998
 30
0.0
 11
210.3630683261
 21
65.1000761998
 31
0.0
  0
LINE
  5
62F
330
1F
100
AcDbEntity
  8
0
  6
Continuous
 62
     7
370
    25
100
AcDbLine
 10
210.3630683261
 20
65.1000761998
 30
0.0
 11
210.3630683261
 21
51.1000761998
 31
0.0
  0
LINE
  5
630
330
1F
100
AcDbEntity
  8
0
  6
Continuous
 62
     7
370
    25
100
AcDbLine
 10
219.8880873762
 20
13.0002540002
 30
0.0
 11
233.8880873762
 21
13.0002540002
 31
0.0
  0
LINE
  5
631
330
1F
100
AcDbEntity
  8
0
  6
Continuous
 62
     7
370
    25
100
AcDbLine
 10
233.8880873762
 20
13.0002540002
 30
0.0
 11
233.8880873762
 21
27.0002540002
 31
0.0
  0
LINE
  5
632
330
1F
100
AcDbEntity
  8
0
  6
Continuous
 62
     7
370
    25
100
AcDbLine
 10
233.8880873762
 20
27.0002540002
 30
0.0
 11
219.8880873762
 21
27.0002540002
 31
0.0
  0
LINE
  5
633
330
1F
100
AcDbEntity
  8
0
  6
Continuous
 62
     7
370
    25
100
AcDbLine
 10
219.8880873762
 20
27.0002540002
 30
0.0
 11
219.8880873762
 21
13.0002540002
 31
0.0
  0
LINE
  5
634
330
1F
100
AcDbEntity
  8
0
  6
Continuous
 62
     7
370
    25
100
AcDbLine
 10
200.8383032766
 20
12.9999999997
 30
0.0
 11
214.8383032766
 21
12.9999999997
 31
0.0
  0
LINE
  5
635
330
1F
100
AcDbEntity
  8
0
  6
Continuous
 62
     7
370
    25
100
AcDbLine
 10
214.8383032766
 20
12.9999999997
 30
0.0
 11
214.8383032766
 21
26.9999999997
 31
0.0
  0
LINE
  5
636
330
1F
100
AcDbEntity
  8
0
  6
Continuous
 62
     7
370
    25
100
AcDbLine
 10
214.8383032766
 20
26.9999999997
 30
0.0
 11
200.8383032766
 21
26.9999999997
 31
0.0
  0
LINE
  5
637
330
1F
100
AcDbEntity
  8
0
  6
Continuous
 62
     7
370
    25
100
AcDbLine
 10
200.8383032766
 20
26.9999999997
 30
0.0
 11
200.8383032766
 21
12.9999999997
 31
0.0
  0
LINE
  5
638
330
1F
100
AcDbEntity
  8
0
  6
Continuous
 62
     7
370
    25
100
AcDbLine
 10
200.8380492761
 20
32.0502921003
 30
0.0
 11
214.8380492761
 21
32.0502921003
 31
0.0
  0
LINE
  5
639
330
1F
100
AcDbEntity
  8
0
  6
Continuous
 62
     7
370
    25
100
AcDbLine
 10
214.8380492761
 20
32.0502921003
 30
0.0
 11
214.8380492761
 21
46.0502921003
 31
0.0
  0
LINE
  5
63A
330
1F
100
AcDbEntity
  8
0
  6
Continuous
 62
     7
370
    25
100
AcDbLine
 10
214.8380492761
 20
46.0502921003
 30
0.0
 11
200.8380492761
 21
46.0502921003
 31
0.0
  0
LINE
  5
63B
330
1F
100
AcDbEntity
  8
0
  6
Continuous
 62
     7
370
    25
100
AcDbLine
 10
200.8380492761
 20
46.0502921003
 30
0.0
 11
200.8380492761
 21
32.0502921003
 31
0.0
  0
LINE
  5
63C
330
1F
100
AcDbEntity
  8
0
  6
Continuous
 62
     7
370
    25
100
AcDbLine
 10
181.788011176
 20
32.0502921003
 30
0.0
 11
195.788011176
 21
32.0502921003
 31
0.0
  0
LINE
  5
63D
330
1F
100
AcDbEntity
  8
0
  6
Continuous
 62
     7
370
    25
100
AcDbLine
 10
195.788011176
 20
32.0502921003
 30
0.0
 11
195.788011176
 21
46.0502921003
 31
0.0
  0
LINE
  5
63E
330
1F
100
AcDbEntity
  8
0
  6
Continuous
 62
     7
370
    25
100
AcDbLine
 10
195.788011176
 20
46.0502921003
 30
0.0
 11
181.788011176
 21
46.0502921003
 31
0.0
  0
LINE
  5
63F
330
1F
100
AcDbEntity
  8
0
  6
Continuous
 62
     7
370
    25
100
AcDbLine
 10
181.788011176
 20
46.0502921003
 30
0.0
 11
181.788011176
 21
32.0502921003
 31
0.0
  0
LINE
  5
640
330
1F
100
AcDbEntity
  8
0
  6
Continuous
 62
     7
370
    25
100
AcDbLine
 10
191.3130302261
 20
51.1003302004
 30
0.0
 11
205.3130302261
 21
51.1003302004
 31
0.0
  0
LINE
  5
641
330
1F
100
AcDbEntity
  8
0
  6
Continuous
 62
     7
370
    25
100
AcDbLine
 10
205.3130302261
 20
51.1003302004
 30
0.0
 11
205.3130302261
 21
65.1003302004
 31
0.0
  0
LINE
  5
642
330
1F
100
AcDbEntity
  8
0
  6
Continuous
 62
     7
370
    25
100
AcDbLine
 10
205.3130302261
 20
65.1003302004
 30
0.0
 11
191.3130302261
 21
65.1003302004
 31
0.0
  0
LINE
  5
643
330
1F
100
AcDbEntity
  8
0
  6
Continuous
 62
     7
370
    25
100
AcDbLine
 10
191.3130302261
 20
65.1003302004
 30
0.0
 11
191.3130302261
 21
51.1003302004
 31
0.0
  0
LINE
  5
644
330
1F
100
AcDbEntity
  8
0
  6
Continuous
 62
     7
370
    25
100
AcDbLine
 10
186.5500127
 20
70.1503683004
 30
0.0
 11
200.5500127
 21
70.1503683004
 31
0.0
  0
LINE
  5
645
330
1F
100
AcDbEntity
  8
0
  6
Continuous
 62
     7
370
    25
100
AcDbLine
 10
200.5500127
 20
70.1503683004
 30
0.0
 11
200.5500127
 21
84.1503683004
 31
0.0
  0
LINE
  5
646
330
1F
100
AcDbEntity
  8
0
  6
Continuous
 62
     7
370
    25
100
AcDbLine
 10
200.5500127
 20
84.1503683004
 30
0.0
 11
186.5500127
 21
84.1503683004
 31
0.0
  0
LINE
  5
647
330
1F
100
AcDbEntity
  8
0
  6
Continuous
 62
     7
370
    25
100
AcDbLine
 10
186.5500127
 20
84.1503683004
 30
0.0
 11
186.5500127
 21
70.1503683004
 31
0.0
  0
LINE
  5
648
330
1F
100
AcDbEntity
  8
0
  6
Continuous
 62
     7
370
    25
100
AcDbLine
 10
167.4999745999
 20
70.1503683004
 30
0.0
 11
181.4999745999
 21
70.1503683004
 31
0.0
  0
LINE
  5
649
330
1F
100
AcDbEntity
  8
0
  6
Continuous
 62
     7
370
    25
100
AcDbLine
 10
181.4999745999
 20
70.1503683004
 30
0.0
 11
181.4999745999
 21
84.1503683004
 31
0.0
  0
LINE
  5
64A
330
1F
100
AcDbEntity
  8
0
  6
Continuous
 62
     7
370
    25
100
AcDbLine
 10
181.4999745999
 20
84.1503683004
 30
0.0
 11
167.4999745999
 21
84.1503683004
 31
0.0
  0
LINE
  5
64B
330
1F
100
AcDbEntity
  8
0
  6
Continuous
 62
     7
370
    25
100
AcDbLine
 10
167.4999745999
 20
84.1503683004
 30
0.0
 11
167.4999745999
 21
70.1503683004
 31
0.0
  0
LINE
  5
64C
330
1F
100
AcDbEntity
  8
0
  6
Continuous
 62
     7
370
    25
100
AcDbLine
 10
172.262992126
 20
51.1003302004
 30
0.0
 11
186.262992126
 21
51.1003302004
 31
0.0
  0
LINE
  5
64D
330
1F
100
AcDbEntity
  8
0
  6
Continuous
 62
     7
370
    25
100
AcDbLine
 10
186.262992126
 20
51.1003302004
 30
0.0
 11
186.262992126
 21
65.1003302004
 31
0.0
  0
LINE
  5
64E
330
1F
100
AcDbEntity
  8
0
  6
Continuous
 62
     7
370
    25
100
AcDbLine
 10
186.262992126
 20
65.1003302004
 30
0.0
 11
172.262992126
 21
65.1003302004
 31
0.0
  0
LINE
  5
64F
330
1F
100
AcDbEntity
  8
0
  6
Continuous
 62
     7
370
    25
100
AcDbLine
 10
172.262992126
 20
65.1003302004
 30
0.0
 11
172.262992126
 21
51.1003302004
 31
0.0
  0
LINE
  5
650
330
1F
100
AcDbEntity
  8
0
  6
Continuous
 62
     7
370
    25
100
AcDbLine
 10
148.4499364999
 20
70.1503683004
 30
0.0
 11
162.4499364999
 21
70.1503683004
 31
0.0
  0
LINE
  5
651
330
1F
100
AcDbEntity
  8
0
  6
Continuous
 62
     7
370
    25
100
AcDbLine
 10
162.4499364999
 20
70.1503683004
 30
0.0
 11
162.4499364999
 21
84.1503683004
 31
0.0
  0
LINE
  5
652
330
1F
100
AcDbEntity
  8
0
  6
Continuous
 62
     7
370
    25
100
AcDbLine
 10
162.4499364999
 20
84.1503683004
 30
0.0
 11
148.4499364999
 21
84.1503683004
 31
0.0
  0
LINE
  5
653
330
1F
100
AcDbEntity
  8
0
  6
Continuous
 62
     7
370
    25
100
AcDbLine
 10
148.4499364999
 20
84.1503683004
 30
0.0
 11
148.4499364999
 21
70.1503683004
 31
0.0
  0
LINE
  5
654
330
1F
100
AcDbEntity
  8
0
  6
Continuous
 62
     7
370
    25
100
AcDbLine
 10
153.2129540259
 20
51.1003302004
 30
0.0
 11
167.2129540259
 21
51.1003302004
 31
0.0
  0
LINE
  5
655
330
1F
100
AcDbEntity
  8
0
  6
Continuous
 62
     7
370
    25
100
AcDbLine
 10
167.2129540259
 20
51.1003302004
 30
0.0
 11
167.2129540259
 21
65.1003302004
 31
0.0
  0
LINE
  5
656
330
1F
100
AcDbEntity
  8
0
  6
Continuous
 62
     7
370
    25
100
AcDbLine
 10
167.2129540259
 20
65.1003302004
 30
0.0
 11
153.2129540259
 21
65.1003302004
 31
0.0
  0
LINE
  5
657
330
1F
100
AcDbEntity
  8
0
  6
Continuous
 62
     7
370
    25
100
AcDbLine
 10
153.2129540259
 20
65.1003302004
 30
0.0
 11
153.2129540259
 21
51.1003302004
 31
0.0
  0
LINE
  5
658
330
1F
100
AcDbEntity
  8
0
  6
Continuous
 62
     7
370
    25
100
AcDbLine
 10
162.7379730759
 20
32.0502921003
 30
0.0
 11
176.7379730759
 21
32.0502921003
 31
0.0
  0
LINE
  5
659
330
1F
100
AcDbEntity
  8
0
  6
Continuous
 62
     7
370
    25
100
AcDbLine
 10
176.7379730759
 20
32.0502921003
 30
0.0
 11
176.7379730759
 21
46.0502921003
 31
0.0
  0
LINE
  5
65A
330
1F
100
AcDbEntity
  8
0
  6
Continuous
 62
     7
370
    25
100
AcDbLine
 10
176.7379730759
 20
46.0502921003
 30
0.0
 11
162.7379730759
 21
46.0502921003
 31
0.0
  0
LINE
  5
65B
330
1F
100
AcDbEntity
  8
0
  6
Continuous
 62
     7
370
    25
100
AcDbLine
 10
162.7379730759
 20
46.0502921003
 30
0.0
 11
162.7379730759
 21
32.0502921003
 31
0.0
  0
LINE
  5
65C
330
1F
100
AcDbEntity
  8
0
  6
Continuous
 62
     7
370
    25
100
AcDbLine
 10
15.0999237998
 20
70.1503683004
 30
0.0
 11
29.0999237998
 21
70.1503683004
 31
0.0
  0
LINE
  5
65D
330
1F
100
AcDbEntity
  8
0
  6
Continuous
 62
     7
370
    25
100
AcDbLine
 10
29.0999237998
 20
70.1503683004
 30
0.0
 11
29.0999237998
 21
84.1503683004
 31
0.0
  0
LINE
  5
65E
330
1F
100
AcDbEntity
  8
0
  6
Continuous
 62
     7
370
    25
100
AcDbLine
 10
29.0999237998
 20
84.1503683004
 30
0.0
 11
15.0999237998
 21
84.1503683004
 31
0.0
  0
LINE
  5
65F
330
1F
100
AcDbEntity
  8
0
  6
Continuous
 62
     7
370
    25
100
AcDbLine
 10
15.0999237998
 20
84.1503683004
 30
0.0
 11
15.0999237998
 21
70.1503683004
 31
0.0
  0
LINE
  5
660
330
1F
100
AcDbEntity
  8
0
  6
Continuous
 62
     7
370
    25
100
AcDbLine
 10
34.1499618999
 20
70.1503683004
 30
0.0
 11
48.1499618999
 21
70.1503683004
 31
0.0
  0
LINE
  5
661
330
1F
100
AcDbEntity
  8
0
  6
Continuous
 62
     7
370
    25
100
AcDbLine
 10
48.1499618999
 20
70.1503683004
 30
0.0
 11
48.1499618999
 21
84.1503683004
 31
0.0
  0
LINE
  5
662
330
1F
100
AcDbEntity
  8
0
  6
Continuous
 62
     7
370
    25
100
AcDbLine
 10
48.1499618999
 20
84.1503683004
 30
0.0
 11
34.1499618999
 21
84.1503683004
 31
0.0
  0
LINE
  5
663
330
1F
100
AcDbEntity
  8
0
  6
Continuous
 62
     7
370
    25
100
AcDbLine
 10
34.1499618999
 20
84.1503683004
 30
0.0
 11
34.1499618999
 21
70.1503683004
 31
0.0
  0
LINE
  5
664
330
1F
100
AcDbEntity
  8
0
  6
Continuous
 62
     7
370
    25
100
AcDbLine
 10
53.2
 20
70.1503683004
 30
0.0
 11
67.2
 21
70.1503683004
 31
0.0
  0
LINE
  5
665
330
1F
100
AcDbEntity
  8
0
  6
Continuous
 62
     7
370
    25
100
AcDbLine
 10
67.2
 20
70.1503683004
 30
0.0
 11
67.2
 21
84.1503683004
 31
0.0
  0
LINE
  5
666
330
1F
100
AcDbEntity
  8
0
  6
Continuous
 62
     7
370
    25
100
AcDbLine
 10
67.2
 20
84.1503683004
 30
0.0
 11
53.2
 21
84.1503683004
 31
0.0
  0
LINE
  5
667
330
1F
100
AcDbEntity
  8
0
  6
Continuous
 62
     7
370
    25
100
AcDbLine
 10
53.2
 20
84.1503683004
 30
0.0
 11
53.2
 21
70.1503683004
 31
0.0
  0
LINE
  5
668
330
1F
100
AcDbEntity
  8
0
  6
Continuous
 62
     7
370
    25
100
AcDbLine
 10
72.2500381001
 20
70.1503683004
 30
0.0
 11
86.2500381001
 21
70.1503683004
 31
0.0
  0
LINE
  5
669
330
1F
100
AcDbEntity
  8
0
  6
Continuous
 62
     7
370
    25
100
AcDbLine
 10
86.2500381001
 20
70.1503683004
 30
0.0
 11
86.2500381001
 21
84.1503683004
 31
0.0
  0
LINE
  5
66A
330
1F
100
AcDbEntity
  8
0
  6
Continuous
 62
     7
370
    25
100
AcDbLine
 10
86.2500381001
 20
84.1503683004
 30
0.0
 11
72.2500381001
 21
84.1503683004
 31
0.0
  0
LINE
  5
66B
330
1F
100
AcDbEntity
  8
0
  6
Continuous
 62
     7
370
    25
100
AcDbLine
 10
72.2500381001
 20
84.1503683004
 30
0.0
 11
72.2500381001
 21
70.1503683004
 31
0.0
  0
LINE
  5
66C
330
1F
100
AcDbEntity
  8
0
  6
Continuous
 62
     7
370
    25
100
AcDbLine
 10
91.3000762002
 20
70.1503683004
 30
0.0
 11
105.3000762002
 21
70.1503683004
 31
0.0
  0
LINE
  5
66D
330
1F
100
AcDbEntity
  8
0
  6
Continuous
 62
     7
370
    25
100
AcDbLine
 10
105.3000762002
 20
70.1503683004
 30
0.0
 11
105.3000762002
 21
84.1503683004
 31
0.0
  0
LINE
  5
66E
330
1F
100
AcDbEntity
  8
0
  6
Continuous
 62
     7
370
    25
100
AcDbLine
 10
105.3000762002
 20
84.1503683004
 30
0.0
 11
91.3000762002
 21
84.1503683004
 31
0.0
  0
LINE
  5
66F
330
1F
100
AcDbEntity
  8
0
  6
Continuous
 62
     7
370
    25
100
AcDbLine
 10
91.3000762002
 20
84.1503683004
 30
0.0
 11
91.3000762002
 21
70.1503683004
 31
0.0
  0
LINE
  5
670
330
1F
100
AcDbEntity
  8
0
  6
Continuous
 62
     7
370
    25
100
AcDbLine
 10
110.3501143002
 20
70.1503683004
 30
0.0
 11
124.3501143002
 21
70.1503683004
 31
0.0
  0
LINE
  5
671
330
1F
100
AcDbEntity
  8
0
  6
Continuous
 62
     7
370
    25
100
AcDbLine
 10
124.3501143002
 20
70.1503683004
 30
0.0
 11
124.3501143002
 21
84.1503683004
 31
0.0
  0
LINE
  5
672
330
1F
100
AcDbEntity
  8
0
  6
Continuous
 62
     7
370
    25
100
AcDbLine
 10
124.3501143002
 20
84.1503683004
 30
0.0
 11
110.3501143002
 21
84.1503683004
 31
0.0
  0
LINE
  5
673
330
1F
100
AcDbEntity
  8
0
  6
Continuous
 62
     7
370
    25
100
AcDbLine
 10
110.3501143002
 20
84.1503683004
 30
0.0
 11
110.3501143002
 21
70.1503683004
 31
0.0
  0
LINE
  5
674
330
1F
100
AcDbEntity
  8
0
  6
Continuous
 62
     7
370
    25
100
AcDbLine
 10
129.3998983998
 20
70.1503683004
 30
0.0
 11
143.3998983998
 21
70.1503683004
 31
0.0
  0
LINE
  5
675
330
1F
100
AcDbEntity
  8
0
  6
Continuous
 62
     7
370
    25
100
AcDbLine
 10
143.3998983998
 20
70.1503683004
 30
0.0
 11
143.3998983998
 21
84.1503683004
 31
0.0
  0
LINE
  5
676
330
1F
100
AcDbEntity
  8
0
  6
Continuous
 62
     7
370
    25
100
AcDbLine
 10
143.3998983998
 20
84.1503683004
 30
0.0
 11
129.3998983998
 21
84.1503683004
 31
0.0
  0
LINE
  5
677
330
1F
100
AcDbEntity
  8
0
  6
Continuous
 62
     7
370
    25
100
AcDbLine
 10
129.3998983998
 20
84.1503683004
 30
0.0
 11
129.3998983998
 21
70.1503683004
 31
0.0
  0
LINE
  5
678
330
1F
100
AcDbEntity
  8
0
  6
Continuous
 62
     7
370
    25
100
AcDbLine
 10
134.1629159258
 20
51.1003302004
 30
0.0
 11
148.1629159258
 21
51.1003302004
 31
0.0
  0
LINE
  5
679
330
1F
100
AcDbEntity
  8
0
  6
Continuous
 62
     7
370
    25
100
AcDbLine
 10
148.1629159258
 20
51.1003302004
 30
0.0
 11
148.1629159258
 21
65.1003302004
 31
0.0
  0
LINE
  5
67A
330
1F
100
AcDbEntity
  8
0
  6
Continuous
 62
     7
370
    25
100
AcDbLine
 10
148.1629159258
 20
65.1003302004
 30
0.0
 11
134.1629159258
 21
65.1003302004
 31
0.0
  0
LINE
  5
67B
330
1F
100
AcDbEntity
  8
0
  6
Continuous
 62
     7
370
    25
100
AcDbLine
 10
134.1629159258
 20
65.1003302004
 30
0.0
 11
134.1629159258
 21
51.1003302004
 31
0.0
  0
LINE
  5
67C
330
1F
100
AcDbEntity
  8
0
  6
Continuous
 62
     7
370
    25
100
AcDbLine
 10
143.6879349759
 20
32.0502921003
 30
0.0
 11
157.6879349759
 21
32.0502921003
 31
0.0
  0
LINE
  5
67D
330
1F
100
AcDbEntity
  8
0
  6
Continuous
 62
     7
370
    25
100
AcDbLine
 10
157.6879349759
 20
32.0502921003
 30
0.0
 11
157.6879349759
 21
46.0502921003
 31
0.0
  0
LINE
  5
67E
330
1F
100
AcDbEntity
  8
0
  6
Continuous
 62
     7
370
    25
100
AcDbLine
 10
157.6879349759
 20
46.0502921003
 30
0.0
 11
143.6879349759
 21
46.0502921003
 31
0.0
  0
LINE
  5
67F
330
1F
100
AcDbEntity
  8
0
  6
Continuous
 62
     7
370
    25
100
AcDbLine
 10
143.6879349759
 20
46.0502921003
 30
0.0
 11
143.6879349759
 21
32.0502921003
 31
0.0
  0
LINE
  5
680
330
1F
100
AcDbEntity
  8
0
  6
Continuous
 62
     7
370
    25
100
AcDbLine
 10
115.1131318263
 20
51.1003302004
 30
0.0
 11
129.1131318263
 21
51.1003302004
 31
0.0
  0
LINE
  5
681
330
1F
100
AcDbEntity
  8
0
  6
Continuous
 62
     7
370
    25
100
AcDbLine
 10
129.1131318263
 20
51.1003302004
 30
0.0
 11
129.1131318263
 21
65.1003302004
 31
0.0
  0
LINE
  5
682
330
1F
100
AcDbEntity
  8
0
  6
Continuous
 62
     7
370
    25
100
AcDbLine
 10
129.1131318263
 20
65.1003302004
 30
0.0
 11
115.1131318263
 21
65.1003302004
 31
0.0
  0
LINE
  5
683
330
1F
100
AcDbEntity
  8
0
  6
Continuous
 62
     7
370
    25
100
AcDbLine
 10
115.1131318263
 20
65.1003302004
 30
0.0
 11
115.1131318263
 21
51.1003302004
 31
0.0
  0
LINE
  5
684
330
1F
100
AcDbEntity
  8
0
  6
Continuous
 62
     7
370
    25
100
AcDbLine
 10
96.0630937262
 20
51.1003302004
 30
0.0
 11
110.0630937262
 21
51.1003302004
 31
0.0
  0
LINE
  5
685
330
1F
100
AcDbEntity
  8
0
  6
Continuous
 62
     7
370
    25
100
AcDbLine
 10
110.0630937262
 20
51.1003302004
 30
0.0
 11
110.0630937262
 21
65.1003302004
 31
0.0
  0
LINE
  5
686
330
1F
100
AcDbEntity
  8
0
  6
Continuous
 62
     7
370
    25
100
AcDbLine
 10
110.0630937262
 20
65.1003302004
 30
0.0
 11
96.0630937262
 21
65.1003302004
 31
0.0
  0
LINE
  5
687
330
1F
100
AcDbEntity
  8
0
  6
Continuous
 62
     7
370
    25
100
AcDbLine
 10
96.0630937262
 20
65.1003302004
 30
0.0
 11
96.0630937262
 21
51.1003302004
 31
0.0
  0
LINE
  5
688
330
1F
100
AcDbEntity
  8
0
  6
Continuous
 62
     7
370
    25
100
AcDbLine
 10
77.0130556261
 20
51.1000761998
 30
0.0
 11
91.0130556261
 21
51.1000761998
 31
0.0
  0
LINE
  5
689
330
1F
100
AcDbEntity
  8
0
  6
Continuous
 62
     7
370
    25
100
AcDbLine
 10
91.0130556261
 20
51.1000761998
 30
0.0
 11
91.0130556261
 21
65.1000761998
 31
0.0
  0
LINE
  5
68A
330
1F
100
AcDbEntity
  8
0
  6
Continuous
 62
     7
370
    25
100
AcDbLine
 10
91.0130556261
 20
65.1000761998
 30
0.0
 11
77.0130556261
 21
65.1000761998
 31
0.0
  0
LINE
  5
68B
330
1F
100
AcDbEntity
  8
0
  6
Continuous
 62
     7
370
    25
100
AcDbLine
 10
77.0130556261
 20
65.1000761998
 30
0.0
 11
77.0130556261
 21
51.1000761998
 31
0.0
  0
LINE
  5
68C
330
1F
100
AcDbEntity
  8
0
  6
Continuous
 62
     7
370
    25
100
AcDbLine
 10
57.963017526
 20
51.1000761998
 30
0.0
 11
71.963017526
 21
51.1000761998
 31
0.0
  0
LINE
  5
68D
330
1F
100
AcDbEntity
  8
0
  6
Continuous
 62
     7
370
    25
100
AcDbLine
 10
71.963017526
 20
51.1000761998
 30
0.0
 11
71.963017526
 21
65.1000761998
 31
0.0
  0
LINE
  5
68E
330
1F
100
AcDbEntity
  8
0
  6
Continuous
 62
     7
370
    25
100
AcDbLine
 10
71.963017526
 20
65.1000761998
 30
0.0
 11
57.963017526
 21
65.1000761998
 31
0.0
  0
LINE
  5
68F
330
1F
100
AcDbEntity
  8
0
  6
Continuous
 62
     7
370
    25
100
AcDbLine
 10
57.963017526
 20
65.1000761998
 30
0.0
 11
57.963017526
 21
51.1000761998
 31
0.0
  0
LINE
  5
690
330
1F
100
AcDbEntity
  8
0
  6
Continuous
 62
     7
370
    25
100
AcDbLine
 10
38.912979426
 20
51.1000761998
 30
0.0
 11
52.912979426
 21
51.1000761998
 31
0.0
  0
LINE
  5
691
330
1F
100
AcDbEntity
  8
0
  6
Continuous
 62
     7
370
    25
100
AcDbLine
 10
52.912979426
 20
51.1000761998
 30
0.0
 11
52.912979426
 21
65.1000761998
 31
0.0
  0
LINE
  5
692
330
1F
100
AcDbEntity
  8
0
  6
Continuous
 62
     7
370
    25
100
AcDbLine
 10
52.912979426
 20
65.1000761998
 30
0.0
 11
38.912979426
 21
65.1000761998
 31
0.0
  0
LINE
  5
693
330
1F
100
AcDbEntity
  8
0
  6
Continuous
 62
     7
370
    25
100
AcDbLine
 10
38.912979426
 20
65.1000761998
 30
0.0
 11
38.912979426
 21
51.1000761998
 31
0.0
  0
LINE
  5
694
330
1F
100
AcDbEntity
  8
0
  6
Continuous
 62
     7
370
    25
100
AcDbLine
 10
19.8629413259
 20
51.1003302004
 30
0.0
 11
33.8629413259
 21
51.1003302004
 31
0.0
  0
LINE
  5
695
330
1F
100
AcDbEntity
  8
0
  6
Continuous
 62
     7
370
    25
100
AcDbLine
 10
33.8629413259
 20
51.1003302004
 30
0.0
 11
33.8629413259
 21
65.1003302004
 31
0.0
  0
LINE
  5
696
330
1F
100
AcDbEntity
  8
0
  6
Continuous
 62
     7
370
    25
100
AcDbLine
 10
33.8629413259
 20
65.1003302004
 30
0.0
 11
19.8629413259
 21
65.1003302004
 31
0.0
  0
LINE
  5
697
330
1F
100
AcDbEntity
  8
0
  6
Continuous
 62
     7
370
    25
100
AcDbLine
 10
19.8629413259
 20
65.1003302004
 30
0.0
 11
19.8629413259
 21
51.1003302004
 31
0.0
  0
LINE
  5
698
330
1F
100
AcDbEntity
  8
0
  6
Continuous
 62
     7
370
    25
100
AcDbLine
 10
24.6249428499
 20
32.0502921003
 30
0.0
 11
38.6249428499
 21
32.0502921003
 31
0.0
  0
LINE
  5
699
330
1F
100
AcDbEntity
  8
0
  6
Continuous
 62
     7
370
    25
100
AcDbLine
 10
38.6249428499
 20
32.0502921003
 30
0.0
 11
38.6249428499
 21
46.0502921003
 31
0.0
  0
LINE
  5
69A
330
1F
100
AcDbEntity
  8
0
  6
Continuous
 62
     7
370
    25
100
AcDbLine
 10
38.6249428499
 20
46.0502921003
 30
0.0
 11
24.6249428499
 21
46.0502921003
 31
0.0
  0
LINE
  5
69B
330
1F
100
AcDbEntity
  8
0
  6
Continuous
 62
     7
370
    25
100
AcDbLine
 10
24.6249428499
 20
46.0502921003
 30
0.0
 11
24.6249428499
 21
32.0502921003
 31
0.0
  0
LINE
  5
69C
330
1F
100
AcDbEntity
  8
0
  6
Continuous
 62
     7
370
    25
100
AcDbLine
 10
48.437998476
 20
32.0502921003
 30
0.0
 11
62.437998476
 21
32.0502921003
 31
0.0
  0
LINE
  5
69D
330
1F
100
AcDbEntity
  8
0
  6
Continuous
 62
     7
370
    25
100
AcDbLine
 10
62.437998476
 20
32.0502921003
 30
0.0
 11
62.437998476
 21
46.0502921003
 31
0.0
  0
LINE
  5
69E
330
1F
100
AcDbEntity
  8
0
  6
Continuous
 62
     7
370
    25
100
AcDbLine
 10
62.437998476
 20
46.0502921003
 30
0.0
 11
48.437998476
 21
46.0502921003
 31
0.0
  0
LINE
  5
69F
330
1F
100
AcDbEntity
  8
0
  6
Continuous
 62
     7
370
    25
100
AcDbLine
 10
48.437998476
 20
46.0502921003
 30
0.0
 11
48.437998476
 21
32.0502921003
 31
0.0
  0
LINE
  5
6A0
330
1F
100
AcDbEntity
  8
0
  6
Continuous
 62
     7
370
    25
100
AcDbLine
 10
67.4880365761
 20
32.0502921003
 30
0.0
 11
81.4880365761
 21
32.0502921003
 31
0.0
  0
LINE
  5
6A1
330
1F
100
AcDbEntity
  8
0
  6
Continuous
 62
     7
370
    25
100
AcDbLine
 10
81.4880365761
 20
32.0502921003
 30
0.0
 11
81.4880365761
 21
46.0502921003
 31
0.0
  0
LINE
  5
6A2
330
1F
100
AcDbEntity
  8
0
  6
Continuous
 62
     7
370
    25
100
AcDbLine
 10
81.4880365761
 20
46.0502921003
 30
0.0
 11
67.4880365761
 21
46.0502921003
 31
0.0
  0
LINE
  5
6A3
330
1F
100
AcDbEntity
  8
0
  6
Continuous
 62
     7
370
    25
100
AcDbLine
 10
67.4880365761
 20
46.0502921003
 30
0.0
 11
67.4880365761
 21
32.0502921003
 31
0.0
  0
LINE
  5
6A4
330
1F
100
AcDbEntity
  8
0
  6
Continuous
 62
     7
370
    25
100
AcDbLine
 10
86.5380746761
 20
32.0502921003
 30
0.0
 11
100.5380746761
 21
32.0502921003
 31
0.0
  0
LINE
  5
6A5
330
1F
100
AcDbEntity
  8
0
  6
Continuous
 62
     7
370
    25
100
AcDbLine
 10
100.5380746761
 20
32.0502921003
 30
0.0
 11
100.5380746761
 21
46.0502921003
 31
0.0
  0
LINE
  5
6A6
330
1F
100
AcDbEntity
  8
0
  6
Continuous
 62
     7
370
    25
100
AcDbLine
 10
100.5380746761
 20
46.0502921003
 30
0.0
 11
86.5380746761
 21
46.0502921003
 31
0.0
  0
LINE
  5
6A7
330
1F
100
AcDbEntity
  8
0
  6
Continuous
 62
     7
370
    25
100
AcDbLine
 10
86.5380746761
 20
46.0502921003
 30
0.0
 11
86.5380746761
 21
32.0502921003
 31
0.0
  0
LINE
  5
6A8
330
1F
100
AcDbEntity
  8
0
  6
Continuous
 62
     7
370
    25
100
AcDbLine
 10
105.5881127762
 20
32.0502921003
 30
0.0
 11
119.5881127762
 21
32.0502921003
 31
0.0
  0
LINE
  5
6A9
330
1F
100
AcDbEntity
  8
0
  6
Continuous
 62
     7
370
    25
100
AcDbLine
 10
119.5881127762
 20
32.0502921003
 30
0.0
 11
119.5881127762
 21
46.0502921003
 31
0.0
  0
LINE
  5
6AA
330
1F
100
AcDbEntity
  8
0
  6
Continuous
 62
     7
370
    25
100
AcDbLine
 10
119.5881127762
 20
46.0502921003
 30
0.0
 11
105.5881127762
 21
46.0502921003
 31
0.0
  0
LINE
  5
6AB
330
1F
100
AcDbEntity
  8
0
  6
Continuous
 62
     7
370
    25
100
AcDbLine
 10
105.5881127762
 20
46.0502921003
 30
0.0
 11
105.5881127762
 21
32.0502921003
 31
0.0
  0
LINE
  5
6AC
330
1F
100
AcDbEntity
  8
0
  6
Continuous
 62
     7
370
    25
100
AcDbLine
 10
124.6381508763
 20
32.0502921003
 30
0.0
 11
138.6381508763
 21
32.0502921003
 31
0.0
  0
LINE
  5
6AD
330
1F
100
AcDbEntity
  8
0
  6
Continuous
 62
     7
370
    25
100
AcDbLine
 10
138.6381508763
 20
32.0502921003
 30
0.0
 11
138.6381508763
 21
46.0502921003
 31
0.0
  0
LINE
  5
6AE
330
1F
100
AcDbEntity
  8
0
  6
Continuous
 62
     7
370
    25
100
AcDbLine
 10
138.6381508763
 20
46.0502921003
 30
0.0
 11
124.6381508763
 21
46.0502921003
 31
0.0
  0
LINE
  5
6AF
330
1F
100
AcDbEntity
  8
0
  6
Continuous
 62
     7
370
    25
100
AcDbLine
 10
124.6381508763
 20
46.0502921003
 30
0.0
 11
124.6381508763
 21
32.0502921003
 31
0.0
  0
LINE
  5
6B0
330
1F
100
AcDbEntity
  8
0
  6
Continuous
 62
     7
370
    25
100
AcDbLine
 10
90.1618046736
 20
25.5302540002
 30
0.0
 11
96.9118046736
 21
25.5302540002
 31
0.0
  0
LINE
  5
6B1
330
1F
100
AcDbEntity
  8
0
  6
Continuous
 62
     7
370
    25
100
AcDbLine
 10
90.1618046736
 20
22.3002540002
 30
0.0
 11
90.1618046736
 21
25.5302540002
 31
0.0
  0
LINE
  5
6B2
330
1F
100
AcDbEntity
  8
0
  6
Continuous
 62
     7
370
    25
100
AcDbLine
 10
89.3418046736
 20
22.3002540002
 30
0.0
 11
90.1618046736
 21
22.3002540002
 31
0.0
  0
LINE
  5
6B3
330
1F
100
AcDbEntity
  8
0
  6
Continuous
 62
     7
370
    25
100
AcDbLine
 10
89.3418046736
 20
19.5002540002
 30
0.0
 11
89.3418046736
 21
22.3002540002
 31
0.0
  0
LINE
  5
6B4
330
1F
100
AcDbEntity
  8
0
  6
Continuous
 62
     7
370
    25
100
AcDbLine
 10
90.1618046736
 20
19.5002540002
 30
0.0
 11
89.3418046736
 21
19.5002540002
 31
0.0
  0
LINE
  5
6B5
330
1F
100
AcDbEntity
  8
0
  6
Continuous
 62
     7
370
    25
100
AcDbLine
 10
90.1618046736
 20
13.2302540002
 30
0.0
 11
90.1618046736
 21
19.5002540002
 31
0.0
  0
LINE
  5
6B6
330
1F
100
AcDbEntity
  8
0
  6
Continuous
 62
     7
370
    25
100
AcDbLine
 10
91.8868046736
 20
13.2302540002
 30
0.0
 11
90.1618046736
 21
13.2302540002
 31
0.0
  0
LINE
  5
6B7
330
1F
100
AcDbEntity
  8
0
  6
Continuous
 62
     7
370
    25
100
AcDbLine
 10
91.8868046736
 20
12.0302540002
 30
0.0
 11
91.8868046736
 21
13.2302540002
 31
0.0
  0
LINE
  5
6B8
330
1F
100
AcDbEntity
  8
0
  6
Continuous
 62
     7
370
    25
100
AcDbLine
 10
95.1868046736
 20
12.0302540002
 30
0.0
 11
91.8868046736
 21
12.0302540002
 31
0.0
  0
LINE
  5
6B9
330
1F
100
AcDbEntity
  8
0
  6
Continuous
 62
     7
370
    25
100
AcDbLine
 10
95.1868046736
 20
13.2302540002
 30
0.0
 11
95.1868046736
 21
12.0302540002
 31
0.0
  0
LINE
  5
6BA
330
1F
100
AcDbEntity
  8
0
  6
Continuous
 62
     7
370
    25
100
AcDbLine
 10
96.9118046736
 20
13.2302540002
 30
0.0
 11
95.1868046736
 21
13.2302540002
 31
0.0
  0
LINE
  5
6BB
330
1F
100
AcDbEntity
  8
0
  6
Continuous
 62
     7
370
    25
100
AcDbLine
 10
96.9118046736
 20
17.7002540002
 30
0.0
 11
96.9118046736
 21
13.2302540002
 31
0.0
  0
LINE
  5
6BC
330
1F
100
AcDbEntity
  8
0
  6
Continuous
 62
     7
370
    25
100
AcDbLine
 10
134.1629159258
 20
17.7002540002
 30
0.0
 11
96.9118046736
 21
17.7002540002
 31
0.0
  0
LINE
  5
6BD
330
1F
100
AcDbEntity
  8
0
  6
Continuous
 62
     7
370
    25
100
AcDbLine
 10
134.1629159258
 20
17.7002540002
 30
0.0
 11
134.1629159258
 21
13.0002540002
 31
0.0
  0
LINE
  5
6BE
330
1F
100
AcDbEntity
  8
0
  6
Continuous
 62
     7
370
    25
100
AcDbLine
 10
134.1629159258
 20
13.0002540002
 30
0.0
 11
148.1629159258
 21
13.0002540002
 31
0.0
  0
LINE
  5
6BF
330
1F
100
AcDbEntity
  8
0
  6
Continuous
 62
     7
370
    25
100
AcDbLine
 10
185.4140271781
 20
17.7002540002
 30
0.0
 11
148.1629159258
 21
17.7002540002
 31
0.0
  0
LINE
  5
6C0
330
1F
100
AcDbEntity
  8
0
  6
Continuous
 62
     7
370
    25
100
AcDbLine
 10
185.4140271781
 20
13.2302540002
 30
0.0
 11
185.4140271781
 21
17.7002540002
 31
0.0
  0
LINE
  5
6C1
330
1F
100
AcDbEntity
  8
0
  6
Continuous
 62
     7
370
    25
100
AcDbLine
 10
187.1390271781
 20
13.2302540002
 30
0.0
 11
185.4140271781
 21
13.2302540002
 31
0.0
  0
LINE
  5
6C2
330
1F
100
AcDbEntity
  8
0
  6
Continuous
 62
     7
370
    25
100
AcDbLine
 10
187.1390271781
 20
12.0302540002
 30
0.0
 11
187.1390271781
 21
13.2302540002
 31
0.0
  0
LINE
  5
6C3
330
1F
100
AcDbEntity
  8
0
  6
Continuous
 62
     7
370
    25
100
AcDbLine
 10
190.4390271781
 20
12.0302540002
 30
0.0
 11
187.1390271781
 21
12.0302540002
 31
0.0
  0
LINE
  5
6C4
330
1F
100
AcDbEntity
  8
0
  6
Continuous
 62
     7
370
    25
100
AcDbLine
 10
190.4390271781
 20
13.2302540002
 30
0.0
 11
190.4390271781
 21
12.0302540002
 31
0.0
  0
LINE
  5
6C5
330
1F
100
AcDbEntity
  8
0
  6
Continuous
 62
     7
370
    25
100
AcDbLine
 10
192.1640271781
 20
13.2302540002
 30
0.0
 11
190.4390271781
 21
13.2302540002
 31
0.0
  0
LINE
  5
6C6
330
1F
100
AcDbEntity
  8
0
  6
Continuous
 62
     7
370
    25
100
AcDbLine
 10
192.1640271781
 20
19.5002540002
 30
0.0
 11
192.1640271781
 21
13.2302540002
 31
0.0
  0
LINE
  5
6C7
330
1F
100
AcDbEntity
  8
0
  6
Continuous
 62
     7
370
    25
100
AcDbLine
 10
192.9840271781
 20
19.5002540002
 30
0.0
 11
192.1640271781
 21
19.5002540002
 31
0.0
  0
LINE
  5
6C8
330
1F
100
AcDbEntity
  8
0
  6
Continuous
 62
     7
370
    25
100
AcDbLine
 10
192.9840271781
 20
22.3002540002
 30
0.0
 11
192.9840271781
 21
19.5002540002
 31
0.0
  0
LINE
  5
6C9
330
1F
100
AcDbEntity
  8
0
  6
Continuous
 62
     7
370
    25
100
AcDbLine
 10
192.1640271781
 20
22.3002540002
 30
0.0
 11
192.9840271781
 21
22.3002540002
 31
0.0
  0
LINE
  5
6CA
330
1F
100
AcDbEntity
  8
0
  6
Continuous
 62
     7
370
    25
100
AcDbLine
 10
192.1640271781
 20
25.5302540002
 30
0.0
 11
192.1640271781
 21
22.3002540002
 31
0.0
  0
LINE
  5
6CB
330
1F
100
AcDbEntity
  8
0
  6
Continuous
 62
     7
370
    25
100
AcDbLine
 10
185.4140271781
 20
25.5302540002
 30
0.0
 11
192.1640271781
 21
25.5302540002
 31
0.0
  0
LINE
  5
6CC
330
1F
100
AcDbEntity
  8
0
  6
Continuous
 62
     7
370
    25
100
AcDbLine
 10
185.4140271781
 20
22.3002540002
 30
0.0
 11
185.4140271781
 21
25.5302540002
 31
0.0
  0
LINE
  5
6CD
330
1F
100
AcDbEntity
  8
0
  6
Continuous
 62
     7
370
    25
100
AcDbLine
 10
148.1629159258
 20
22.3002540002
 30
0.0
 11
185.4140271781
 21
22.3002540002
 31
0.0
  0
LINE
  5
6CE
330
1F
100
AcDbEntity
  8
0
  6
Continuous
 62
     7
370
    25
100
AcDbLine
 10
148.1629159258
 20
22.3002540002
 30
0.0
 11
148.1629159258
 21
27.0002540002
 31
0.0
  0
LINE
  5
6CF
330
1F
100
AcDbEntity
  8
0
  6
Continuous
 62
     7
370
    25
100
AcDbLine
 10
148.1629159258
 20
27.0002540002
 30
0.0
 11
134.1629159258
 21
27.0002540002
 31
0.0
  0
LINE
  5
6D0
330
1F
100
AcDbEntity
  8
0
  6
Continuous
 62
     7
370
    25
100
AcDbLine
 10
96.9118046736
 20
22.3002540002
 30
0.0
 11
134.1629159258
 21
22.3002540002
 31
0.0
  0
LINE
  5
6D1
330
1F
100
AcDbEntity
  8
0
  6
Continuous
 62
     7
370
    25
100
AcDbLine
 10
96.9118046736
 20
25.5302540002
 30
0.0
 11
96.9118046736
 21
22.3002540002
 31
0.0
  0
LINE
  5
6D2
330
1F
100
AcDbEntity
  8
0
  6
Continuous
 62
     7
370
    25
100
AcDbLine
 10
67.4882905766
 20
12.9999999997
 30
0.0
 11
81.4882905766
 21
12.9999999997
 31
0.0
  0
LINE
  5
6D3
330
1F
100
AcDbEntity
  8
0
  6
Continuous
 62
     7
370
    25
100
AcDbLine
 10
81.4882905766
 20
12.9999999997
 30
0.0
 11
81.4882905766
 21
26.9999999997
 31
0.0
  0
LINE
  5
6D4
330
1F
100
AcDbEntity
  8
0
  6
Continuous
 62
     7
370
    25
100
AcDbLine
 10
81.4882905766
 20
26.9999999997
 30
0.0
 11
67.4882905766
 21
26.9999999997
 31
0.0
  0
LINE
  5
6D5
330
1F
100
AcDbEntity
  8
0
  6
Continuous
 62
     7
370
    25
100
AcDbLine
 10
67.4882905766
 20
26.9999999997
 30
0.0
 11
67.4882905766
 21
12.9999999997
 31
0.0
  0
LINE
  5
6D6
330
1F
100
AcDbEntity
  8
0
  6
Continuous
 62
     7
370
    25
100
AcDbLine
 10
48.4382524765
 20
13.0002540002
 30
0.0
 11
62.4382524765
 21
13.0002540002
 31
0.0
  0
LINE
  5
6D7
330
1F
100
AcDbEntity
  8
0
  6
Continuous
 62
     7
370
    25
100
AcDbLine
 10
62.4382524765
 20
13.0002540002
 30
0.0
 11
62.4382524765
 21
27.0002540002
 31
0.0
  0
LINE
  5
6D8
330
1F
100
AcDbEntity
  8
0
  6
Continuous
 62
     7
370
    25
100
AcDbLine
 10
62.4382524765
 20
27.0002540002
 30
0.0
 11
48.4382524765
 21
27.0002540002
 31
0.0
  0
LINE
  5
6D9
330
1F
100
AcDbEntity
  8
0
  6
Continuous
 62
     7
370
    25
100
AcDbLine
 10
48.4382524765
 20
27.0002540002
 30
0.0
 11
48.4382524765
 21
13.0002540002
 31
0.0
  0
LINE
  5
6DA
330
1F
100
AcDbEntity
  8
0
  6
Continuous
 62
     7
370
    25
100
AcDbLine
 10
363.5131826264
 20
51.1003302004
 30
0.0
 11
377.5131826264
 21
51.1003302004
 31
0.0
  0
LINE
  5
6DB
330
1F
100
AcDbEntity
  8
0
  6
Continuous
 62
     7
370
    25
100
AcDbLine
 10
377.5131826264
 20
51.1003302004
 30
0.0
 11
377.5131826264
 21
65.1003302004
 31
0.0
  0
LINE
  5
6DC
330
1F
100
AcDbEntity
  8
0
  6
Continuous
 62
     7
370
    25
100
AcDbLine
 10
377.5131826264
 20
65.1003302004
 30
0.0
 11
363.5131826264
 21
65.1003302004
 31
0.0
  0
LINE
  5
6DD
330
1F
100
AcDbEntity
  8
0
  6
Continuous
 62
     7
370
    25
100
AcDbLine
 10
363.5131826264
 20
65.1003302004
 30
0.0
 11
363.5131826264
 21
51.1003302004
 31
0.0
  0
LINE
  5
6DE
330
1F
100
AcDbEntity
  8
0
  6
Continuous
 62
     7
370
    25
100
AcDbLine
 10
363.5131826264
 20
32.0502921003
 30
0.0
 11
377.5131826264
 21
32.0502921003
 31
0.0
  0
LINE
  5
6DF
330
1F
100
AcDbEntity
  8
0
  6
Continuous
 62
     7
370
    25
100
AcDbLine
 10
377.5131826264
 20
32.0502921003
 30
0.0
 11
377.5131826264
 21
46.0502921003
 31
0.0
  0
LINE
  5
6E0
330
1F
100
AcDbEntity
  8
0
  6
Continuous
 62
     7
370
    25
100
AcDbLine
 10
377.5131826264
 20
46.0502921003
 30
0.0
 11
363.5131826264
 21
46.0502921003
 31
0.0
  0
LINE
  5
6E1
330
1F
100
AcDbEntity
  8
0
  6
Continuous
 62
     7
370
    25
100
AcDbLine
 10
363.5131826264
 20
46.0502921003
 30
0.0
 11
363.5131826264
 21
32.0502921003
 31
0.0
  0
LINE
  5
6E2
330
1F
100
AcDbEntity
  8
0
  6
Continuous
 62
     7
370
    25
100
AcDbLine
 10
363.5129286259
 20
13.0005080007
 30
0.0
 11
377.5129286259
 21
13.0005080007
 31
0.0
  0
LINE
  5
6E3
330
1F
100
AcDbEntity
  8
0
  6
Continuous
 62
     7
370
    25
100
AcDbLine
 10
377.5129286259
 20
13.0005080007
 30
0.0
 11
377.5129286259
 21
27.0005080007
 31
0.0
  0
LINE
  5
6E4
330
1F
100
AcDbEntity
  8
0
  6
Continuous
 62
     7
370
    25
100
AcDbLine
 10
377.5129286259
 20
27.0005080007
 30
0.0
 11
363.5129286259
 21
27.0005080007
 31
0.0
  0
LINE
  5
6E5
330
1F
100
AcDbEntity
  8
0
  6
Continuous
 62
     7
370
    25
100
AcDbLine
 10
363.5129286259
 20
27.0005080007
 30
0.0
 11
363.5129286259
 21
13.0005080007
 31
0.0
  0
LINE
  5
6E6
330
1F
100
AcDbEntity
  8
0
  6
Continuous
 62
     7
370
    25
100
AcDbLine
 10
134.1629159258
 20
27.0002540002
 30
0.0
 11
134.1629159258
 21
22.3002540002
 31
0.0
  0
LINE
  5
6E7
330
1F
100
AcDbEntity
  8
0
  6
Continuous
 62
     7
370
    25
100
AcDbLine
 10
148.1629159258
 20
13.0002540002
 30
0.0
 11
148.1629159258
 21
17.7002540002
 31
0.0
  0
LINE
  5
6E8
330
1F
100
AcDbEntity
  8
0
  6
Continuous
 62
     7
370
    25
100
AcDbLine
 10
238.9383794768
 20
65.1005842009
 30
0.0
 11
238.9383794768
 21
60.4005842009
 31
0.0
  0
LINE
  5
6E9
330
1F
100
AcDbEntity
  8
0
  6
Continuous
 62
     7
370
    25
100
AcDbLine
 10
252.9383794768
 20
51.1005842009
 30
0.0
 11
252.9383794768
 21
55.8005842009
 31
0.0
  0
LINE
  5
6EA
330
1F
100
AcDbEntity
  8
0
  6
Continuous
 62
     7
370
    25
100
AcDbLine
 10
418.67500635
 20
110.3964864133
 30
0.0
 11
0.0
 21
110.3964864133
 31
0.0
  0
LINE
  5
6EB
330
1F
100
AcDbEntity
  8
0
  6
Continuous
 62
     7
370
    25
100
AcDbLine
 10
418.67500635
 20
116.2001524
 30
0.0
 11
0.0
 21
116.2001524
 31
0.0
  0
LINE
  5
6EC
330
1F
100
AcDbEntity
  8
0
  6
Continuous
 62
     7
370
    25
100
AcDbLine
 10
0.0
 20
5.8036659864
 30
0.0
 11
418.67500635
 21
5.8036659864
 31
0.0
  0
LINE
  5
6ED
330
1F
100
AcDbEntity
  8
0
  6
Continuous
 62
     7
370
    25
100
AcDbLine
 10
0.0
 20
0.0
 30
0.0
 11
418.67500635
 21
0.0
 31
0.0
  0
ENDSEC
  0
SECTION
  2
OBJECTS
  0
DICTIONARY
  5
C
330
0
100
AcDbDictionary
281
     1
  3
ACAD_GROUP
350
D
  3
ACAD_LAYOUT
350
1A
  3
ACAD_MLINESTYLE
350
17
  3
ACAD_PLOTSETTINGS
350
19
  3
ACAD_PLOTSTYLENAME
350
E
  3
ACAD_SCALELIST
350
47
  3
DWGPROPS
350
6EE
  0
DICTIONARY
  5
D
102
{ACAD_REACTORS
330
C
102
}
330
C
100
AcDbDictionary
281
     1
  0
DICTIONARY
  5
1A
102
{ACAD_REACTORS
330
C
102
}
330
C
100
AcDbDictionary
281
     1
  3
Layout1
350
1E
  3
Layout2
350
26
  3
Model
350
22
  0
DICTIONARY
  5
17
102
{ACAD_REACTORS
330
C
102
}
330
C
100
AcDbDictionary
281
     1
  3
Standard
350
18
  0
DICTIONARY
  5
19
102
{ACAD_REACTORS
330
C
102
}
330
C
100
AcDbDictionary
281
     1
  0
ACDBDICTIONARYWDFLT
  5
E
102
{ACAD_REACTORS
330
C
102
}
330
C
100
AcDbDictionary
281
     1
  3
Normal
350
F
100
AcDbDictionaryWithDefault
340
F
  0
DICTIONARY
  5
47
102
{ACAD_REACTORS
330
C
102
}
330
C
100
AcDbDictionary
281
     1
  3
A0
350
48
  3
A1
350
49
  3
A2
350
4A
  3
A3
350
4B
  3
A4
350
4C
  3
A5
350
4D
  3
A6
350
4E
  3
A7
350
4F
  3
A8
350
50
  3
A9
350
51
  3
B0
350
52
  3
B1
350
53
  3
B2
350
54
  3
B3
350
55
  3
B4
350
56
  3
B5
350
57
  3
B6
350
58
  0
XRECORD
  5
6EE
102
{ACAD_REACTORS
330
C
102
}
330
C
100
AcDbXrecord
280
     1
  1
DWGPROPS COOKIE
  2

  3

  4

  6

  7

  8
awilson
  9

300
=
301
=
302
=
303
=
304
=
305
=
306
=
307
=
308
=
309
=
 40
0.0
 41
2460270.764487396
 42
2460270.764529989
  1

 90
        0
  0
LAYOUT
  5
1E
102
{ACAD_REACTORS
330
1A
102
}
330
1A
100
AcDbPlotSettings
  1

  2
none_device
  4

  6

 40
0.0
 41
0.0
 42
0.0
 43
0.0
 44
0.0
 45
0.0
 46
0.0
 47
0.0
 48
0.0
 49
0.0
140
0.0
141
0.0
142
1.0
143
1.0
 70
   688
 72
     1
 73
     0
 74
     5
  7

 75
    16
147
1.0
148
0.0
149
0.0
100
AcDbLayout
  1
Layout1
 70
     1
 71
     1
 10
0.0
 20
0.0
 11
420.0
 21
297.0
 12
0.0
 22
0.0
 32
0.0
 14
1.0000000000E+20
 24
1.0000000000E+20
 34
1.0000000000E+20
 15
-1.0000000000E+20
 25
-1.0000000000E+20
 35
-1.0000000000E+20
146
0.0
 13
0.0
 23
0.0
 33
0.0
 16
1.0
 26
0.0
 36
0.0
 17
0.0
 27
1.0
 37
0.0
 76
     0
330
1B
  0
LAYOUT
  5
26
102
{ACAD_REACTORS
330
1A
102
}
330
1A
100
AcDbPlotSettings
  1

  2
none_device
  4

  6

 40
0.0
 41
0.0
 42
0.0
 43
0.0
 44
0.0
 45
0.0
 46
0.0
 47
0.0
 48
0.0
 49
0.0
140
0.0
141
0.0
142
1.0
143
1.0
 70
   688
 72
     1
 73
     0
 74
     5
  7

 75
    16
147
1.0
148
0.0
149
0.0
100
AcDbLayout
  1
Layout2
 70
     1
 71
     2
 10
0.0
 20
0.0
 11
0.0
 21
0.0
 12
0.0
 22
0.0
 32
0.0
 14
0.0
 24
0.0
 34
0.0
 15
0.0
 25
0.0
 35
0.0
146
0.0
 13
0.0
 23
0.0
 33
0.0
 16
1.0
 26
0.0
 36
0.0
 17
0.0
 27
1.0
 37
0.0
 76
     0
330
23
  0
LAYOUT
  5
22
102
{ACAD_REACTORS
330
1A
102
}
330
1A
100
AcDbPlotSettings
  1

  2
none_device
  4
ANSI_A_(11.00_x_8.50_Inches)
  6

 40
6.35
 41
19.05
 42
6.35000508
 43
19.05000254
 44
279.4
 45
215.9
 46
-4.95300254
 47
50.5150236691
 48
0.0
 49
0.0
140
0.0
141
0.0
142
0.0260106284
143
1.0
 70
  1696
 72
     0
 73
     0
 74
     0
  7

 75
     0
147
0.0179189148
148
-1300.4909072572
149
0.0
100
AcDbLayout
  1
Model
 70
     1
 71
     0
 10
0.0
 20
0.0
 11
420.0
 21
297.0
 12
0.0
 22
0.0
 32
0.0
 14
0.0
 24
0.0
 34
0.0
 15
418.67500635
 25
116.2001524
 35
0.0
146
0.0
 13
0.0
 23
0.0
 33
0.0
 16
1.0
 26
0.0
 36
0.0
 17
0.0
 27
1.0
 37
0.0
 76
     0
330
1F
331
29
  0
MLINESTYLE
  5
18
102
{ACAD_REACTORS
330
17
102
}
330
17
100
AcDbMlineStyle
  2
Standard
 70
     0
  3

 62
   256
 51
90.0
 52
90.0
 71
     2
 49
0.5
 62
   256
  6
BYLAYER
 49
-0.5
 62
   256
  6
BYLAYER
  0
ACDBPLACEHOLDER
  5
F
102
{ACAD_REACTORS
330
E
102
}
330
E
  0
SCALE
  5
48
102
{ACAD_REACTORS
330
47
102
}
330
47
100
AcDbScale
 70
     0
300
1:1
140
1.0
141
1.0
290
     1
  0
SCALE
  5
49
102
{ACAD_REACTORS
330
47
102
}
330
47
100
AcDbScale
 70
     0
300
1:2
140
1.0
141
2.0
290
     0
  0
SCALE
  5
4A
102
{ACAD_REACTORS
330
47
102
}
330
47
100
AcDbScale
 70
     0
300
1:4
140
1.0
141
4.0
290
     0
  0
SCALE
  5
4B
102
{ACAD_REACTORS
330
47
102
}
330
47
100
AcDbScale
 70
     0
300
1:5
140
1.0
141
5.0
290
     0
  0
SCALE
  5
4C
102
{ACAD_REACTORS
330
47
102
}
330
47
100
AcDbScale
 70
     0
300
1:8
140
1.0
141
8.0
290
     0
  0
SCALE
  5
4D
102
{ACAD_REACTORS
330
47
102
}
330
47
100
AcDbScale
 70
     0
300
1:10
140
1.0
141
10.0
290
     0
  0
SCALE
  5
4E
102
{ACAD_REACTORS
330
47
102
}
330
47
100
AcDbScale
 70
     0
300
1:16
140
1.0
141
16.0
290
     0
  0
SCALE
  5
4F
102
{ACAD_REACTORS
330
47
102
}
330
47
100
AcDbScale
 70
     0
300
1:20
140
1.0
141
20.0
290
     0
  0
SCALE
  5
50
102
{ACAD_REACTORS
330
47
102
}
330
47
100
AcDbScale
 70
     0
300
1:30
140
1.0
141
30.0
290
     0
  0
SCALE
  5
51
102
{ACAD_REACTORS
330
47
102
}
330
47
100
AcDbScale
 70
     0
300
1:40
140
1.0
141
40.0
290
     0
  0
SCALE
  5
52
102
{ACAD_REACTORS
330
47
102
}
330
47
100
AcDbScale
 70
     0
300
1:50
140
1.0
141
50.0
290
     0
  0
SCALE
  5
53
102
{ACAD_REACTORS
330
47
102
}
330
47
100
AcDbScale
 70
     0
300
1:100
140
1.0
141
100.0
290
     0
  0
SCALE
  5
54
102
{ACAD_REACTORS
330
47
102
}
330
47
100
AcDbScale
 70
     0
300
2:1
140
2.0
141
1.0
290
     0
  0
SCALE
  5
55
102
{ACAD_REACTORS
330
47
102
}
330
47
100
AcDbScale
 70
     0
300
4:1
140
4.0
141
1.0
290
     0
  0
SCALE
  5
56
102
{ACAD_REACTORS
330
47
102
}
330
47
100
AcDbScale
 70
     0
300
8:1
140
8.0
141
1.0
290
     0
  0
SCALE
  5
57
102
{ACAD_REACTORS
330
47
102
}
330
47
100
AcDbScale
 70
     0
300
10:1
140
10.0
141
1.0
290
     0
  0
SCALE
  5
58
102
{ACAD_REACTORS
330
47
102
}
330
47
100
AcDbScale
 70
     0
300
100:1
140
100.0
141
1.0
290
     0
  0
ENDSEC
  0
EOF
